<?xml version="1.0" encoding="utf-8"?>
<!-- Generator: Adobe Illustrator 23.1.0, SVG Export Plug-In . SVG Version: 6.00 Build 0)  -->
<svg version="1.1" id="Capa_1" xmlns="http://www.w3.org/2000/svg" xmlns:xlink="http://www.w3.org/1999/xlink" x="0px" y="0px"
	 viewBox="0 0 1920 196" style="enable-background:new 0 0 1920 196;" xml:space="preserve">
<style type="text/css">
	.st0{fill:#4FA7CC;}
</style>
<polygon class="st0" points="0,0 183.13,0 254.6,196 73.27,196 "/>
<polygon class="st0" points="160,0 343.13,0 414.6,196 233.27,196 "/>
<polygon class="st0" points="809.6,0 992.73,0 1064.2,196 882.87,196 "/>
<polygon class="st0" points="1444.8,0 1627.93,0 1699.4,196 1518.07,196 "/>
<polygon class="st0" points="254.6,0 437.73,0 509.2,196 327.87,196 "/>
<polygon class="st0" points="652.8,0 835.93,0 907.4,196 726.07,196 "/>
<polygon class="st0" points="907.4,0 1090.53,0 1162,196 980.67,196 "/>
<polygon class="st0" points="1283.2,0 1466.33,0 1537.8,196 1356.47,196 "/>
<polygon class="st0" points="1537.8,0 1720.93,0 1792.4,196 1611.07,196 "/>
</svg>
