<?xml version="1.0" encoding="utf-8"?>
<!-- Generator: Adobe Illustrator 23.1.0, SVG Export Plug-In . SVG Version: 6.00 Build 0)  -->
<svg version="1.1" id="Capa_1" xmlns="http://www.w3.org/2000/svg" xmlns:xlink="http://www.w3.org/1999/xlink" x="0px" y="0px"
	 viewBox="0 0 2000 1878" style="enable-background:new 0 0 2000 1878;" xml:space="preserve">
<style type="text/css">
	.st0{fill:#FFFFFF;}
</style>
<path class="st0" d="M697.5,1436.9l1253.1,0.5c27.4-0.1,49.5-22.4,49.4-49.8c-0.1-27.4-22.4-49.5-49.8-49.4l-1240.6-0.5L380.8,136.5
	c-10.4-34.8-43-59.1-79.4-58.9l-251,0.5C23,78.2,0.9,100.5,1,127.9s22.4,49.5,49.8,49.4l238.4-0.4L618,1378
	C628.5,1412.8,661.1,1437.1,697.5,1436.9z"/>
<g>
	<g>
		<path class="st0" d="M1849.4,652c-77.4,0-145.8,0-217.8,0c-3,34.9-5.9,69.2-9.1,106c-79.3-9.4-28.8-70.7-49.2-105.3
			c-84,0-170.9,0-260,0c0,73.8,0,146,0,224.8c28.3,0,55.1,1.6,81.6-0.4c37.5-2.8,55.4,13.2,55.3,51.3c-44.1,0-88.2,0-135.7,0
			c0,82.5,0,165.3,0,251.8c86.2-17.6,130.4-84,175.2-150.8c25.6,49.4,25.6,49.4-24.8,125.4c24-9.5,42.2-16.8,64.6-25.7
			c6,13.5,12.3,27.6,18.4,41.4c-187.3,106.9-507,90.9-708.9-131.2C631.3,811,622,467.8,814.9,238.9
			c201.2-238.6,540.2-293.7,796.9-128.6c270,173.6,339.8,498,238.8,737.3c-14.1-4.8-28.4-9.7-40.4-13.8
			C1823.2,773.3,1835.7,715.9,1849.4,652z M1259.2,652.5c-89.7,0-176.4,0-272.6,0c11.6,73.8,21.8,143.9,34.4,213.5
			c1.4,7.8,16,19.1,24.1,18.8c70.9-2.5,141.7-7.3,214.1-11.5C1259.2,799.4,1259.2,728.3,1259.2,652.5z M1258.8,377
			c-72.7-4-142.5-8.5-212.3-10.7c-8.5-0.3-23.7,10.2-25.1,17.6c-12.7,69.7-23.1,139.8-34.8,213.6c96.4,0,183.3,0,272.2,0
			C1258.8,523.8,1258.8,452.7,1258.8,377z M1584.8,598.3c-12-81.5-23.3-157.4-34.6-234.1c-85.6,4.6-161.4,8.7-236.3,12.8
			c0,76.2,0,148.2,0,221.4C1402.4,598.3,1488,598.3,1584.8,598.3z M727.9,651.9c5,92.9,29.7,175.9,74.6,252.7
			c4.2,7.1,14.3,16.9,20.1,16c49.9-8.4,99.5-19,147-28.5c-11.1-81.6-21.7-159.9-32.6-240.2C869.2,651.9,801,651.9,727.9,651.9z
			 M1843.5,597.8c-4.5-94.1-30.8-178.7-78.3-256.8c-3.4-5.6-15.6-9.8-22.8-8.6c-47.5,7.7-94.7,17-140.9,25.6
			c11.3,81.9,22.3,161,33.2,239.7C1704.1,597.8,1772.3,597.8,1843.5,597.8z M970,358.6c-46.7-9-93.9-18.6-141.3-26.6
			c-7-1.2-19.1,3.6-22.6,9.4c-47.1,78.1-73.3,162.6-77.8,256c72.6,0,141.7,0,209.1,0C948.4,516.5,959,438.6,970,358.6z M1259.3,73.7
			c-88.1,10.3-199,138.9-210.3,242c69.6,3.3,139,6.5,210.3,9.8C1259.3,237.7,1259.3,157,1259.3,73.7z M1258.3,1183
			c0-90.1,0-171.6,0-258.5c-72.8,4-142.7,7.9-217.8,12C1088.5,1046,1135.9,1144.2,1258.3,1183z M1312.8,326
			c73-3.9,142.8-7.5,218.4-11.5c-47.7-110.6-96.2-207.7-218.4-246.9C1312.8,155.6,1312.8,236.3,1312.8,326z M1476,100.5
			c32,61.8,64,124.8,97.6,186.9c4.6,8.5,17.6,18.9,25.6,18c40.8-4.8,81.2-12.9,128.1-21C1656.1,194.2,1572.2,135.5,1476,100.5z
			 M1095.8,100.6c-95.8,33.8-179.9,93.5-251.5,183.5c46.1,8.2,85.5,16.6,125.3,21.1c8.8,1,23.3-9.8,28.3-18.9
			C1031.9,224.3,1064.1,161.3,1095.8,100.6z M843.7,966.4c73.7,89.8,155.8,150.9,254.2,184.3c-37.9-68-76.1-136.4-116-208
			C941,949.7,896.3,957.3,843.7,966.4z"/>
	</g>
	<g>
		<path class="st0" d="M1429.3,736.5c163.5,62.4,318.2,121.4,480.5,183.4c-55.8,20-104.2,37.3-163.2,58.4
			c40.1,33.3,74.8,62.2,110.3,91.6c-34.5,34.7-59.8,60.1-93,93.4c-29.3-35.3-58.1-70.2-92.2-111.3c-21.5,60.1-38.6,108.1-58.9,165
			C1550.8,1054.4,1491.5,899.3,1429.3,736.5z"/>
	</g>
</g>
<g>
	<g>
		<path class="st0" d="M1160.6,1662.8c0,90.8-57.6,164.4-148.4,164.4s-180.4-73.6-180.4-164.4s73.6-164.4,164.4-164.4
			S1160.6,1572,1160.6,1662.8z"/>
	</g>
	<g>
		<path class="st0" d="M1844.5,1662.8c0,90.8-57.6,164.4-148.4,164.4s-180.4-73.6-180.4-164.4s73.6-164.4,164.4-164.4
			C1770.9,1498.4,1844.5,1572,1844.5,1662.8z"/>
	</g>
</g>
</svg>
