<?xml version="1.0" encoding="utf-8"?>
<!-- Generator: Adobe Illustrator 23.1.0, SVG Export Plug-In . SVG Version: 6.00 Build 0)  -->
<svg version="1.1" id="Capa_1" xmlns="http://www.w3.org/2000/svg" xmlns:xlink="http://www.w3.org/1999/xlink" x="0px" y="0px"
	 viewBox="0 0 2000 2000" style="enable-background:new 0 0 2000 2000;" xml:space="preserve">
<style type="text/css">
	.st0{fill:#35A8E0;}
	.st1{fill:#FFFFFF;}
	.st2{fill:#F29100;}
</style>
<path class="st0" d="M716.79,1479.47l861.06,0.32c18.83-0.08,34.03-15.41,33.95-34.24c-0.08-18.83-15.41-34.03-34.24-33.95
	l-852.44-0.35L499.21,585.92c-7.13-23.94-29.57-40.59-54.56-40.48l-172.46,0.34c-18.83,0.08-34.03,15.41-33.95,34.24
	c0.08,18.83,15.41,34.03,34.24,33.95l163.84-0.31l225.91,825.31C669.37,1462.93,691.81,1479.57,716.79,1479.47z"/>
<g>
	<g>
		<path class="st1" d="M1508.36,940.16c-53.22,0-100.2,0-149.67,0c-2.06,23.97-4.09,47.52-6.27,72.86
			c-54.48-6.48-19.78-48.57-33.81-72.34c-57.74,0-117.45,0-178.64-0.01c0,50.74,0,100.34,0,154.44c19.46,0,37.85,1.1,56.04-0.26
			c25.76-1.93,38.05,9.08,38.01,35.23c-30.3,0-60.59,0-93.27,0c0,56.67,0,113.6-0.01,173.03c59.25-12.12,89.63-57.73,120.36-103.61
			c17.57,33.98,17.57,33.98-17.04,86.17c16.47-6.55,28.99-11.53,44.37-17.65c4.14,9.3,8.43,18.94,12.65,28.44
			c-128.74,73.43-348.39,62.46-487.12-90.14c-142.64-156.91-149-392.77-16.45-550.02c138.22-163.98,371.19-201.78,547.54-88.4
			c185.49,119.26,233.49,342.19,164.07,506.61c-9.66-3.29-19.54-6.65-27.76-9.45C1490.34,1023.52,1498.87,984.04,1508.36,940.16z
			 M1102.75,940.52c-61.62,0-121.21,0-187.29-0.01c7.94,50.73,15,98.84,23.63,146.67c0.96,5.35,10.99,13.14,16.58,12.94
			c48.71-1.72,97.37-5,147.08-7.87C1102.75,1041.42,1102.75,992.57,1102.75,940.52z M1102.54,751.15
			c-49.97-2.73-97.91-5.81-145.91-7.37c-5.84-0.19-16.3,7-17.24,12.12c-8.75,47.9-15.9,96.09-23.91,146.78
			c66.23,0,125.92,0,187.05,0.01C1102.54,852.08,1102.54,803.18,1102.54,751.15z M1326.54,903.27
			c-8.27-55.96-15.99-108.14-23.78-160.89c-58.8,3.18-110.94,6-162.39,8.78c0,52.33,0,101.82,0,152.11
			C1201.17,903.27,1260.02,903.27,1326.54,903.27z M737.72,940.08c3.42,63.84,20.37,120.85,51.26,173.64
			c2.86,4.89,9.83,11.63,13.78,10.97c34.3-5.77,68.34-13.04,101.02-19.57c-7.6-56.09-14.9-109.88-22.37-165.03
			C834.82,940.08,787.94,940.08,737.72,940.08z M1504.3,902.88c-3.07-64.65-21.15-122.79-53.78-176.42
			c-2.35-3.86-10.73-6.7-15.63-5.91c-32.63,5.29-65.08,11.7-96.85,17.61c7.79,56.29,15.31,110.63,22.8,164.71
			C1408.47,902.88,1455.37,902.88,1504.3,902.88z M904.03,738.53c-32.1-6.17-64.51-12.8-97.12-18.25
			c-4.82-0.81-13.13,2.45-15.53,6.42c-32.37,53.67-50.39,111.74-53.46,175.87c49.91,0,97.4,0,143.7,0
			C889.21,847.07,896.52,793.54,904.03,738.53z M1102.86,542.77c-60.52,7.06-136.76,95.42-144.52,166.29
			c47.83,2.23,95.5,4.45,144.51,6.74C1102.85,655.45,1102.85,600,1102.86,542.77z M1102.2,1305.01c0-61.9,0-117.92,0.01-177.64
			c-50.05,2.77-98.08,5.42-149.64,8.27C985.51,1210.87,1018.04,1278.34,1102.2,1305.01z M1139.61,716.17
			c50.14-2.65,98.14-5.18,150.08-7.92c-32.78-75.96-66.08-142.69-150.07-169.68C1139.62,599.06,1139.62,654.5,1139.61,716.17z
			 M1251.77,561.2c22,42.45,44,85.74,67.07,128.45c3.15,5.83,12.12,12.98,17.56,12.35c28.03-3.27,55.78-8.88,88.04-14.44
			C1375.51,625.55,1317.87,585.25,1251.77,561.2z M990.51,561.28c-65.83,23.23-123.59,64.26-172.78,126.12
			c31.68,5.61,58.72,11.4,86.06,14.47c6.08,0.68,16.01-6.71,19.45-12.97C946.61,646.27,968.72,602.96,990.51,561.28z M817.3,1156.15
			c50.65,61.74,107.02,103.71,174.65,126.61c-26.05-46.72-52.27-93.75-79.68-142.91C884.15,1144.68,853.4,1149.96,817.3,1156.15z"/>
	</g>
	<g>
		<path class="st2" d="M1219.68,998.17c112.32,42.87,218.61,83.44,330.17,126.01c-38.33,13.71-71.59,25.6-112.13,40.1
			c27.55,22.89,51.43,42.74,75.79,62.98c-23.72,23.83-41.09,41.27-63.89,64.18c-20.1-24.28-39.93-48.25-63.32-76.51
			c-14.76,41.3-26.54,74.25-40.51,113.35C1303.15,1216.67,1262.43,1110.08,1219.68,998.17z"/>
	</g>
</g>
<g>
	<g>
		<path class="st1" d="M1035.02,1634.69c0,62.4-39.59,112.98-101.99,112.97c-62.4,0-123.98-50.59-123.97-112.99
			c0-62.4,50.59-112.98,112.99-112.97C984.45,1521.71,1035.03,1572.3,1035.02,1634.69z"/>
	</g>
	<g>
		<path class="st1" d="M1504.93,1634.69c0,62.4-39.59,112.98-101.99,112.97c-62.4,0-123.98-50.59-123.97-112.99
			c0-62.4,50.59-112.98,112.99-112.97C1454.36,1521.71,1504.94,1572.3,1504.93,1634.69z"/>
	</g>
</g>
<g>
	<g>
		<path class="st1" d="M683.21,391.08c4.19-2.74,7.27-2.63,9.16,0.27c0.72,1.1,1.08,1.65,1.8,2.75c1.79,2.75,2.39,5.5,1.84,8.24
			c-0.88,4.47-2,11.69-3.17,21.54c-1.33,11.26-2.28,22.68-2.91,33.89c-0.74,13.14-1.1,26.63-1,39.77
			c0.09,12.89,0.67,26.09,1.75,38.93c0.89,10.61,2.12,21.45,3.72,32.1c1.38,9.23,2.65,15.64,3.6,19.26
			c24.67-22.77,50.61-43.49,78.28-62.48c1.28-0.86,2.7-1.15,4.25-0.86c1.55,0.28,2.72,1.04,3.51,2.26c0.89,1.38,1.11,2.76,0.67,4.15
			c-0.44,1.39-1.29,2.5-2.54,3.34c-29.21,20.07-56.41,42.1-82.16,66.45c-2.67,2.57-5.2,2.64-7.62,0.15
			c-0.92-0.94-1.38-1.41-2.29-2.36c-1.02-1.05-1.73-2.14-2.14-3.27c-0.41-1.13-0.78-2.31-1.11-3.51c-0.99-3.63-2.35-9.9-3.89-18.87
			c-1.78-10.45-3.19-21.1-4.26-31.54c-1.31-12.76-2.17-25.91-2.54-38.72c-0.39-13.18-0.26-26.71,0.31-39.91
			c0.5-11.5,1.33-23.23,2.44-34.8c0.99-10.34,1.99-18.03,2.81-22.98c-33.54,22.93-65,47.94-94.69,75.69
			c-3.61,3.44-6.58,3.93-8.98,1.43c-2.53-2.64-2-5.73,1.65-9.21C612,442.58,646.42,415.58,683.21,391.08z"/>
		<path class="st1" d="M875.17,484.78c-8.51,3.76-20.11,6.37-29.47,6.37c-9.51,0-20.99-2.01-29.94-5.26
			c-9.5-3.44-20.4-9.4-27.86-16.18c-9.14-8.31-16.44-16.71-22.13-27.1c-5.91-10.81-9.63-22.08-10.68-34.2
			c-1.03-11.88,0.75-22.79,4.61-34.55c3.68-11.23,11.03-21.98,19.51-30.83c9.23-9.63,20.58-17.11,32.81-22.3
			c12.27-5.21,25.55-8.28,38.93-8.29c11.84,0,23.78,2.6,34.38,7.61c9.29,4.4,19.72,12.82,25.21,21.34
			c6.82,10.57,11.15,20.54,13.66,32.49c2.47,11.81,2.99,23.96,1.58,36.01c-1.22,10.48-4.12,21.71-8.6,31.77
			c-3.93,8.82-10.39,18.56-16.98,25.58C893.69,474.16,883.81,480.95,875.17,484.78z M871.06,474.99c8.56-3.78,15.76-8.85,21.82-15.4
			c6.06-6.54,10.77-14.07,14.32-22.47c3.59-8.48,5.9-18.91,6.75-27.96c0.93-9.91,0.05-21.83-2.11-31.48
			c-2.09-9.32-6.76-20.53-12.37-28.32c-5.14-7.13-13.72-14.68-21.56-18.7c-8.17-4.19-19.75-6.81-28.87-6.93
			c-11.34-0.15-23.08,2.6-32.92,6.79c-9.81,4.17-19.86,10.69-27.63,18.93c-6.57,6.95-13,17.31-16.16,26.36
			c-3.09,8.87-4.51,20.69-3.76,30.03c0.78,9.71,4.38,21.48,8.86,30.08c4.4,8.45,11.56,17.92,18.74,24.28
			c6.55,5.81,15.42,11.59,23.68,14.86c8.32,3.3,16.89,5.13,25.63,5.26C854.21,480.48,862.67,478.7,871.06,474.99z"/>
		<path class="st1" d="M1088.93,262.84c-0.1-3.65,2.15-5.6,6.8-5.8c1.86-0.08,3.5,0.36,4.91,1.31c1.41,0.95,2.12,2.25,2.14,3.9
			c-0.08,54.93-6.1,109.62-5.9,164.56c0.02,1.64-0.5,2.99-1.55,4.03c-1.06,1.04-2.3,1.6-3.74,1.66c-1.19,0.05-1.78,0.08-2.97,0.14
			c-1.44,0.07-2.98-0.08-4.62-0.44c-1.64-0.36-3.13-1.14-4.45-2.34c-3.78-3.23-8.24-8.82-13.39-16.69
			c-5.74-8.76-11.09-17.83-16.32-26.88c-6.06-10.48-12.1-21.16-18.27-31.51c-6.22-10.44-12.79-20.99-19.66-30.87
			c-6.04-8.67-12.64-17.35-19.86-25.29c-6.56-7.22-12.34-12.22-17.01-14.97c8.27,51.58,11.63,103.76,20.49,155.25
			c0.66,3.58-0.77,5.72-4.31,6.49c-1.42,0.31-2.76,0.08-4.02-0.66c-1.26-0.74-2.07-1.92-2.39-3.52
			c-10.14-53.32-14.43-107.49-24.49-160.83c-0.32-1.61,0.1-3.05,1.26-4.34c1.17-1.28,2.66-2.12,4.5-2.52
			c1.65-0.35,2.47-0.53,4.12-0.87c1.83-0.38,3.76-0.59,5.77-0.62c2.01-0.03,3.94,0.43,5.76,1.38c5.16,2.53,11.35,7.4,18.2,14.56
			c7.52,7.86,14.34,16.58,20.49,25.32c6.99,9.93,13.6,20.63,19.76,31.24c6.06,10.44,12,21.24,17.82,31.91
			c4.98,9.13,10.07,18.3,15.36,27.27c4.74,8.04,8.89,13.83,12.45,17.29C1085.21,368.23,1089.79,315.6,1088.93,262.84z"/>
		<path class="st1" d="M1212.13,440.93c-8.94-1.41-19.89-5.53-27.45-10.59c-7.68-5.14-15.9-13.2-21.18-20.81
			c-5.66-8.16-10.93-19.38-12.81-29.11c-2.36-12.25-3.13-23.49-1.57-35.42c1.64-12.47,5.26-24.33,11.21-35.3
			c5.74-10.59,13.14-19.19,22.54-27.31c8.73-7.54,20.12-12.97,31.63-16.14c12.23-3.37,25.16-3.82,37.64-1.84
			c12.55,2,25.48,6.25,35.49,13.37c10.03,7.14,16.94,14.36,23.61,24.81c6.12,9.58,8.44,21.68,8.73,32.24
			c0.35,12.35-2.53,23.92-6.87,36.22c-4.09,11.58-10.74,23.29-18.66,32.73c-7.12,8.5-15.25,16.7-24.53,23.04
			c-7.93,5.42-18.55,10.31-27.82,12.74C1233.07,441.94,1221.26,442.37,1212.13,440.93z M1213.97,430.39
			c9.02,1.43,17.66,1,26.17-1.32c8.51-2.32,16.47-6.25,23.99-11.61c7.7-5.49,15.3-13.36,20.94-20.79c6.68-8.8,12.15-19.05,15.76-29
			c3.54-9.74,5.92-20.96,5.69-31.8c-0.19-8.89-2.92-20.13-7.11-28.01c-4.18-7.86-12.09-16.38-19.4-21.38
			c-8.15-5.57-20.15-10.01-29.82-11.54c-9.67-1.53-22.36-1.01-31.85,1.7c-9.03,2.58-19.59,8.12-26.81,14.15
			c-7.4,6.18-14.88,15.51-19.51,23.95c-4.89,8.91-8.73,20.82-10.24,30.84c-1.45,9.61-1.48,21.55,0.65,31.2
			c2.11,9.59,5.5,18.25,10.25,25.74c4.75,7.49,10.64,13.63,17.63,18.5C1197.28,425.9,1205.12,428.99,1213.97,430.39z"/>
		<path class="st1" d="M1521.68,371.82c-0.49,0.78-0.9,1.34-1.24,1.66c-0.34,0.33-0.76,0.66-1.24,1.01
			c-2.14,1.69-6.45,4.9-12.91,9.7c-7.67,5.7-15.39,11.39-23.04,17.11c-9.63,7.21-19.26,14.52-28.74,21.89
			c-10.04,7.81-20.11,15.76-30.02,23.74c-9.03,7.27-18.05,14.66-26.97,22.11c-8.23,6.88-14.88,12.37-20.13,16.38
			c-2.87,2.1-6.59,2.05-11.24-0.06c-4.82-2.19-7.28-4.94-7.33-8.37c-0.27-6.52-0.17-15,0.28-25.46c0.49-11.27,1.17-22.55,1.86-33.81
			c0.76-12.32,1.55-24.69,2.19-36.99c0.61-11.65,1.11-23.39,1.43-35.07c0.25-9.35,0.36-18.75,0.32-28.11
			c-0.04-7.93-0.17-13.26-0.16-15.97c-0.03-0.59-0.02-1.12,0.02-1.59c0.04-0.46,0.22-1.14,0.53-2c1.04-2.95,3.86-3.68,8.45-2.13
			c1.75,0.59,2.93,1.39,3.55,2.37s0.88,2.25,0.81,3.78c-0.06,0.17,0,3.69-0.03,10.54c-0.03,6.85-0.12,15.65-0.47,26.34
			c-0.4,11.92-1.13,23.88-1.98,35.74c-0.93,12.86-1.99,25.81-2.96,38.7c-0.9,11.86-1.75,23.75-2.51,35.61
			c-0.7,11.04-0.87,19.87-0.53,26.49c0.09,0.24,0.39,0.48,0.89,0.71c0.51,0.23,0.88,0.3,1.13,0.21c5.42-4,12.36-9.76,21.03-17.13
			c9.34-7.94,18.75-15.87,28.17-23.68c10.27-8.51,20.68-17,31.08-25.35c9.53-7.65,19.17-15.26,28.79-22.84
			c8.57-6.75,15.61-12.2,21.08-16.45c5.47-4.24,8.25-6.41,8.34-6.57c1.15-1.02,2.3-1.6,3.47-1.75c1.16-0.15,2.53,0.26,4.1,1.23
			C1522.01,366.48,1523.33,369.18,1521.68,371.82z"/>
		<path class="st1" d="M1542.02,607.32c-1.77-1.77-2.19-3.9-1.18-6.19c0.92-2.07,2.5-5.28,4.49-9.57c2-4.29,4.09-8.86,6.27-13.73
			c2.18-4.86,4.27-9.68,6.26-14.45c1.99-4.77,3.6-8.59,4.85-11.43c-23.52-21.51-48.08-41.42-74.07-59.87
			c-2.83,1.87-6.37,4.31-10.58,7.36c-4.21,3.05-8.47,6.25-12.75,9.58c-4.29,3.34-8.21,6.42-11.79,9.22
			c-3.58,2.81-6.22,4.86-7.93,6.14c-2.18,1.63-4.35,1.76-6.53,0.37c-1.56-0.99-2.46-2.09-2.68-3.31c-0.22-1.21,0-2.36,0.69-3.45
			c0.49-0.77,1.14-1.55,1.97-2.33c0.83-0.78,1.48-1.26,1.77-1.48c0.54-0.4,3.59-3.06,9.25-7.53c5.66-4.47,12.85-10,21.68-16.31
			c9.82-7.02,19.88-13.96,29.95-20.52c10.93-7.12,22.28-14.08,33.59-20.56c10.31-5.91,20.98-11.61,31.62-17
			c9.77-4.95,18-8.36,24.45-10.45c3.39-1.25,7.77,0.28,13.1,4.71c5.14,4.27,7.52,8.37,7.15,12.13c-0.93,6.66-2.66,15.48-5.47,26.14
			c-3.05,11.54-6.45,23.17-10.17,34.46c-4.03,12.21-8.57,24.55-13.34,36.54c-4.37,10.97-9.01,22.04-13.8,32.93
			c-4.32,9.82-8.07,17.93-11.18,24.37c-3.11,6.44-4.91,9.96-5.29,10.61c-0.38,0.65-0.84,1.43-1.35,2.34
			c-0.51,0.91-0.97,1.55-1.36,1.94c-0.92,0.89-2.08,1.34-3.47,1.36C1544.74,609.35,1543.37,608.68,1542.02,607.32z M1567.26,541.57
			c3.89-9.58,7.53-19.32,10.97-29.05c3.43-9.72,6.72-19.57,9.76-29.43c2.93-9.49,5.33-18.41,7.2-26.69
			c1.87-8.28,3.09-15.27,3.75-20.9c-0.07-0.29-0.37-0.66-0.91-1.12c-0.54-0.45-0.97-0.68-1.26-0.69
			c-5.36,1.73-11.92,4.28-19.64,7.72c-7.73,3.44-16.03,7.51-24.88,12.19c-9.18,4.86-18.32,10.05-27.22,15.38
			c-8.94,5.36-17.87,10.96-26.55,16.78C1522.51,503.12,1545.3,521.66,1567.26,541.57z"/>
	</g>
</g>
</svg>
