<?xml version="1.0" standalone="no"?>
<!DOCTYPE svg PUBLIC "-//W3C//DTD SVG 20010904//EN"
 "http://www.w3.org/TR/2001/REC-SVG-20010904/DTD/svg10.dtd">
<svg version="1.0" xmlns="http://www.w3.org/2000/svg"
 width="1080.000000pt" height="1080.000000pt" viewBox="0 0 1080.000000 1080.000000"
 preserveAspectRatio="xMidYMid meet">

<g transform="translate(0.000000,1080.000000) scale(0.100000,-0.100000)"
fill="#000000" stroke="none">
<path d="M0 6930 c0 -2128 2 -3870 4 -3870 2 0 23 35 46 78 70 130 123 172
220 172 l50 0 29 -58 c34 -68 31 -85 -28 -180 -41 -66 -69 -80 -161 -84 -78
-3 -79 -3 -106 60 -1 2 -13 0 -28 -4 l-26 -6 0 -1519 0 -1519 5400 0 5400 0 0
5400 0 5400 -4951 0 c-2723 0 -4949 -3 -4947 -8 2 -4 12 -29 22 -55 l19 -48
-38 -39 c-58 -59 -78 -54 -99 23 -10 34 -23 77 -29 95 l-11 32 -383 0 -383 0
0 -3870z m4660 3698 c31 -18 68 -47 80 -65 l23 -33 -23 -63 c-12 -34 -27 -68
-32 -74 -7 -8 -37 -13 -84 -13 -67 0 -75 2 -90 25 -9 14 -14 35 -11 47 4 15
-3 33 -24 60 -30 37 -30 39 -17 80 25 75 85 87 178 36z m689 -14 c26 -21 31
-33 31 -68 0 -35 -5 -46 -30 -64 -39 -29 -52 -28 -93 11 -29 28 -33 37 -29 72
3 31 10 45 30 57 38 23 56 21 91 -8z m-2569 -114 c0 -8 -7 -2 -15 14 -8 15
-15 33 -15 40 1 16 29 -36 30 -54z m-63 28 c-2 -7 4 -30 14 -50 12 -24 15 -39
9 -43 -6 -4 -8 -14 -6 -23 3 -10 -10 -48 -29 -86 -19 -39 -35 -76 -35 -83 0
-16 -33 -34 -46 -25 -6 4 -23 30 -38 57 l-28 50 19 50 c16 43 23 50 55 58 26
6 35 13 31 23 -3 8 0 15 6 15 6 1 17 2 24 3 6 1 12 10 13 21 2 36 4 45 10 45
3 0 4 -6 1 -12z m42 -50 l-2 -23 -4 23 c-2 12 -9 22 -14 22 -5 0 -9 7 -9 16 0
14 2 14 15 0 8 -8 14 -25 14 -38z m1099 -39 c3 -44 1 -48 -34 -68 -32 -19 -41
-21 -66 -10 -34 14 -43 29 -52 86 -6 41 -5 43 31 62 38 19 38 19 78 -2 37 -20
40 -26 43 -68z m4785 46 c-3 -9 -8 -14 -10 -11 -3 3 -2 9 2 15 9 16 15 13 8
-4z m-413 -25 c31 -31 25 -79 -12 -93 -12 -4 -24 3 -38 22 -23 33 -24 44 -10
72 14 24 35 24 60 -1z m694 -41 c19 -42 16 -60 -7 -40 -23 19 -75 -5 -80 -37
-4 -25 -4 -25 -6 4 0 20 6 37 19 49 11 10 20 23 20 30 0 11 20 35 30 35 3 0
13 -19 24 -41z m-7521 5 c34 -18 57 -38 57 -50 0 -4 12 -20 26 -35 21 -22 26
-36 26 -89 1 -34 -3 -65 -8 -68 -22 -15 -90 -68 -102 -80 -15 -14 -14 -14 -94
40 -53 36 -58 42 -58 76 0 20 7 57 16 81 8 24 13 46 10 48 -9 9 67 93 84 93 6
0 25 -7 43 -16z m8997 -68 c41 -60 40 -91 -4 -117 -22 -13 -33 -26 -29 -35 7
-19 -24 -29 -42 -14 -8 7 -15 22 -15 33 0 12 -14 36 -32 54 -30 31 -31 34 -19
72 12 41 23 48 78 50 27 1 37 -6 63 -43z m-8370 -16 c34 -17 40 -25 40 -53 0
-40 -7 -50 -47 -71 -41 -21 -47 -20 -88 7 -29 19 -35 28 -35 60 0 31 5 40 33
57 40 25 48 25 97 0z m8124 5 c3 -8 1 -15 -3 -15 -5 0 -11 7 -15 15 -3 8 -1
15 3 15 5 0 11 -7 15 -15z m-1749 -26 c13 -40 -64 -93 -78 -55 -9 23 3 53 26
64 33 16 45 14 52 -9z m-2422 -15 c24 -32 16 -86 -19 -121 -13 -13 -31 -40
-39 -59 -10 -25 -25 -39 -52 -50 -21 -9 -45 -25 -54 -36 -9 -11 -32 -22 -57
-25 l-42 -6 0 63 c0 61 1 64 42 102 23 21 53 41 66 45 15 3 29 19 39 45 15 37
52 67 83 67 8 0 23 -11 33 -25z m3767 -12 c26 -21 20 -62 -9 -62 -10 0 -29
-21 -47 -52 -37 -65 -55 -70 -77 -23 -15 32 -16 38 -1 75 9 22 22 40 29 40 8
0 17 9 20 20 8 26 54 27 85 2z m-730 -17 c26 -13 30 -13 45 2 14 14 18 14 26
2 12 -18 2 -62 -16 -71 -7 -5 -19 -30 -26 -58 -12 -45 -17 -51 -55 -66 -40
-15 -44 -15 -67 2 -13 10 -30 32 -37 47 -12 27 -10 31 19 57 36 34 39 44 10
35 -20 -7 -20 -6 -5 23 23 45 56 53 106 27z m-2259 -52 c13 -16 12 -17 -3 -4
-10 7 -18 15 -18 17 0 8 8 3 21 -13z m2588 -42 c51 -39 -10 -102 -68 -71 -30
15 -29 68 2 80 32 13 39 12 66 -9z m-2658 -181 c15 0 19 -7 19 -31 0 -45 -16
-67 -58 -79 -49 -13 -58 -13 -76 5 -11 12 -13 22 -5 43 11 31 68 75 87 67 8
-3 22 -5 33 -5z m-451 -90 c-14 -11 -29 -20 -35 -20 -5 0 4 9 20 20 38 25 48
25 15 0z m2619 -204 c10 -9 26 -31 36 -49 17 -33 17 -33 -11 -78 -25 -39 -33
-45 -54 -40 -16 4 -32 21 -45 47 -11 22 -28 51 -37 64 -19 25 -23 61 -10 74
12 13 101 0 121 -18z m-2064 -38 c5 -4 20 -16 33 -26 18 -13 26 -34 34 -90 11
-68 10 -73 -11 -95 -13 -15 -19 -30 -15 -40 8 -22 16 -21 45 1 13 10 31 17 39
17 8 -1 23 -3 32 -3 30 -3 34 -49 7 -78 -29 -31 -72 -31 -102 -1 -18 17 -33
22 -72 20 -73 -2 -75 -2 -75 -14 0 -6 -7 -17 -15 -26 -8 -8 -13 -19 -10 -24 4
-5 3 -9 0 -9 -38 0 -80 85 -56 114 10 12 10 29 -3 85 -9 39 -16 77 -16 86 0 8
18 35 41 60 40 43 42 44 87 38 26 -3 51 -10 57 -15z m-6445 -74 l35 4 -33 -29
c-34 -30 -75 -42 -53 -15 10 12 8 17 -8 25 -11 6 -29 11 -40 11 -22 0 -25 8
-15 33 5 13 12 11 42 -9 27 -19 45 -24 72 -20z m7076 -212 c-9 -9 -37 8 -31
18 5 8 11 7 21 -1 8 -6 12 -14 10 -17z m639 -32 c4 -6 11 -7 17 -4 19 12 1
-98 -20 -126 -11 -14 -31 -29 -46 -35 -50 -18 -83 45 -61 116 12 38 94 74 110
49z m565 -90 c0 -5 -2 -10 -4 -10 -3 0 -8 5 -11 10 -3 6 -1 10 4 10 6 0 11 -4
11 -10z m-1136 -76 c9 -8 14 -19 11 -24 -3 -5 0 -20 6 -34 6 -13 9 -36 5 -50
-6 -24 -11 -26 -55 -26 -43 0 -53 4 -75 31 -30 36 -31 39 -12 84 14 33 18 35
60 35 27 0 51 -6 60 -16z m2085 -49 c10 -35 11 -48 1 -60 -9 -11 -8 -29 4 -83
9 -38 18 -76 21 -84 4 -9 -11 -37 -35 -67 -41 -52 -42 -52 -90 -48 -27 2 -55
8 -62 14 -7 5 -21 13 -31 16 -25 9 -49 71 -45 120 3 38 7 44 46 65 29 16 42
30 42 45 0 40 12 65 31 70 10 3 19 1 19 -3 0 -4 14 5 30 20 17 15 30 33 30 39
0 27 27 -4 39 -44z m-819 -34 c0 -5 3 -17 7 -27 4 -11 3 -15 -4 -11 -14 9 -24
47 -12 47 5 0 9 -4 9 -9z m1150 -15 c0 -2 -7 -7 -16 -10 -8 -3 -12 -2 -9 4 6
10 25 14 25 6z m-60 -31 c0 -2 -10 -9 -22 -15 -22 -11 -22 -10 -4 4 21 17 26
19 26 11z m-1190 -125 c17 -24 21 -39 16 -65 -6 -29 -11 -35 -33 -35 -40 0
-73 36 -73 80 0 44 5 50 41 50 19 0 34 -9 49 -30z m1431 -7 c5 -5 13 -24 19
-42 8 -28 5 -36 -22 -66 -51 -58 -128 -45 -149 26 -13 41 -12 42 20 71 30 27
39 30 78 25 25 -2 49 -9 54 -14z m-627 -199 c12 -4 16 -20 16 -53 0 -41 -3
-49 -25 -59 -50 -23 -65 -16 -65 28 0 30 7 47 25 65 27 28 27 28 49 19z m1106
-625 c0 -6 -4 -7 -10 -4 -5 3 -10 11 -10 16 0 6 5 7 10 4 6 -3 10 -11 10 -16z
m-3080 -393 c0 -3 -4 -8 -10 -11 -5 -3 -10 -1 -10 4 0 6 5 11 10 11 6 0 10 -2
10 -4z m-5219 -1316 c58 -162 148 -410 199 -550 50 -140 100 -277 110 -305 10
-27 76 -207 145 -400 70 -192 142 -392 161 -444 19 -52 34 -100 34 -108 0 -11
-27 -13 -142 -11 l-142 3 -83 235 c-45 129 -99 283 -120 343 l-37 107 -402 0
c-373 0 -402 -1 -409 -17 -4 -10 -53 -151 -110 -313 -57 -162 -109 -310 -115
-327 l-12 -33 -134 0 c-78 0 -134 4 -134 10 0 5 4 19 10 32 5 13 75 205 156
428 155 430 277 766 475 1313 l122 337 160 -2 160 -3 108 -295z m1696 280
c277 -66 452 -237 499 -485 36 -198 -16 -397 -140 -528 -65 -69 -103 -97 -194
-142 l-72 -35 40 -53 c54 -72 233 -339 316 -472 151 -246 224 -367 224 -376 0
-5 -67 -9 -155 -9 l-154 0 -42 73 c-164 285 -375 624 -466 750 l-35 47 -164 0
-164 0 -2 -432 -3 -433 -130 0 -130 0 -3 1058 -2 1057 347 0 c312 0 357 -2
430 -20z m1997 -13 c187 -58 346 -163 445 -293 71 -94 146 -249 178 -369 24
-92 26 -116 26 -295 0 -161 -4 -211 -21 -286 -50 -223 -137 -379 -297 -539
-116 -115 -172 -154 -302 -210 -182 -79 -318 -95 -785 -95 l-328 0 0 1061 0
1060 498 -3 497 -4 89 -27z m1824 -24 c11 -32 80 -222 152 -423 72 -201 140
-387 150 -415 10 -27 57 -156 103 -285 47 -129 142 -391 211 -581 69 -190 126
-349 126 -352 0 -4 -65 -7 -144 -7 l-144 0 -15 44 c-74 217 -221 632 -226 638
-5 5 -607 13 -762 9 -45 -1 -45 -1 -61 -48 -30 -90 -209 -598 -218 -620 -9
-22 -14 -23 -146 -23 -126 0 -136 1 -129 18 18 45 188 512 199 547 8 22 59
164 114 315 55 151 109 300 120 330 11 30 59 163 106 295 48 132 116 321 152
419 36 99 67 183 70 188 3 4 76 8 163 8 l158 0 21 -57z m2102 -58 l0 -115
-305 0 -305 0 0 -945 0 -945 -130 0 -130 0 0 945 0 945 -305 0 -305 0 0 115 0
115 740 0 740 0 0 -115z m-122 -2116 c3 -15 -88 -17 -990 -22 -546 -4 -2517
-10 -4380 -13 -3049 -6 -3388 -5 -3388 8 0 14 28 17 193 22 166 5 6871 23
8117 22 399 -1 445 -3 448 -17z m366 -673 c20 -24 36 -47 36 -51 0 -3 -8 -15
-18 -26 -14 -14 -30 -19 -66 -18 -26 1 -49 6 -53 11 -3 5 7 22 22 38 15 15 27
31 26 34 -4 24 1 56 8 56 5 0 25 -20 45 -44z m-9566 -1270 c5 -3 12 -19 15
-36 10 -48 -25 -104 -88 -140 -61 -35 -79 -36 -152 -13 -59 18 -63 30 -42 106
8 29 21 45 57 68 44 28 52 30 124 25 43 -2 81 -7 86 -10z m741 -150 c-10 -10
-133 -56 -137 -51 -5 4 74 43 113 55 19 7 33 4 24 -4z m135 -11 c3 -9 0 -15
-10 -15 -8 0 -17 -7 -20 -15 -4 -8 -12 -15 -20 -15 -8 0 -14 -6 -14 -12 0 -9
-4 -8 -10 2 -7 11 -4 17 13 22 20 5 20 6 2 7 -17 1 -16 4 10 21 36 24 41 24
49 5z m681 -389 c20 -14 20 -15 -4 -108 -13 -51 -28 -103 -32 -115 -12 -33
-119 -83 -119 -55 0 5 -6 16 -12 25 -17 22 -194 53 -213 37 -19 -16 -26 12
-16 65 5 25 10 47 12 49 16 14 74 36 121 46 32 6 64 17 70 24 32 30 60 41 114
44 40 2 65 -2 79 -12z m8460 -317 c21 -8 46 -32 73 -71 l40 -60 -39 -63 c-44
-69 -67 -81 -119 -58 -18 7 -52 13 -75 13 -41 0 -45 3 -70 46 -17 29 -25 54
-21 67 8 30 46 73 73 81 12 4 25 16 28 26 5 17 23 25 64 29 8 0 29 -4 46 -10z
m-9405 -109 c-8 -5 -19 -10 -25 -10 -5 0 -3 5 5 10 8 5 20 10 25 10 6 0 3 -5
-5 -10z m-80 -35 c-14 -8 -32 -14 -40 -14 -9 0 -4 6 10 14 14 8 32 14 40 14 9
0 4 -6 -10 -14z m898 -124 c36 -19 79 -72 93 -113 7 -21 16 -38 21 -38 4 0 8
-9 8 -19 0 -11 3 -27 6 -35 6 -15 8 -15 20 1 12 16 15 16 27 3 6 -8 29 -16 49
-17 33 -1 39 2 44 23 3 13 4 31 0 39 -3 8 -1 15 4 15 5 0 11 8 13 18 3 9 5
-15 6 -55 1 -66 -1 -73 -26 -93 -15 -11 -37 -36 -50 -55 -22 -33 -26 -34 -67
-29 -42 6 -44 5 -102 -53 -32 -32 -73 -74 -89 -94 -53 -60 -67 -67 -132 -57
-32 5 -87 12 -122 16 -41 4 -67 12 -71 22 -62 122 -68 143 -61 222 5 62 11 82
31 104 33 35 210 188 233 201 25 13 136 10 165 -6z m7670 -152 c-19 -12 -25
-11 -25 5 0 8 8 11 20 8 14 -4 16 -7 5 -13z m-7463 -19 c-3 -5 -10 -10 -16
-10 -5 0 -9 5 -9 10 0 6 7 10 16 10 8 0 12 -4 9 -10z m7051 -408 c20 -13 45
-72 39 -91 -11 -36 -38 -50 -81 -44 -35 4 -45 11 -63 43 l-21 38 26 31 c26 31
72 42 100 23z m1028 -7 c35 -15 37 -18 34 -58 -4 -56 -37 -76 -96 -59 -33 10
-41 17 -46 45 -6 28 -3 36 26 60 38 32 35 31 82 12z m-9474 -316 c-30 -11 -59
-18 -65 -16 -5 2 13 11 40 19 72 23 90 20 25 -3z m7735 -14 c14 -13 25 -30 25
-37 0 -7 20 -23 43 -34 40 -21 42 -24 45 -72 3 -49 2 -52 -36 -77 -34 -22 -47
-25 -108 -22 -52 3 -78 10 -106 28 -36 24 -36 25 -40 103 l-3 78 55 29 c68 35
94 36 125 4z m-7835 -41 c-5 -19 -11 -38 -14 -41 -8 -8 -8 41 0 61 12 30 22
16 14 -20z m237 -206 c-3 -8 -6 -5 -6 6 -1 11 2 17 5 13 3 -3 4 -12 1 -19z"/>
<path d="M1980 6396 c-5 -15 -15 -49 -22 -74 -6 -26 -71 -219 -145 -429 -73
-210 -133 -386 -133 -392 0 -8 97 -11 315 -11 234 0 315 3 315 12 0 6 -16 57
-36 112 -20 56 -51 144 -70 196 -18 52 -58 167 -89 255 -31 87 -68 200 -82
250 -30 105 -38 118 -53 81z"/>
<path d="M3460 6060 l0 -400 170 0 c256 0 370 30 461 121 145 145 137 443 -15
577 -92 80 -182 102 -433 102 l-183 0 0 -400z"/>
<path d="M5142 5633 l3 -828 245 1 c212 1 258 4 339 22 143 33 246 87 339 180
116 114 183 240 222 418 32 143 33 383 1 504 -72 280 -254 470 -494 515 -58
11 -154 15 -368 15 l-289 0 2 -827z"/>
<path d="M7578 6373 c-12 -48 -107 -330 -232 -687 -36 -104 -66 -191 -66 -193
0 -2 144 -3 321 -3 302 0 321 1 314 18 -32 83 -266 765 -285 830 -12 45 -27
82 -31 82 -5 0 -15 -21 -21 -47z"/>
<path d="M840 10630 c0 -5 5 -10 10 -10 6 0 10 5 10 10 0 6 -4 10 -10 10 -5 0
-10 -4 -10 -10z"/>
</g>
</svg>
