<?xml version="1.0" encoding="utf-8"?>
<!-- Generator: Adobe Illustrator 23.1.0, SVG Export Plug-In . SVG Version: 6.00 Build 0)  -->
<svg version="1.1" id="Capa_1" xmlns="http://www.w3.org/2000/svg" xmlns:xlink="http://www.w3.org/1999/xlink" x="0px" y="0px"
	 viewBox="0 0 2000 1878" style="enable-background:new 0 0 2000 1878;" xml:space="preserve">
<style type="text/css">
	.st0{fill:#0A1318;}
</style>
<path class="st0" d="M697.46,1436.9l1253.13,0.46c27.41-0.12,49.53-22.43,49.42-49.84c-0.12-27.41-22.43-49.53-49.84-49.42
	l-1240.58-0.51L380.81,136.49c-10.38-34.84-43.04-59.07-79.41-58.91l-250.98,0.5C23.01,78.19,0.88,100.5,1,127.91
	s22.43,49.53,49.84,49.42l238.44-0.44l328.77,1201.1C628.45,1412.83,661.1,1437.05,697.46,1436.9z"/>
<g>
	<g>
		<path class="st0" d="M1849.45,652.02c-77.45,0-145.83,0-217.82-0.01c-3,34.88-5.95,69.15-9.12,106.03
			c-79.29-9.43-28.78-70.69-49.21-105.27c-84.04,0-170.92-0.01-259.98-0.01c0,73.85,0,146.03-0.01,224.76
			c28.33,0,55.08,1.6,81.56-0.38c37.5-2.81,55.38,13.21,55.31,51.28c-44.1,0-88.17,0-135.74,0c0,82.48-0.01,165.33-0.01,251.82
			c86.23-17.64,130.44-84.01,175.17-150.79c25.57,49.45,25.57,49.45-24.8,125.4c23.97-9.54,42.2-16.79,64.57-25.69
			c6.02,13.53,12.27,27.57,18.42,41.39c-187.35,106.87-507.02,90.91-708.92-131.19c-207.59-228.35-216.84-571.61-23.94-800.45
			c201.16-238.64,540.21-293.66,796.86-128.65c269.95,173.56,339.8,498,238.78,737.28c-14.06-4.79-28.44-9.68-40.4-13.76
			C1823.23,773.35,1835.65,715.89,1849.45,652.02z M1259.15,652.54c-89.68,0-176.4-0.01-272.57-0.01
			c11.56,73.83,21.83,143.85,34.38,213.46c1.4,7.78,16,19.12,24.13,18.83c70.89-2.5,141.7-7.27,214.05-11.46
			C1259.15,799.4,1259.15,728.3,1259.15,652.54z M1258.85,376.95c-72.72-3.97-142.49-8.46-212.34-10.73
			c-8.49-0.28-23.73,10.19-25.09,17.64c-12.74,69.71-23.13,139.85-34.8,213.62c96.38,0,183.26,0.01,272.22,0.01
			C1258.84,523.85,1258.85,452.68,1258.85,376.95z M1584.85,598.34c-12.04-81.45-23.26-157.38-34.61-234.15
			c-85.57,4.63-161.45,8.73-236.33,12.78c0,76.16,0,148.19-0.01,221.36C1402.39,598.33,1488.03,598.34,1584.85,598.34z
			 M727.91,651.91c4.97,92.91,29.65,175.87,74.6,252.71c4.16,7.12,14.3,16.93,20.06,15.96c49.92-8.4,99.46-18.97,147.02-28.48
			c-11.07-81.63-21.68-159.92-32.56-240.18C869.23,651.92,801,651.91,727.91,651.91z M1843.54,597.77
			c-4.48-94.09-30.78-178.7-78.27-256.75c-3.41-5.61-15.61-9.76-22.75-8.6c-47.49,7.7-94.71,17.03-140.94,25.63
			c11.34,81.92,22.29,161.01,33.18,239.71C1704.09,597.76,1772.33,597.77,1843.54,597.77z M969.95,358.58
			c-46.71-8.98-93.88-18.63-141.34-26.56c-7.02-1.17-19.11,3.57-22.59,9.35c-47.11,78.11-73.34,162.61-77.81,255.95
			c72.64,0,141.74,0,209.13,0.01C948.38,516.55,959.02,438.65,969.95,358.58z M1259.31,73.69
			c-88.08,10.28-199.03,138.86-210.32,242.01c69.6,3.25,138.99,6.48,210.32,9.81C1259.3,237.68,1259.31,156.98,1259.31,73.69z
			 M1258.35,1183.01c0-90.09,0.01-171.61,0.01-258.52c-72.84,4.02-142.74,7.89-217.77,12.03
			C1088.54,1046,1135.88,1144.19,1258.35,1183.01z M1312.8,326.05c72.97-3.85,142.83-7.54,218.41-11.52
			c-47.7-110.55-96.16-207.66-218.4-246.95C1312.81,155.61,1312.81,236.3,1312.8,326.05z M1476.03,100.52
			c32.02,61.78,64.04,124.77,97.61,186.93c4.58,8.48,17.64,18.89,25.56,17.97c40.79-4.76,81.17-12.93,128.13-21.02
			C1656.12,194.16,1572.23,135.51,1476.03,100.52z M1095.81,100.62c-95.81,33.81-179.87,93.52-251.45,183.54
			c46.1,8.17,85.45,16.6,125.25,21.06c8.85,0.99,23.3-9.76,28.3-18.88C1031.92,224.32,1064.1,161.29,1095.81,100.62z M843.73,966.37
			c73.72,89.85,155.75,150.93,254.18,184.26c-37.91-67.99-76.07-136.44-115.96-207.98C941.02,949.67,896.27,957.35,843.73,966.37z"
			/>
	</g>
	<g>
		<path class="st0" d="M1429.33,736.45c163.47,62.39,318.15,121.43,480.51,183.39c-55.78,19.95-104.18,37.26-163.18,58.36
			c40.1,33.32,74.85,62.19,110.3,91.65c-34.52,34.68-59.79,60.06-92.98,93.4c-29.25-35.34-58.11-70.22-92.16-111.35
			c-21.48,60.1-38.62,108.06-58.95,164.96C1550.81,1054.44,1491.54,899.31,1429.33,736.45z"/>
	</g>
</g>
<g>
	<g>
		<path class="st0" d="M1160.59,1662.8c-0.01,90.81-57.61,164.42-148.42,164.41c-90.81-0.01-180.43-73.62-180.42-164.43
			c0.01-90.81,73.62-164.42,164.43-164.41C1086.99,1498.38,1160.6,1572,1160.59,1662.8z"/>
	</g>
	<g>
		<path class="st0" d="M1844.47,1662.8c-0.01,90.81-57.61,164.42-148.42,164.41s-180.43-73.62-180.42-164.43
			c0.01-90.81,73.62-164.42,164.43-164.41C1770.86,1498.38,1844.47,1572,1844.47,1662.8z"/>
	</g>
</g>
</svg>
