<?xml version="1.0" encoding="utf-8"?>
<!-- Generator: Adobe Illustrator 21.0.0, SVG Export Plug-In . SVG Version: 6.00 Build 0)  -->
<svg version="1.1" id="Layer_1" xmlns="http://www.w3.org/2000/svg" xmlns:xlink="http://www.w3.org/1999/xlink" x="0px" y="0px"
	 viewBox="0 0 1481.8 674.2" style="enable-background:new 0 0 1481.8 674.2;" xml:space="preserve">
<style type="text/css">
	.st0{fill:#FFFFFF;}
	.st1{fill:#4FA7CC;}
	.st2{fill:#FFCB04;}
</style>
<title>logo</title>
<g id="HATCH">
	<polygon class="st0" points="493.6,308.1 462.7,308.1 462.7,344.5 497.6,344.5 497.6,367.4 436.5,367.4 436.5,232.3 495.2,232.3 
		495.2,255.1 462.7,255.1 462.7,286.2 493.6,286.2 493.6,308.1 	"/>
</g>
<g id="HATCH-2">
	<path class="st0" d="M512.3,343.7c5.3,3.2,11.4,5,17.6,5.3c6.8,0,10.6-3,10.6-8.8c0-5-2.8-8.2-11.4-13.2c-16-9-19.8-19.2-19.8-28.3
		c0-17.6,12.6-30.9,32.3-30.9c6.9,0,13.6,1.5,19.8,4.4l-4.6,19.2c-4.1-2.5-8.8-3.9-13.6-4c-6.6,0-9.8,4-9.8,8.4s2.2,6.8,11.4,12.2
		c14.4,8.2,19.8,18.4,19.8,29.7c0,20-14.4,30.9-34.7,30.9c-8.2,0-17.8-2.2-22.5-5.6L512.3,343.7z"/>
</g>
<g id="HATCH-3">
	<path class="st0" d="M608.9,242.9v26.5h19.2V288h-19.2v44.7c0,11.4,4.8,14.2,10,14.2c2.3,0,4.6-0.2,6.8-0.6l0.2,20.5
		c-5.2,1.3-10.6,1.9-16,1.8c-7.6,0-14.2-1.8-18.8-6.2c-5.4-5.2-8.4-12.6-8.4-28.1V288H571v-18.6h11.6v-20.2L608.9,242.9z"/>
</g>
<g id="HATCH-4">
	<path class="st0" d="M684.3,367.4l-1.4-9.6c-5.9,7.6-13.4,11.2-22.1,11.2c-14.8,0-25.9-12.4-25.9-29.9c0-25.7,22.7-36.3,44.9-36.5
		v-2.2c0-7.6-4.6-13.2-13.8-13.2c-7.1-0.1-14,1.9-20,5.6l-4.8-17.6c5.4-3.2,16.8-7.4,30.5-7.4c29.9,0,34.7,20.9,34.7,40.7V345
		c-0.1,7.5,0.4,15,1.6,22.5L684.3,367.4z M680.7,319.7c-8.8,0.2-20.8,3-20.8,16.6c0,9.8,5.4,13.4,9.4,13.4c5.1-0.1,9.5-3.5,10.8-8.4
		c0.4-1.5,0.6-3.1,0.6-4.6L680.7,319.7z"/>
</g>
<g id="HATCH-5">
	<path class="st0" d="M725,298.8c0-10.8-0.6-20.3-0.8-29.5H747l1.2,11.4c5.4-7.4,13.6-13,23.9-13c11,0,18,5,21.5,13.2
		c2.8-3.9,6.2-7.2,10.2-9.8c4.3-2.3,9-3.4,13.8-3.4c17.4,0,25.3,13.8,25.3,37.5v62.1h-26.1v-57.7c0-11.2-1.2-20.3-9.2-20.3
		c-4.6,0-8,3.2-9.8,9c-0.5,2.2-0.8,4.5-0.8,6.8v62.2h-26.1v-61.5c0-7-0.8-16.4-9-16.4c-4,0-8,3-9.8,8.8c-0.7,2.4-1,4.9-1,7.4v61.7
		h-26V298.8z"/>
</g>
<g id="HATCH-6">
	<path class="st0" d="M861.1,300.4c0-11.8-0.4-21.9-0.8-31.1h22.8l1.4,11.2c4.4-8,11.8-12.8,20.8-12.8c21.7,0,30.5,23.3,30.5,50.5
		c0,34.9-15.4,50.7-31.8,50.7c-8,0-13.4-5-16.2-9.6c-0.4,0-0.4,46.5-0.4,46.5h-26.3V300.4z M887.3,331.5c0,3.4,0.4,6.4,1.4,8.4
		c2,6,5.4,7.6,8.4,7.6c9.2,0,12.4-13.6,12.4-29.1c0-18.6-4.4-28.7-12.2-28.7c-4,0-7.8,3.8-8.8,8.4c-0.9,2.2-1.3,4.6-1.2,7V331.5z"/>
</g>
<g id="HATCH-7">
	<path class="st0" d="M994.8,367.4l-1.4-9.6c-5.8,7.6-13.4,11.2-22,11.2c-14.8,0-25.9-12.4-25.9-29.9c0-25.7,22.7-36.3,44.9-36.5
		v-2.2c0-7.6-4.6-13.2-13.8-13.2c-7.1-0.1-14,1.9-20,5.6l-4.8-17.6c5.4-3.2,16.8-7.4,30.5-7.4c29.9,0,34.7,20.9,34.7,40.7V345
		c-0.1,7.5,0.4,15,1.6,22.5L994.8,367.4z M991.2,319.7c-8.8,0.2-20.8,3-20.8,16.6c0,9.8,5.4,13.4,9.4,13.4c5.1-0.1,9.5-3.5,10.8-8.4
		c0.4-1.5,0.6-3.1,0.6-4.6V319.7z"/>
</g>
<g id="HATCH-8">
	<path class="st0" d="M1035.5,298.8c0-10.8-0.6-20.3-0.8-29.5h22.8l1.2,11.4c5.4-7.4,13.6-13,23.9-13c11,0,18,5,21.4,13.2
		c2.8-3.9,6.2-7.2,10.2-9.8c4.3-2.3,9-3.4,13.8-3.4c17.4,0,25.3,13.8,25.3,37.5v62.1h-26.1v-57.7c0-11.2-1.2-20.3-9.2-20.3
		c-4.6,0-8,3.2-9.8,9c-0.5,2.2-0.8,4.5-0.8,6.8v62.2h-26.1v-61.5c0-7-0.8-16.4-9-16.4c-4,0-8,3-9.8,8.8c-0.7,2.4-1,4.9-1,7.4v61.7
		h-26.1L1035.5,298.8z"/>
</g>
<g id="HATCH-9">
	<path class="st0" d="M1243.3,318.1c0,40.9-22.7,50.9-37.5,50.9c-23.4,0-37.5-18.4-37.5-50.3c0-35.3,18.4-50.9,37.9-50.9
		C1229.3,267.8,1243.3,287.2,1243.3,318.1z M1194.4,318.1c0,16.8,2.6,30.9,12,30.9c8.4,0,10.6-16.4,10.6-30.9
		c0-13.4-2.2-30.5-11-30.5C1196.4,287.6,1194.4,304.7,1194.4,318.1z"/>
</g>
<g id="HATCH-10">
	<path class="st0" d="M1257.4,343.7c5.3,3.2,11.4,5,17.6,5.3c6.8,0,10.6-3,10.6-8.8c0-5-2.8-8.2-11.4-13.2
		c-16-9-19.8-19.2-19.8-28.3c0-17.6,12.6-30.9,32.3-30.9c6.9,0,13.6,1.5,19.8,4.4l-4.6,19.2c-4.1-2.5-8.8-3.9-13.6-4
		c-6.6,0-9.8,4-9.8,8.4s2.2,6.8,11.4,12.2c14.4,8.2,19.8,18.4,19.8,29.7c0,20-14.4,30.9-34.7,30.9c-8.2,0-17.8-2.2-22.4-5.6
		L1257.4,343.7z"/>
</g>
<g id="HATCH-11">
	<path class="st0" d="M478.2,407.7v39.5h28.7V475h-28.7v66.7c0,17.1,7.2,21.3,15,21.3c3.4,0,6.8-0.3,10.2-0.9l0.3,30.5
		c-5.4,1.5-13.5,2.7-23.9,2.7c-11.4,0-21.3-2.7-28.1-9.3c-8.1-7.8-12.6-18.8-12.6-41.9V475h-17.4v-27.8H439V417L478.2,407.7z"/>
</g>
<g id="HATCH-12">
	<path class="st0" d="M632.3,548.9c0,15.6,0.6,30.8,1.2,44.6h-33.8l-2.1-15.5H597c-7.6,11.2-20.3,17.9-33.8,18
		c-27.8,0-39.2-20.7-39.2-60.2v-88.7h39.5v84.4c0,19.2,3.6,31.4,14.7,31.4c6.6,0,10.8-5.1,12.6-9.9c1.5-3,2.4-7.5,2.4-12.6v-93.4
		h39.2L632.3,548.9z"/>
</g>
<g id="HATCH-13">
	<path class="st0" d="M659.2,558.2c5.7,3.6,16.5,7.8,26.3,7.8c10.2,0,15.9-4.5,15.9-13.2c0-7.5-4.2-12.3-17.1-19.8
		c-23.9-13.5-29.6-28.7-29.6-42.2c0-26.3,18.8-46.1,48.2-46.1c10.2,0,20.4,2.2,29.6,6.6l-6.9,28.7c-5.7-3.3-12.6-6-20.3-6
		c-9.9,0-14.7,6-14.7,12.6s3.3,10.2,17.1,18.3c21.5,12.3,29.6,27.5,29.6,44.3c0,29.9-21.5,46.1-51.8,46.1c-12.3,0-26.6-3.3-33.5-8.4
		L659.2,558.2z"/>
</g>
<g id="HATCH-14">
	<path class="st0" d="M844.2,408.3c0.3,12.6-8.7,21.3-20.7,21.3c-10.8,0-19.8-8.7-19.5-21.3c-0.3-13.2,9.3-21.3,20-21.3
		C835.5,387,844.2,395.1,844.2,408.3z M805,593.5V447.2h39.2v146.3H805z"/>
</g>
<g id="HATCH-15">
	<path class="st0" d="M978,386.4v163.7c0,14.1,0.6,29.9,1.2,43.4h-33.9l-2.1-16.5h-0.6c-5.4,10.2-17.1,18.8-30.5,18.8
		c-31.1,0-45.5-34.4-45.5-75.4c0-50.9,22.2-75.7,47-75.7c12.9,0,21,6.3,24.5,14.7h0.6v-73H978z M938.8,503.4c0-2.7,0-5.7-0.3-8.7
		c-1.5-9-6.3-17.1-14.1-17.1c-13.8,0-18.8,20-18.8,43.7c0,27.8,7.5,42.5,18.6,42.5c4.8,0,10.5-2.7,13.5-12.9c0.9-2.1,1.2-5.4,1.2-9
		L938.8,503.4z"/>
</g>
<g id="HATCH-16">
	<path class="st0" d="M1038.1,534.3c0.6,22.8,13.8,31.1,31.1,31.1c9.5-0.1,18.9-1.7,27.8-4.8l5.4,28.1c-10.2,3.9-25.4,6.6-40.4,6.6
		c-39.8,0-61.7-26.3-61.7-72.1c0-49.1,25.4-78.4,58.7-78.4c31.4,0,49.7,24.8,49.7,69.1c0,10.5-0.3,16.2-1.2,20.3H1038.1z
		 M1073.1,506.7c0-18.9-4.8-33.5-16.5-33.5c-12.9,0-18,18.9-18.3,33.5H1073.1z"/>
</g>
<g id="HATCH-17">
	<path class="st0" d="M1196.4,593.5l-2.1-14.4c-8.7,11.4-20,16.8-32.9,16.8c-22.2,0-38.6-18.6-38.6-44.6c0-38.3,33.8-54.2,67-54.5
		v-3.3c0-11.4-6.9-19.8-20.7-19.8c-10.6-0.2-21,2.8-29.9,8.4l-7.2-26.3c8.1-4.8,25.1-11.1,45.5-11.1c44.6,0,51.8,31.1,51.8,60.8V560
		c0,11.7,0.6,23.6,2.4,33.5H1196.4z M1191,522.3c-13.2,0.3-31.1,4.5-31.1,24.8c0,14.7,8.1,20,14.1,20c6.3,0,13.5-3.9,16.2-12.6
		c0.6-2.2,0.9-4.6,0.9-6.9L1191,522.3z"/>
</g>
<g id="HATCH-18">
	<path class="st0" d="M1256,558.2c5.7,3.6,16.5,7.8,26.3,7.8c10.2,0,15.9-4.5,15.9-13.2c0-7.5-4.2-12.3-17.1-19.8
		c-23.9-13.5-29.6-28.7-29.6-42.2c0-26.3,18.8-46.1,48.2-46.1c10.2,0,20.4,2.2,29.6,6.6l-6.9,28.7c-5.7-3.3-12.6-6-20.3-6
		c-9.9,0-14.7,6-14.7,12.6s3.3,10.2,17.1,18.3c21.6,12.3,29.6,27.5,29.6,44.3c0,29.9-21.6,46.1-51.8,46.1c-12.3,0-26.6-3.3-33.5-8.4
		L1256,558.2z"/>
</g>
<path class="st1" d="M592,114.3c0-8.8-0.4-18.4-0.7-26.5h20.5l1.3,12.8h0.5c4-9.4,11-14.2,17.5-14.2c1.7-0.1,3.4,0,5,0.4v23.4
	c-1.6-0.3-3.3-0.4-5-0.4c-5,0-11.7,3.4-14.4,12.6c-0.7,2.9-1,5.9-0.9,8.8V176H592V114.3z"/>
<path class="st1" d="M644.5,154.7c4.8,2.9,10.3,4.5,15.9,4.7c6.1,0,9.5-2.7,9.5-7.9c0-4.5-2.5-7.4-10.3-11.9
	c-14.4-8.1-17.8-17.3-17.8-25.4c0-15.9,11.3-27.8,29-27.8c6.2,0,12.3,1.4,17.8,4l-4.2,17.3c-3.7-2.3-7.9-3.5-12.3-3.6
	c-6,0-8.8,3.6-8.8,7.6s2,6.1,10.3,11c13,7.4,17.8,16.6,17.8,26.7c0,18-13,27.8-31.2,27.8c-7.4,0-16-2-20.2-5L644.5,154.7z"/>
<path class="st1" d="M781.2,114.3c0-9.7-0.5-18.2-0.7-26.5h20.4l1.1,10.1h0.4c4.7-7.3,12.8-11.6,21.5-11.5c16.8,0,23.4,13.3,23.4,33
	V176h-23.6v-55.2c0-7.6-1.8-14.6-8.7-14.6c-4,0-7.2,2.7-8.8,7.9c-0.9,2.6-1.3,5.4-1.3,8.1V176h-23.6V114.3z"/>
<path class="st1" d="M939.8,51.3h23.6V176h-23.6V51.3z"/>
<path class="st1" d="M1004,64.4c0.2,7.6-5.2,12.8-12.4,12.8c-6.5,0-11.9-5.2-11.7-12.8c-0.2-7.9,5.6-12.8,12.1-12.8
	C998.8,51.6,1004,56.5,1004,64.4z M980.4,176V87.8h23.6V176H980.4z"/>
<path class="st1" d="M1015.5,161.2l21.6-39.3c2.9-5,6.7-10.8,8.3-14.2v-0.5h-27.2V87.8h53v16l-21.1,37.8c-3.1,5.2-6.5,10.8-8.5,14.4
	v0.5h30.3V176h-56.4L1015.5,161.2z"/>
<path class="st1" d="M1160.3,161.7c0-9,6.7-15.7,13.9-15.7c7.6,0,13.7,5.9,13.7,15.7c0,9.6-5.6,15.7-13.9,15.7
	C1166.6,177.4,1160.3,171.3,1160.3,161.7z"/>
<path class="st1" d="M1250.8,174.5c-2.3,1.1-8.3,2.5-15,2.5c-22.3,0-36.9-15.5-36.9-44.3c0-27.2,16-46.1,40.4-46.1
	c4.4-0.1,8.9,0.7,13,2.3l-3.1,18.6c-2.8-1.1-5.8-1.6-8.8-1.6c-11.4,0-18,10.8-18,26.1c0,16,6.7,25.8,17.7,25.8
	c3,0.1,6.1-0.5,8.8-1.8L1250.8,174.5z"/>
<path class="st1" d="M1288.8,159c-6.4-2.4-8.3-13.8-8.3-27.3c0-11,1.5-24.6,8.3-27V86.4c-16.6,1.2-31.8,15.4-31.8,45.8
	c0,27.8,11.9,44.2,31.8,45.2V159z"/>
<path class="st1" d="M1292.8,86.4v18.1c6.4,2.2,8.1,16,8.1,27.1c0,12.1-1.7,25.8-8.1,27.6v18.2c13.3-0.9,31.8-10.7,31.8-45.8
	C1324.5,104.6,1312.5,87.3,1292.8,86.4z"/>
<path class="st1" d="M732.2,159c-6.4-2.4-8.3-13.8-8.3-27.3c0-11,1.5-24.6,8.3-27V86.4c-16.6,1.2-31.8,15.4-31.8,45.8
	c0,27.8,11.9,44.2,31.8,45.2V159z"/>
<path class="st1" d="M736.2,86.4v18.1c6.4,2.2,8.1,16,8.1,27.1c0,12.1-1.7,25.8-8.1,27.6v18.2c13.3-0.9,31.8-10.7,31.8-45.8
	C768,104.6,756,87.3,736.2,86.4z"/>
<path class="st1" d="M889.2,160.1c-3.5-0.3-7.9-3.6-7.9-12c0-6.9,3.5-10.6,7.9-12.7v-16.6c-16.2,2.9-30.2,12.7-30.2,31.8
	c0,15.7,9.9,26.8,23.2,26.8c2.4,0,4.7-0.3,7-1L889.2,160.1z"/>
<path class="st1" d="M923,155.8v-32.8c0-17.8-4.3-36.5-31.1-36.5c-12.2,0-22.5,3.8-27.3,6.7l4.3,15.8c5.4-3.4,11.6-5.1,18-5
	c8.3,0,12.4,5,12.4,11.9v2c-2,0-4.1,0.2-6.1,0.4V134c2.2-0.5,4.5-0.8,6.8-0.9v15.3c0,1.4-0.2,2.8-0.5,4.1c-0.9,3.2-3.2,5.7-6.3,6.9
	v15.4c3.4-1.8,6.3-4.4,8.5-7.5h0.4l1.3,8.6h21.2C923.4,169.3,922.9,162.6,923,155.8z"/>
<path class="st1" d="M1109.2,160.1c-3.5-0.3-7.9-3.6-7.9-12c0-6.9,3.5-10.6,7.9-12.7v-16.6c-16.2,2.9-30.2,12.7-30.2,31.8
	c0,15.7,9.9,26.8,23.2,26.8c2.4,0,4.7-0.3,7-1L1109.2,160.1z"/>
<path class="st1" d="M1143.1,155.8v-32.8c0-17.8-4.3-36.5-31.1-36.5c-12.2,0-22.5,3.8-27.3,6.7l4.3,15.8c5.4-3.4,11.6-5.1,18-5
	c8.3,0,12.4,5,12.4,11.9v2c-2,0-4.1,0.2-6.1,0.4V134c2.2-0.5,4.5-0.8,6.8-0.9v15.3c0,1.4-0.2,2.8-0.5,4.1c-0.9,3.2-3.2,5.7-6.3,6.9
	v15.4c3.4-1.8,6.3-4.4,8.5-7.5h0.4l1.3,8.6h21.2C1143.5,169.3,1143,162.6,1143.1,155.8z"/>
<path class="st1" d="M555.1,159c-10.5,0-18.4-5-18.7-18.7h9.9v-16.5h-9.7c0.2-8.3,2.9-18.9,9.7-20.1V86.6
	c-18.7,1.5-32.6,18.9-32.6,47.1c0,27.6,13.2,43.4,37.1,43.4c9,0,18.2-1.6,24.3-4l-3.2-16.9C566.4,158,560.8,159,555.1,159z"/>
<path class="st1" d="M550.2,86.5v17.6c5,2,7.2,9.9,7.2,19.7h-7.2v16.6h27.9c0.5-2.5,0.7-5.9,0.7-12.3
	C578.8,102,568.3,87.1,550.2,86.5z"/>
<path class="st1" d="M466.3,157.8c-2.1-0.7-4.1-2.5-5.5-6.5c-1-2.4-1.4-5-1.3-7.6v-23.6c-0.1-2.2,0.3-4.3,1.1-6.3
	c0.6-3.1,2.7-5.8,5.6-7.1v-18c-3.9,2.1-7,5.3-8.9,9.2H457l-1.3-10.1h-20.5c0.4,8.3,0.7,17.3,0.7,27.9v94.8h23.6v-41.8h0.4
	c1.6,2.6,3.8,4.8,6.4,6.4V157.8z"/>
<path class="st1" d="M475.8,86.4c-1.2,0-2.4,0.1-3.6,0.3v20.4c4.7,2.7,7.4,11.2,7.4,24.8c0,11.5-2,21.8-7.4,25.1v20.2
	c0.8,0.1,1.5,0.2,2.3,0.2c14.8,0,28.7-14.2,28.7-45.6C503.1,107.3,495.2,86.4,475.8,86.4z"/>
<path class="st2" d="M1458.9,304.5l-33.4-33.4l23.8-13.8c2.7-1.5,3.6-5,2.1-7.7c-0.6-1.1-1.6-1.9-2.8-2.4l-106.2-42.4
	c-2.9-1.1-6.1,0.3-7.3,3.1c-0.5,1.3-0.5,2.8,0,4.2l42.4,106.2c1.1,2.9,4.4,4.3,7.3,3.1c1.2-0.5,2.2-1.3,2.8-2.4l13.8-23.8l33.4,33.4
	c2.2,2.2,5.7,2.2,7.9,0c0,0,0,0,0,0l16.3-16.3C1461,310.2,1461,306.7,1458.9,304.5L1458.9,304.5z M1438.6,316.8l-34.6-34.6
	c-1.1-1.1-2.5-1.6-4-1.6c-0.2,0-0.5,0-0.7,0c-1.7,0.2-3.3,1.2-4.1,2.8l-11.6,20.1l-33.2-83.4l83.3,33.3l-20.1,11.6
	c-2.7,1.5-3.6,5-2.1,7.7c0.2,0.4,0.5,0.8,0.9,1.2l34.6,34.6L1438.6,316.8z"/>
<path class="st2" d="M1317.4,179.3c-2.2-2.2-5.7-2.2-7.9,0s-2.2,5.7,0,7.9l0,0l12.5,12.5c2.1,2.3,5.7,2.4,7.9,0.2s2.4-5.7,0.2-7.9
	c-0.1-0.1-0.2-0.2-0.2-0.2L1317.4,179.3z"/>
<path class="st2" d="M1321.6,218c0-3.1-2.5-5.6-5.6-5.6h-17.6c-3.1,0-5.6,2.5-5.6,5.6s2.5,5.6,5.6,5.6h17.6
	C1319.1,223.7,1321.6,221.1,1321.6,218z"/>
<path class="st2" d="M1319.3,235.4l-12.5,12.5c-2.3,2.1-2.4,5.7-0.2,7.9c2.1,2.3,5.7,2.4,7.9,0.2c0.1-0.1,0.2-0.2,0.2-0.2l12.5-12.5
	c2.1-2.3,2-5.8-0.2-7.9C1324.9,233.3,1321.5,233.3,1319.3,235.4z"/>
<path class="st2" d="M1348.2,191.4c3.1,0,5.6-2.5,5.6-5.6v-17.6c0-3.1-2.5-5.6-5.6-5.6c-3.1,0-5.6,2.5-5.6,5.6v17.6
	C1342.6,188.9,1345.1,191.4,1348.2,191.4L1348.2,191.4z"/>
<path class="st2" d="M1369.5,198.7c1.5,0,2.9-0.6,4-1.6l12.5-12.5c2.3-2.1,2.4-5.7,0.2-7.9c-2.1-2.3-5.7-2.4-7.9-0.2
	c-0.1,0.1-0.2,0.2-0.2,0.2l-12.5,12.5c-2.2,2.2-2.2,5.7,0,7.9C1366.6,198.2,1368.1,198.7,1369.5,198.7L1369.5,198.7z"/>
<path class="st0" d="M394.3,441.1c0-0.4,0-0.8,0.1-1.1l-0.8-12.6l-0.1-1.7c-0.2-0.4-0.4-0.8-0.4-1.3c0,0,0-0.7,0.1-1.2
	c-0.1-0.5-0.2-0.9-0.2-1.4c0-0.3,0-0.6,0.1-0.9l-0.1-1.1l-2.3,1.5l-1.6,1.4l6,29.9l-0.7-10.4C394.4,441.8,394.3,441.5,394.3,441.1z"
	/>
<path class="st0" d="M379.1,297.1l-1.8,0.2c-0.3,0.1-0.7,0.1-1,0.1l-3.7,0.5l-2.3,0.3l-2.4,0.3l5.3,42.9l2,11.3
	c0.4,0.3,0.8,0.7,1,1.2l8.9,4.6l5.1,1.8l-0.1-7.7l-1.1-13.3l-5.6-42.8l-3.2,0.4C379.7,297.1,379.4,297.1,379.1,297.1z"/>
<path class="st0" d="M158,42.5l-5.2-17.3l-2.1,1.1l-4.4,2.2l10,14.6C156.7,43,157.3,42.8,158,42.5z"/>
<polygon class="st0" points="119.3,184 119.3,184 96.9,195.7 89.8,199.8 72.9,209.5 68.8,219.2 85.5,210.3 92.6,206.5 115.3,195.3 
	122.1,192.1 151,178.5 155.5,166.6 127,180 120,183.7 120,183.7 "/>
<path class="st0" d="M116.4,49.5c0.6-0.2,1.2-0.3,1.8-0.3c0.5,0,1,0.2,1.4,0.4l13.5,9.2l4.7-2.5l-11.4-16.1L96,57l1.2,1.7
	L116.4,49.5z"/>
<path class="st0" d="M155.8,233.6l-12.5,5.4l-5.2,2.3l1.1,5.3l2.2-0.3c0.3,0,0.6,0,0.9,0l9.4-1.6c0.4-0.1,0.8-0.2,1.2-0.2
	c0.3-0.1,0.6-0.1,0.9-0.1c0.4-0.1,0.7-0.2,1.1-0.2c0.3-0.1,0.6-0.1,0.9-0.1c0.6-0.1,1.2-0.2,1.8-0.3c0.3-0.1,0.6-0.2,0.9-0.2
	c0,0,0.5-0.1,1-0.1c0,0,14.7-2.5,15.2-2.5l3.7-0.7l2-0.3l1.9-0.3l8.4-1.4l-3.9-18.1l-12.3,5.2L155.8,233.6z"/>
<path class="st0" d="M143.1,59.1l-2.6,3.8l-1.1,2.5c-0.3,0.6-0.7,1-1.3,1.3c-1,0.4-2.1,0.4-3-0.1l-3.6-2.6l-12.4-8.4L114.8,71
	c0,0,17.7,11.8,18.3,12.4c0.4,0.5,0.6,1.1,0.5,1.7l-0.5,7.6l0.3,2.6c0.1,0.8-0.2,1.5-0.7,2.1c-0.5,0.5-1.3,0.8-2.1,0.7l-16.6-1.6
	l3.5,19.4c0,0,17.9,1.5,18.6,1.6c0.5,0.2,0.9,0.5,1.6,1.6l4.1,10.8c0.5,1.3-0.1,2.7-1.3,3.2l-1,0.5l-12.1,7.9l10.9,18l12.9-8.6
	c1.1-0.7,2.5-0.5,3.3,0.4c0,0,6.7,7.4,7.1,8l0.6,1.3c0.3,0.6,0.4,1.4,0.1,2.1l-6.3,17l14.6,11l1.9-5l3.7-10.3c0.4-0.8,1.1-1.5,2-1.7
	c0.7-0.3,1.4-0.2,2.1,0.1c0,0,8.3,4.1,9,4.6c0.4,0.4,0.7,1,0.8,1.6l1,10.7l7.2-11.2c0-0.8,0.5-1.6,1.1-2c0,0,1.8-1.2,2.5-1.5
	l5.9-2.9c0.2-0.2,0.5-0.3,0.8-0.4l15.1-7.2c0.4-0.2,0.9-0.3,1.4-0.2l17.9,2.3c0.4,0,0.7,0.2,1,0.4l8.8,5.5c0,0,2.7-5.6,2.8-5.8
	c0,0-9.8-9.7-10.1-10.1l-3.6-3.3c-0.7-0.6-1-1.6-0.7-2.5l1.3-5.3l0.3-3.3c0.1-1.4,1.4-2.4,2.8-2.3c0.2,0,0.4,0.1,0.6,0.1
	c0,0,13.4,4.5,13.4,4l-0.1-15.5l-3.7-1.4l-11.2-3.9c-0.9-0.3-1.6-1.1-1.8-2l-2-10.2c-0.3-1.3,0.5-2.7,1.8-3.1l11.9-3.2l-4-10.5
	l-2.7-6.5l-12.1,3.1c-1,0.3-2.1-0.2-2.8-1.1c0,0-1.3-2-1.5-2.2l-4-6.3c-1.1-0.9-1.3-2.5-0.4-3.6c0,0,0-0.1,0.1-0.1
	c0.3-0.3,0.6-0.7,0.8-1.1l7.3-10.2l-0.7-1l-1.4-1.8L224,53l-7.7,10.3c-0.4,0.6-1.1,0.9-1.8,1c-0.7,0.1-1.4-0.1-1.9-0.6l-7.6-6.3
	l-1.2-0.9l1.8-19.4l-13.7-7.3l-1.4,15.6c-0.1,1.4-1.4,2.4-2.8,2.3c-0.1,0-0.2,0-0.3-0.1l-8.6-2c-0.9-0.2-1.6-0.9-1.9-1.8
	c0,0-3.3-11-3.4-11.5l-2.8-8.8l-13,0.3l5.7,19c0.3,0.9,0,1.9-0.6,2.5c-0.3,0.3-0.7,0.6-1.2,0.9c-4.4,1.8-6.9,2.5-8.5,0.9l-12.4-18
	l-10.1,8.1l12.8,18.2C144,56.6,144,57.7,143.1,59.1z"/>
<polygon class="st0" points="185.6,42.1 186.7,30 181.9,32.3 179.1,33.5 181.4,41.2 "/>
<path class="st0" d="M248.2,69.7l1.1,0.3c0.3,0.1,0.6,0.2,0.9,0.4l4.2,3.3l9.4-4.3l-7.1-11.3l-15.9,7.6c0.6,0.9,0.6,2.1,0,3
	l-3.3,4.7l9-3.6C247,69.6,247.6,69.5,248.2,69.7z"/>
<polygon class="st0" points="234.9,83.9 243.1,79.6 243.8,76.3 233,80.6 "/>
<path class="st0" d="M276.4,155.4c0,0-5.7,6-6.1,6.4l-1.7,1.2c0,0-7,4.4-7.1,4.9l6.7,4.4l17.1-7.6l-3.1-2.5L276.4,155.4z"/>
<path class="st0" d="M257.5,176l4.4,2.9c0.3,0.2,0.5,0.4,0.7,0.7l1.5,2.3l8.8,11.1l2.1-7l-3.7-5l-4.9-3.9l-7.2-4.7L257.5,176z"/>
<path class="st0" d="M211.4,176.9l-9.5,15.3l-2.5,20.6l5.2,23.6l12.1,20.5l15.7,13.5l17.4,5.2l14.6-3.6l3.6-3.4l-13.6,3.4
	c-0.4,0.1-0.9,0.1-1.4,0l-16.5-4.9c-0.3-0.1-0.7-0.3-0.9-0.5c0,0-14.6-12.7-15.1-13.3l-10.9-18.6c-0.1-0.2-0.2-0.5-0.3-0.7l-4.5-20
	c-0.4-0.5-0.5-1.1-0.4-1.8l2.3-19.6c0-0.4,0.2-0.7,0.4-1l8.7-14.1c0.2-0.4,0.6-0.8,1.1-1l12.2-5.9l-3.6-0.4L211.4,176.9z"/>
<path class="st0" d="M233.3,174.9l-1.8,0.2l-11.8,5.8l-8,13l-2.1,18.1c0.1,0.2,0.2,0.5,0.3,0.8l4.4,19.8l10.4,17.9l13.9,12l15.3,4.5
	l13-3.3l9.5-10.5l4.3-14.3c0,0-1.1-18.2-1.2-18.4l-0.3-2c0,0-7.3-18.3-7.4-18.5l-11.7-14.8l-13.5-8.7L233.3,174.9z"/>
<path class="st0" d="M277.9,181.3l8.4-8.9l0.5-2.9l-13.9,6.2c0,0,1.9,1.5,2.3,1.9L277.9,181.3z"/>
<path class="st0" d="M335.1,267.3l4.5-2.8l6.1-3.9L340,264c-0.4,0.3-0.9,0.4-1.5,0.4l-14-0.8c-0.4,0-0.7-0.2-1.1-0.4
	c0,0-13.6-8.4-14.3-9c0,0-12.4-15.6-12.8-16.3c0,0-7.1-18.9-7.2-19.7L288,199c0-0.3,0-0.6,0.1-0.9l4.8-15.7c0.1-0.4,0.4-0.8,0.7-1.1
	l10.1-9.9c0.4-0.4,0.9-0.6,1.4-0.7l-6.2,1l-10.1,10l-5,16.9l0.6,4.2l0.5,17.1l8.4,21l12.8,16.5l14.9,9.1L335.1,267.3z"/>
<path class="st0" d="M348.7,251.8c0,0,5.1-9.9,5.2-10.4l1.3-17l-3.8-16.6l-8.9-17.1l-5.3-5.1c-0.6-0.6-1.2-1.2-1.8-1.9l-1.6-1.7
	l-3.4-3.1l-12.7-4.9l-11.1,1.8l-9,8.8l-4.4,14.6l1.3,18.4l6.8,18.2l11.8,14.9l12.7,7.9l0.8,0.1l11.5,0.6l9.3-5.6L348.7,251.8z"/>
<polygon class="st0" points="341.8,157.5 340.6,160.4 338,164.6 339.4,166.7 341.6,165.4 347.6,161.8 "/>
<path class="st0" d="M268.9,72.4L265,78l-2,4.7c-0.6,1.3-2.1,1.9-3.4,1.3c-0.2-0.1-0.3-0.2-0.5-0.3l-6.7-5l-3.3-2.6l-1,4.2
	c0,0,11.8,9,12.4,9.5c0.4,0.5,0.5,1.1,0.5,1.7l-0.7,8.1l0.4,7.4l0.6,3.9c0.1,0.8-0.1,1.5-0.6,2.1c-0.5,0.6-1.2,0.9-2,0.8l-6.6-0.4
	h-3.2l1.5,6.4l11.3,0.4c0.4,0,0.9,0.2,1.3,0.3c0.5,0.3,0.9,0.8,1.1,1.4l3,8.4l2.3,5.5l2.8,4.4c0.6,1,0.5,2.3-0.9,3.8l-6.4,6.1
	c-0.2,0.4-0.4,0.7-0.7,1l3.9,5.8l6.5-6.9c0.6-0.6,1.5-0.9,2.4-0.8c0.7,0,1.5,0.3,1.9,0.9l7,8.2l5.8,4.7c0.6,0.5,0.9,1.2,0.9,2
	c0.1,0.3,0.2,0.7,0.1,1.1l-0.6,3.1l4.2-1.9l0.8-0.4c0.2-0.1,0.5-0.2,0.8-0.3l14.3-2.1c0.4-0.1,0.9,0,1.3,0.1l11.8,4.5l3.3-1.6
	c1.2-0.6,2.6-0.1,3.3,1l6,9.9l1.5,1.6l1.5-1.4l-7.8-12.7c-0.5-0.8-0.5-1.9,0-2.8l3.3-5.1l2.2-5.6c0.5-1.3,2-1.9,3.3-1.4
	c0.2,0.1,0.4,0.2,0.6,0.3l8.4,6.4l0.8-3.3l-11.3-9l0.1-1.3l0.4-7.1l-0.4-8.1c0-0.8,0.3-1.5,0.8-2c0.6-0.5,1.3-0.8,2.1-0.7l8,1.2
	l-0.9-5.1l-9-1.4c-0.5-0.1-0.9-0.3-1.3-0.6l-0.8-0.7c-0.4-0.3-0.6-0.7-0.8-1.2l-3.8-12l-2.7-6l-0.9-1.8l8.4-6.4l-3-5.3l-6.2,4.7
	c-1.1,0.8-2.6,0.6-3.5-0.4c0,0-0.7-0.9-0.8-0.8l-5.7-7.8l-5.5-5.4l-1-1l0.3-1.4l2.7-11.8l-3.5-2.7l-2.2,9.2
	c-0.2,0.8-0.7,1.4-1.5,1.8c-0.7,0.3-1.6,0.3-2.3-0.1l-6.6-3.6l-6.6-2.3h-1.5l-0.7-1.4c-0.3-0.3-0.5-0.7-0.5-1.1l-2.8-14.4l-2.9-0.3
	l2.7,13.3c0.3,1.4-0.6,2.7-2,3c-0.2,0-0.3,0.1-0.5,0.1c-3.9-0.1-7.8,0.9-11.1,2.9c-1.3,0.7-2.9,0.3-3.9-0.8c0,0-7.6-12.3-8-12.7
	l-2.1,1.6l8.5,13.6C270.1,69.9,270,71.2,268.9,72.4z"/>
<path class="st0" d="M283,59.3l-2.2-10.8l-4.4,1.8l-7.4,3.1l5.2,8.4C277,60.5,280,59.6,283,59.3z"/>
<polygon class="st0" points="306.9,65 308.1,60 301.9,62.5 302.9,62.8 "/>
<path class="st0" d="M167.8,397.3l9,1l6.8,1.4l15.2,4.1l8.9,3.6l5.4-0.7l11.8,0.3l0.8,0.1c0,0,2.9,0.6,3.5,0.7l13.1,5.8l15,9.5
	l12.6,6.7l5.6,1.8l7.2,1.6l16.1,2.3l6.2,0.3c1.1,0,2.1,0.1,3.1,0.1c2.9,0.1,5.8,0,8.7-0.4c0.1,0,0.2,0,1-0.2
	c0.3-0.1,0.6-0.1,0.9-0.2c0.3-0.1,0.7-0.3,1-0.4c0.1,0,0.1-0.1,0.3-0.8c0-0.3,0.1-0.6,0.2-0.9c0.1-0.3,0.7-3.3-10-17l-7.2-6.8
	l-9-6.7l-11-6.2l-11.8-5.1l-19.7-7l-16.6-5.2l-18.8-5.4l-19.6-4.9l-17.4-3.8l-14.4-2.4l-12.2-1c-30.3,0.7-40.1,5.4-42.9,9.3
	c-0.3,0.4-0.4,0.9-0.3,1.4c0.2,1.7,2.3,5.7,13.1,13.5l10,6.4l5.7,3l13.4,5.6C154.2,397.2,161.4,397,167.8,397.3z"/>
<path class="st0" d="M176.7,482.2c0.1,0.6,0.3,1.2,0.5,2.2c0.1,0.4,0.3,0.8,0.5,1.5c0.3,0.7,0.6,1.3,1,1.9c0.8-0.4,1.7-0.3,2.4,0.1
	l2.2,1.3c0,0,5.8,2.1,6,2.2c0,0,1.7,0.1,1.7,0.5l2.3,0.5l20.9,3.9l14,2.3l14.4,0.6l11-0.4l3.3-0.1c28.2-1.9,43.6-13.1,46.9-34.2
	c0.1-0.4,0.2-0.7,0.4-1l0.8-1.8c0.4-1.4,1.8-2.1,3.2-1.8s2.1,1.8,1.8,3.2c-0.1,0.4-0.3,0.8-0.5,1.2l0.7,2.4c0.1-0.3,0.2-0.6,0.3-0.9
	c0.1-0.5,0.2-0.9,0.3-1.4c0.1-0.8,0.1-1.5,0-2.3c0-0.5,0-0.9-0.1-1.4c-0.4-0.6-0.7-1.3-1-2c-0.1-0.4-0.2-0.8-0.1-1.1
	c-0.1-0.3-0.1-0.6-0.1-0.8c-0.3-0.5-0.4-1-0.3-1.5c-0.3-0.3-0.5-0.8-0.5-1.2c-0.4-0.5-0.5-1.2-0.5-1.8l-1.3-3.7
	c-0.4-0.4-0.7-0.9-0.9-1.5c-0.2-0.3-0.3-0.7-0.3-1c-0.2-0.4-0.3-0.7-0.4-1.1l-0.7-1.3c0,0-0.1-0.2-0.5-1c-0.3-0.2-0.6-0.4-0.8-0.7
	c-0.2-0.4-0.4-0.7-0.6-1.2l-4.6-0.2l-16.5-2.3l-7.6-1.7l-6.2-2l-13.2-6.9l-15-9.4l-2.2-1.1c0,0-9.7-4.2-9.7-4c0,0-0.4,7.7-0.6,8.3
	c0,0-3.3,10.4-3.6,11l-4.3,6.6l-5.2,5.5c-11.6,8.9-23.5,11.6-36,8.3c-0.1,0.8-0.3,1.5-0.4,2.2c-0.1,0.4-0.1,0.9-0.2,1.3
	c-0.2,1.6-0.4,3.1-0.6,4.5c-0.1,0.4-0.1,0.8-0.1,1.2c-0.1,1.1-0.2,2.2-0.3,3.2c0,0.4-0.1,0.8-0.1,1.1c-0.1,1.3-0.2,2.5-0.3,4.3
	c0,0.9-0.1,1.8-0.1,2.7c0,0.3,0,0.6,0,0.9c0,0.9,0,1.8,0.1,2.9s0.1,1.7,0.3,3.1C176.4,480.7,176.5,481.3,176.7,482.2z"/>
<path class="st0" d="M254.4,504l-9.6,0.4c0,0-1.3,16-1.3,16.5l5.2-3.3c0,0,6-0.1,5.6-0.8V504z"/>
<path class="st0" d="M177.4,447.1c11.9,3.7,22.7,1.6,33.3-6.5l4.6-4.9l3.8-5.9l3.1-9.7l0.4-6.9l-0.2-1.2l-9.2-0.2l-5.6,0.8
	c-0.5,0.1-0.9,0-1.3-0.2l-9.2-3.8l-14.7-4l-6.4-1.3l-8.6-0.9c-10.2-0.5-12.1,1.1-12.5,1.9c-2.8,10.2-1.7,19.6,3.3,27.9
	c0.8,1,1.6,2,2.4,3c0.2,0.3,0.5,0.5,0.7,0.8c0.5,0.6,1.1,1.3,1.6,1.8c0.3,0.3,0.6,0.6,0.9,0.9c0.5,0.5,1,1,1.4,1.5
	c0.3,0.3,0.6,0.5,0.9,0.8c0.5,0.4,0.9,0.8,1.4,1.2s0.6,0.5,1,0.7s0.9,0.7,1.3,1s0.7,0.4,1,0.6s0.9,0.5,1.3,0.8s0.7,0.3,1,0.5
	s0.8,0.4,1.3,0.6s0.7,0.2,1,0.3s0.8,0.3,1.3,0.4L177.4,447.1z"/>
<path class="st0" d="M227.6,503.7l-14.3-2.3l-22.7-4.3l-1.1,14.9l-1.5,11.2l-3.6,18.4l-0.5,5c0,0,7.8,0.5,7.8,0.5l44.7,3.1l3,0.3
	l0.3-9.7l-0.3-0.8c-0.1-0.3-0.2-0.6-0.2-0.9l-0.5-13.7l-0.2-5.2l1.3-15.9L227.6,503.7z"/>
<path class="st0" d="M183.2,558.1l-2,7.6l-1.3,13.7c0.1,0.3,0.1,0.6,0.1,0.9c0.3,0.3,0.4,0.7,0.4,1.1l0.4,6.6
	c0.7,0.2,1.3,0.8,1.6,1.5l3-3.8c0.1-0.1,0.2-0.2,0.8-0.8l10.7-10c0.3-0.3,0.7-0.5,1.2-0.6l16.3-3.8c0.4-0.1,0.8-0.1,1.2,0l15.4,3.8
	c0.4,0.1,0.8,0.3,1.1,0.6c3.2,2.9,6.3,6.1,9.1,9.4l-1.2-14.1c0,0-3.4-13.3-3.5-13.6c-0.4-0.5-0.9-1-1.4-1.4l-47.6-3.3l-1.3,1.5
	l-0.9,1.1c0,0.6-0.1,1.3-0.6,1.8l-0.8,1C183.8,557.7,183.5,557.9,183.2,558.1z"/>
<path class="st0" d="M240.9,614c0,0-2.9,2.7-3.1,2.9c-0.3,0.4-0.7,0.7-1.1,0.8l-6.5,2.6c-0.4,0.3-0.9,0.4-1.4,0.4h-1.1
	c-0.3,0.1-0.6,0.2-0.9,0.2h-1.3c-0.3,0.1-0.6,0.1-0.9,0.2h-1c-0.3,0.1-0.7,0.2-1,0.2h-1.2c-0.3,0.1-0.5,0.1-0.8,0.1h-1.3
	c-0.3,0.1-0.7,0.2-1,0.2h-1.2c-0.3,0.1-0.6,0.1-0.8,0.1h-2.9c-0.3,0-0.6-0.1-1.4-0.1h-1.3c-0.4,0-0.8-0.1-1.8-0.2h-1.3
	c-0.4,0-0.7-0.1-1.6-0.1h-1.3c-0.5,0-1.1-0.1-1.6-0.2h-1.7c-1.4,0-2.6-1.2-2.6-2.6c0,0,0,0,0-0.1c-0.6,0.8-1.6,1.2-3.3,0.8
	c-0.3-0.1-0.7-0.2-0.9-0.4l-1.4-0.5c-0.5-0.1-1.1-0.3-1.5-0.7l-1.3-1.2c-0.4-0.4-0.8-0.8-1.3-1.2c-0.3-0.2-0.6-0.5-0.8-0.8
	c-0.8-0.4-1.4-1.3-1.4-2.3c0-0.4,0.1-0.9,0.3-1.3c-0.8-0.5-1.2-1.5-1.1-2.5c0.2-1.4,1.4-2.4,2.8-2.2c0,0,0,0,0.1,0l5.4,0.7h23.9
	l16-0.5l4.8-0.8c1.4-0.2,2.7,0.7,2.9,2.1c0.1,0.7-0.1,1.4-0.6,2c0.3,0.3,0.5,0.6,0.7,1l-0.2-16.3c-0.8-0.3-1.4-1-1.6-1.8
	c-0.3-1.5-2.2-5.1-11.1-13.4l-14.2-3.5l-15.1,3.5c0,0-10.2,9.5-10.5,9.9l-3,3.8c-0.9,1.1-2.6,1.3-3.7,0.3c0,0-0.1-0.1-0.1-0.1
	c-0.1,0.3-0.2,0.6-0.3,0.8c0.4,0.5,0.5,1,0.5,1.6v2c-0.1,0.9-0.5,1.8-1.1,2.4l2.1,17l2.1,9l4.7,7.8l2,0.6l4.8,1.6l17.3,3.2h1
	l15.8-3.3l7.2-2.9l3.8-7.6l-0.2-12.8C241.8,613.2,241.5,613.7,240.9,614z"/>
<path class="st0" d="M218.3,612h-18.6c0.1,1.2-0.5,2.3-1.5,2.8c0.7,0.5,1,1.3,1,2.1c0.5-0.6,1.2-1,2-1h1.6c0.5,0,1.1,0.1,1.6,0.2
	h1.3c0.4,0,0.7,0.1,1.6,0.1h1.3c0.4,0,0.8,0.1,1.8,0.2h1.3c0.3,0,0.6,0.1,1.4,0.1h3.1c0.3-0.1,0.6-0.1,0.8-0.1h1.1
	c0.3-0.1,0.7-0.2,1-0.2h1.2c0.3-0.1,0.5-0.1,0.8-0.1h1.1c0.3-0.1,0.7-0.2,1-0.2h1.1c0.3-0.1,0.6-0.1,0.9-0.2h1.2
	c0.5-0.2,1-0.2,1.5-0.2c0,0,6.1-2.4,6.3-2.6c-0.2-0.5-0.4-1-0.3-1.5L218.3,612z"/>
<path class="st0" d="M215.9,644.4H214l-18-3.4l-6.7-1.9c-0.3,0-0.5-0.1-0.7-0.2c-0.5-0.3-1-0.6-1.4-0.9c-0.3-0.3-0.5-0.5-0.8-0.8
	l-5.2-8.8c-0.1-0.2-0.2-0.5-0.3-0.8l-2.2-9.7c0,0-2.1-16.8-2.5-17.5l1.3,17.1L179,632l9.5,13.6l26.6,4.3l23-5l2.8-7.3l-8.2,3.3
	C232.8,641,216.4,644.3,215.9,644.4z"/>
<path class="st0" d="M330.6,579.4l-4.8,2.6c-0.4,0.2-0.8,0.3-1.2,0.3c-0.5,0.1-1,0.2-1.5,0.1c-0.3,0.1-0.7,0.2-1,0.2h-0.8
	c-0.5,0.1-0.9,0.2-1.4,0.2c-0.3,0.1-0.7,0.2-1,0.2c-0.5,0-0.9,0-1.4,0.1h-0.9c-0.3,0.1-0.7,0.2-1,0.2h-0.8c-0.5,0.1-1,0.2-1.5,0.2
	c-0.6-0.2-1.2-0.2-1.8,0h-2.1c-0.4,0-0.9-0.1-1.3-0.2H306c-0.5,0-1-0.1-1.5-0.2h-2c-0.3,0-0.6-0.1-0.8,0.3c0.6,1.3,0.1,2.8-1.1,3.4
	c-1.3,0.6-2.8,0.1-3.8-1.8c-0.4-0.9-0.3-2,0.3-2.8c0,0-5.3-1.9-6-2.3l-4.4-3.4c-0.8-0.7-1.3-1.7-1.4-2.8c-1.4-0.2-2.4-1.5-2.2-2.9
	c0.2-1.4,1.5-2.4,2.9-2.2l4.6,0.7l20.7-0.2l13.5-0.5l3.4-0.7l-2.5-4.5c-0.5-0.6-0.6-1.5-0.4-2.2l0.4-1.5l0.8-4.2l-1.4-7.8l-6.4-9.4
	l-12.1-3.2l-12.3,3.7l-10.9,12c-0.9,1.1-2.5,1.2-3.6,0.3c-1.1-0.9-1.2-2.5-0.3-3.6c0,0,0.1-0.1,0.1-0.1l11.4-12.5
	c0.3-0.3,0.7-0.6,1.1-0.7l13.6-4.1c0.5-0.1,0.9-0.1,1.4,0l12,3.2l-5.2-10.6l-6-6.7l-1.6-1.5l-16.5-1.3l-16.7,1.8l-4.5,1.1l-1.5,1.5
	c-0.4,0.3-0.8,0.6-1.3,0.7c-3.5,0.9-4.3,1.5-4.3,1.6c-0.5,1-1.6,1.4-2.7,1.1l-2,1.6l-6.6,0.1l-6.5,4.1l0.4,11.8l0.3,0.8
	c0.1,0.3,0.2,0.7,0.2,1l2,7.4c0,0.2,0.1,0.3,0.2,1c0.3,1.4-0.5,2.8-2.5,3.2v1.5c0,0.7-0.3,1.4-0.9,1.8c-0.6,0.5-1.3,0.7-2,0.8l1,3.6
	l1.8,1.9l23.4,33.7l17.4,13.5l25.5,3.6l1.5-0.3l15.9-4.6c0-0.2-0.1-0.5-0.2-1.1c0-0.3-0.1-0.5-0.3-1.3c-0.1-0.4-0.2-0.8-0.5-1.8
	l-13.3,3.4c-0.4,0.1-0.7,0.1-1.1,0l-16.5-3.2c-0.5,0-1.1-0.2-1.5-0.5l-6.6-1c-0.7-0.1-1.4-0.5-1.8-1.2c0,0-1.8-2.8-1.9-3
	c-0.2-0.3-0.4-0.6-0.5-1c-0.3-0.3-0.6-0.6-0.8-1c0,0-1.7-2.3-2.1-2.8c-0.4-0.1-0.7-0.3-1-0.6c0,0-9.7-9.4-10-9.8c0,0-3-3-3.3-3.2
	l-4.5-4.5c-1.2-0.3-2-1.3-2-2.5c0-1.4,1.1-2.6,3.1-2.6c0.7,0,1.3,0.3,1.8,0.8c0,0,5.3,5.3,5.5,5.5l0.8,0.8c-0.1-1.4,0.9-2.6,2.3-2.8
	c1-0.1,2,0.4,2.5,1.3c0.2,0.3,0.5,0.6,0.6,1c0.6,1.3,0.1,2.9-1.2,3.5c-0.3,0.1-0.6,0.2-0.9,0.2l6.6,6.4c0.9-0.1,1.8,0.4,2.3,1.1
	c0,0,1,1.4,1.1,1.7c0.1,0.1,0.2,0.3,0.6,0.8l1.7,2.3c0.3,0.3,0.6,0.7,0.7,1.1c0,0.1,0.1,0.2,0.6,0.8l1.2,1.4l7.3,2.1
	c0.3,0.1,0.6,0.2,0.9,0.4l15.2,3l14.7-3.7l3.6-2.4l0.8-2.3l0.6-5l-1.2-9.2C331.3,578.9,331,579.2,330.6,579.4z"/>
<path class="st0" d="M311.4,574.3l-13.5,0.1c0.1,0.9-0.3,1.8-1,2.3l3.4,1.2h0.9c0.3,0,0.6,0.1,1.5,0.1h2c0.5,0,1,0.1,1.5,0.2h2.1
	c0.4,0,0.9,0.1,1.3,0.2h2.1c0.6,0.2,1.2,0.2,1.8,0h0.8c0.4-0.1,0.9-0.2,1.4-0.2c0.3-0.1,0.7-0.2,1-0.2h1c0.4-0.1,0.8-0.1,1.1-0.1
	c0.3-0.1,0.7-0.2,1-0.2h0.8c0.5-0.1,1-0.2,1.5-0.2c0.3-0.1,0.7-0.2,1-0.2h0.7l3.4-1.8c-0.5-0.5-0.8-1.2-0.8-1.9l-0.9,0.2
	L311.4,574.3z"/>
<path class="st0" d="M306.9,473.7c-6.1,17.7-21.9,27.7-47.3,30v6c4.1-2.3,11.3-4.9,24.2-7.6c14.9-1.7,25-1.5,31,0.7l-0.1-1.4l-1.6-8
	L306.9,473.7z"/>
<path class="st0" d="M336.2,368.7l0.7-0.8c0,0,0.3-0.4,0.6-0.9l1.2-1.6l1-1.1l-15.4-4.9c-12.5-3.6-25.8-4.3-38.6-2l-3.1,0.5l0.1-3.1
	c0-2-0.4-3.9-1.2-5.7l-0.8-0.6c-0.3,0.1-0.6,0.1-0.8,0.1c-0.4,0.1-0.8,0.2-1.1,0.3c0,0-1.8,0.4-2.3,0.6l-5.2,1.6
	c-0.5,0.3-1,0.5-1.5,0.5c-0.3,0.2-0.6,0.3-0.9,0.4l-1.9,0.4c-0.2,0.1-0.5,0.2-0.8,0.3l-1.8,0.3c-0.3,0.2-0.6,0.3-1,0.3l-1.7,0.2
	c-0.2,0.1-0.5,0.2-0.7,0.2c0,0-1.5,0.2-1.9,0.2c-0.3,0.1-0.7,0.2-1,0.3l-9,1.1c0,0-1,0.6-1.6,0.8l-2.9,0.8c-0.4,0.1-0.8,0.1-1.2,0
	l-5.9-1.1l-11.9-0.2c0,0-0.7-0.1-1.1-0.1c0,0-14.8-1.5-15.1-1.5l-11.2-0.5l-3.1,0.3c-0.3,0.1-0.6,0.2-0.9,0.2
	c-0.4,0-0.8,0.2-1.1,0.5c-0.1,0.4-0.1,0.8,0.2,1.2l23.4,5.6l30.7,8.9l28.6,10l12,5.3l5.3,3.1h2.5l15.4,0.5l13.3,1.8l6,2.2l0.1-9.2
	c0-0.3,0.1-0.5,0.2-0.7l0.3-1.5c0.1-0.5,0.1-1,0.1-1.4c0-0.5,0.2-1.1,0.5-1.5c0-0.4,0.1-0.8,0.2-1.1c0.2-0.6,0.4-1.2,0.8-1.7
	l0.3-0.8c0-0.3,0.2-0.7,0.3-0.9c0.2-0.3,0.3-0.5,0.4-0.8c0-0.1,0.2-0.6,0.3-0.7c0.3-0.6,0.6-1.2,1.1-1.8c0.1-0.4,0.4-0.9,0.6-1.2
	C335.7,369.5,335.9,369,336.2,368.7z"/>
<path class="st0" d="M403.2,388.5c0-0.3,0.1-0.6,0.2-0.9c0-0.3,0-0.6,0-0.8s-0.1-0.8-0.1-1.2c-0.1-0.8-0.3-1.7-0.5-2.5
	c-0.1-0.4-0.1-0.7-0.2-1c-0.3-1.3-0.8-2.5-1.3-3.8c-0.5-1.1-1-2.2-1.5-3.2c-0.2-0.4-0.4-0.7-0.6-1.1c-0.5-0.8-1-1.6-1.5-2.4
	c-0.3-0.4-0.6-0.8-0.8-1.2c-0.6-0.8-1.2-1.6-1.9-2.4c-0.3-0.4-0.6-0.7-0.9-1c-0.4-0.4-0.8-0.8-1.3-1.2l-1.8,0.2
	c-0.4,0-0.8,0-1.2-0.1l-6.9-2.5l-10.1-5.3c-0.5-0.3-1-0.7-1.2-1.3c-0.3-0.2-0.6-0.4-0.9-0.7h-0.9c-0.6,0-1.2,0-1.8,0
	s-1.1,0.1-1.6,0.1c-0.7,0.1-1.4,0.1-2.1,0.2c-0.4,0.1-0.9,0.1-1.3,0.2c-0.7,0.1-1.4,0.2-2.1,0.4c-0.4,0.1-0.8,0.2-1.2,0.4
	c-0.7,0.2-1.4,0.4-2,0.6c-0.4,0.1-0.9,0.3-1.3,0.5c-0.6,0.2-1.2,0.5-1.8,0.7s-1,0.5-1.5,0.8s-1,0.5-1.5,0.8
	c-0.6,0.4-1.3,0.8-1.9,1.3c-0.3,0.2-0.6,0.4-0.9,0.6c-0.9,0.7-1.8,1.5-2.7,2.3c-0.2,0.3-0.4,0.6-0.6,0.9c0,0-4.4,5.2-4.7,5.7
	c0,0-0.9,1.4-1.1,1.8c0,0-0.3,0.5-0.6,1c-0.2,0.4-0.4,0.7-0.6,1.1c-0.1,0.4-0.2,0.7-0.5,1c0,0-0.5,1.2-0.5,1.4
	c-0.1,0.3-0.2,0.6-0.3,0.9c-0.1,0.3-0.2,0.6-0.4,0.9c-0.1,0.4-0.2,0.8-0.4,1.2c0,0-0.5,2.9-0.5,3.4c0,0.5-0.1,1.1-0.3,1.6v8.2l1,4
	c3.5,11,9.2,18.1,17.5,21.8c11.8,3.8,21.2,4.3,28.2,1.4c0.5-0.3,1-0.5,1.5-0.8c0.4-0.2,0.8-0.4,1.2-0.7l2.7-2.4c0,0,5.9-3.9,6.3-4.4
	c0.9-1.1,1.7-2.3,2.5-3.4c0.3-0.4,0.5-0.8,0.8-1.2c0.7-1,1.3-2,1.8-3c0.2-0.3,0.4-0.7,0.5-1c0.7-1.3,1.2-2.6,1.8-3.9
	c0.1-0.3,0.2-0.5,0.3-0.8c0.4-1.1,0.7-2.1,1-3.1c0.1-0.3,0.1-0.5,0.2-0.8c0-0.3,0-0.7,0.1-1c-0.2-0.7-0.1-1.4,0.1-2.1
	c0.1-0.3,0.2-0.7,0.4-1c0-0.3,0.1-0.6,0.1-1.3C403.3,389.5,403.2,389,403.2,388.5z"/>
<polygon class="st0" points="53.3,105.4 75.3,91.4 82.3,87.4 82.9,86.7 109.7,70.5 113.5,56.6 86.9,69.4 80.4,73.6 80.4,73.6 
	79.6,74.1 79.6,74.1 79.6,74.1 68.2,81.6 58.5,88.3 51.2,94.7 33.9,110.4 30.5,121.2 46.6,110 "/>
<path class="st0" d="M264,334.8l4.8-2.7c0.4-0.4,0.9-0.7,1.4-0.8l0.9-0.3l0.9-0.2l11.8-7.3c0.4-0.4,0.8-0.7,1.3-0.9
	c0.3-0.2,0.6-0.5,0.9-0.7c0,0,3.5-2.4,3.9-2.8c6.8-5,11.3-9.6,13.6-14.1c0,0,1.7-2.7,1.9-3.1l1-1.8c0.5-0.8,1.3-1.2,2.1-1.3l1.9-5.4
	l0.6-8.2l-1.2-7.6c0,0-2.1-5.1-2.7-5.3l-3.3-2.1c-0.7-0.2-1.2-0.6-1.7-1.1l-3.2-3.7c0,0-2.3-1.7-2.7-2.1l-5-6.1c0,0-5.7-5.6-6-6
	l-0.9-1.3l-3,10.7c0,0-1.1,2.6-1.6,3.3l-9.3,10l-3.1,2.7c-0.2,0.2-0.5,0.4-0.9,0.5l-7.5,2.8l-17.1,4.2c-0.4,0.1-0.9,0.1-1.4,0
	l-18.1-5.4c-0.3-0.1-0.6-0.3-0.9-0.5l-12.7-10.7c-3.6-2.9-5.1-4.4-5.5-5.7l-10.8-18.4c0,0-9.6,1.6-9.9,1.7l-1.9,0.3l-1.8,0.3
	c0,0-0.6,0.1-1.1,0.2c0,0-1.4,0.3-1.9,0.4l-17.5,3.1c1.2,0.7,1.7,2.2,1,3.5c-0.6,1.2-2.1,1.7-3.3,1.1l-2.9-1.3
	c-0.3-0.1-0.5-0.3-0.8-0.6c-0.7,0.3-1.3,0.5-2,0.6l-8.1,0.8l-1.8,0.1l-1.2,0.7l-1.8,1.5l-5.3,4.8c-0.4,3.1-0.4,6.3,0,9.4
	c0.6,4.5,4,16.2,8.8,18.8c1.7,0.9,4.4,0.7,7.3,0h0.3l0.7-0.3c3.4-1,6.7-2.3,9.9-3.9c0.4-0.1,0.8-0.4,1.1-0.8l3.8-5.3
	c0.8-1.1,2.4-1.4,3.6-0.6c1.1,0.8,1.4,2.4,0.6,3.6l0,0l-3.8,5.3c-0.5,0.6-1.2,1-2,1.1c-0.3,0.7-0.8,1.2-1.5,1.5l-11.2,4.4
	c-0.4,0.2-0.8,0.2-1.2,0.2l-1.1-0.1c0,0.9,0.1,1.8,0.1,2.7c0.1,1.2,0.2,2.3,0.3,3.4c0.2,1.3,0.4,2.6,0.6,3.8c0.2,1,0.4,2.1,0.6,3.1
	c0.3,1.2,0.7,2.3,1.1,3.5c0.3,0.9,0.6,1.9,1,2.7c0.4,1.1,1,2.1,1.5,3.1c0.4,0.8,0.8,1.6,1.3,2.4c0.6,1,1.3,1.9,2,2.8
	c0.5,0.7,1,1.4,1.5,2c0.8,0.9,1.7,1.7,2.6,2.5c0.6,0.5,1.1,1.1,1.7,1.6c1.1,0.8,2.2,1.6,3.4,2.3c0.6,0.4,1.1,0.8,1.7,1.1
	c1.9,1,3.9,2,5.9,2.7l3.3,1.2l3.1,1c0.4,0.1,0.7,0.3,1,0.5l3.6,1.4l9.4,2.3c0,0,9.3,1.3,9.6,1.3h0.8c0.5,0,0.9,0.1,1.3,0.3
	c0,0,1.3,0.2,1.4,0.2h0.8c0.3,0,0.6,0.1,0.9,0.2l6.9,0.3c0,0,3.3,0.2,3.9,0.3c0,0,2.7,0.7,2.8,0.7l1.7,0.2l0.4,1.8l0.5,2.1l0.6,0.9
	c0.2,0.3,0.4,0.7,0.4,1.1l0.3,1.7l1.2,0.1l11.2,0.2l5.7,1l2-0.6l1.2-0.7c0.3-0.2,0.6-0.3,1-0.3l8.6-1c0,0,0.7-2.7,0.8-2.9l0.6-1.7
	l0.2-1.6c0-0.1,0-0.1,0.1-0.9c0.1-0.4,0.3-0.8,0.7-1.1l1.2-1.1l2.5-2.5C262.4,336.4,263,335.3,264,334.8z"/>
<path class="st0" d="M109.9,91.4c0.4-0.2,0.9-0.2,1.3-0.2l4.3,0.3l10.8-6.5l-14.5-9.7L83.1,92.6l0,0l-0.7,0.4l0,0l-4.8,3l-24.1,15.4
	l-4.6,3.2l-18.3,12.8l7.8,4.7c0,0,7.9-6.9,8.5-7.3l9.3-6l4.8-3.1c0,0,14.4-8.9,15-9.2l10.6-4.8h-0.1l5.6-2.5L109.9,91.4z"/>
<path class="st0" d="M370.9,285.8l4.1,0.4c0,0-1.3-10.2,5.8-23c3.9-7-6.1-13-3.6-23.9c0,0-3.8,8.6-6.3,10.2s-8.9,9.7-4.2,20.5
	S370.9,285.8,370.9,285.8z"/>
<path class="st0" d="M62.9,160h-0.8l10.1-4.5l21.4-12.3l7.8-4.5l26.2-16.8l-11.5-1l-26.3,16.9l-7.2,4.6l-20,11.8l-9.1,5.3l-15.5,8
	h0.7l7.9,0.3L62.9,160z"/>
<path class="st0" d="M55,152.7l24.2-14.3l4.7-2.9l28.8-18.5l-3.6-19.6l-16.2,7.2l-13.4,6.1l-4.7,2.6l-24.1,15.2l-4.5,3.6l-5.9,5.2
	l-12.8,11.2l2.9,17.2l19.9-10.2L55,152.7z"/>
<path class="st0" d="M102,183.2l4.4-2.6l27.7-18.4L123,143.8l-30.7,13.7l-4.5,2.4l-22.4,12.4c-0.3,0.2-0.5,0.3-0.8,0.4
	c-0.3,0.2-0.6,0.4-0.9,0.6c-0.2,0.1-0.5,0.2-0.8,0.3c0,0,0,0.1,0,0.1l-4.5,2.9c0,0-2.3,1.6-2.7,1.9c0,0-1.9,1.3-2.6,1.9l-0.9,0.6
	l-12.7,9.4l10.3,16.2l27-10.4L102,183.2z"/>
<path class="st0" d="M111.5,225.8l24.8-11.7l5.1-2.6l10.9-7l15.2-10.1l-14.8-11.1l-30.4,14.3l-5.3,2.5l-24.7,12.2l-5,2.8
	c0,0-19.3,10.4-18.8,10.7s1.2,0.7,1.9,1.2l11.4,7.8l15.4-4.5l8.2-2.5L111.5,225.8z"/>
<path class="st0" d="M127,230.5l25.3-11.5l4.9-2.4l30-15.4l-1.7-17.1l-8.4,4.3l-2.8,7.2c-0.2,0.5-0.5,0.9-1,1.2l-17,11.3l-4.8,3.1
	c0,0-8.8,5.6-9.1,5.8l-16,7.6l-4.9,2.3c0,0-9.2,4.2-9.5,4.4l-11.4,3.5l0.2,3.3l0.2,2.8l21-8.1L127,230.5z"/>
<path class="st0" d="M164.4,218.6l-9,4.6l-21.6,9.8l-8.9,4l-15.8,6l8.5,1l15-4.5c0-0.6,0.3-1.1,0.6-1.5l8.6-4l6.8-3l15.4-6.7l9.1-4
	l13.1-5.5l0.9-8L164.4,218.6L164.4,218.6z"/>
<g>
	<g>
		<path class="st0" d="M1384.9,463.2l-2.3,2.3l-0.9-1.6c-0.1-0.1-0.2-0.2-0.4-0.2c-0.1,0-0.3,0.1-0.3,0.2l-2.9,7.3
			c-0.1,0.1,0,0.3,0.1,0.4c0.1,0.1,0.3,0.1,0.4,0.1l7.3-2.9c0.1-0.1,0.2-0.2,0.2-0.3c0-0.1-0.1-0.3-0.2-0.4l-1.6-0.9l2.3-2.3
			c0.1-0.1,0.1-0.2,0.1-0.3c0-0.1,0-0.2-0.1-0.3l-1.1-1.1C1385.3,463.1,1385,463.1,1384.9,463.2"/>
		<path class="st2" d="M1376.3,472.9c-0.2,0.2-0.2,0.4,0,0.5c0.2,0.2,0.4,0.2,0.5,0l0.9-0.9c0.1-0.1,0.1-0.2,0.1-0.3
			c0-0.1,0-0.2-0.1-0.3c-0.2-0.2-0.4-0.2-0.5,0L1376.3,472.9z"/>
		<path class="st2" d="M1379,472.7c-0.2,0-0.4,0.2-0.4,0.4v1.2c0,0.2,0.2,0.4,0.4,0.4c0.2,0,0.4-0.2,0.4-0.4V473
			C1379.3,472.8,1379.2,472.7,1379,472.7"/>
		<path class="st2" d="M1380.1,472.8l0.9,0.9c0.1,0.1,0.4,0.1,0.5,0c0.1-0.1,0.1-0.2,0.1-0.3c0-0.1,0-0.2-0.1-0.3l-0.9-0.9
			c-0.2-0.2-0.4-0.2-0.5,0C1380,472.4,1380,472.7,1380.1,472.8"/>
		<path class="st2" d="M1377.1,470.8c0-0.2-0.2-0.4-0.4-0.4h-1.2c-0.2,0-0.4,0.2-0.4,0.4c0,0.2,0.2,0.4,0.4,0.4h1.2
			C1377,471.2,1377.1,471,1377.1,470.8"/>
		<path class="st2" d="M1377.6,469.4c0-0.1,0-0.2-0.1-0.3l-0.9-0.9c-0.1-0.2-0.4-0.2-0.5,0c-0.1,0.1-0.1,0.4,0,0.5l0.9,0.9
			c0.1,0.2,0.4,0.2,0.5,0C1377.6,469.6,1377.6,469.5,1377.6,469.4"/>
	</g>
	<path class="st2" d="M1370.6,579c-0.6,2-1.9,2.8-2.5,2.7c-0.5-0.1-1.2-1.2-1.2-3.8c0-8.9-3.7-12.7-6.9-14.4
		c-4.3-2.3-9.1-1.4-11-0.1c-4.8,3.3-7.7,8.7-7.7,14.5c0,9.6,7.8,17.5,17.5,17.5c1.4,0,2.6-1.2,2.6-2.6c0-1.4-1.1-2.6-2.6-2.6
		c-6.8,0-12.3-5.5-12.3-12.3c0-4.1,2-7.9,5.4-10.2c0.5-0.3,3.3-1,5.9,0.4c3.3,1.9,4,6.4,4,9.8c0,6,2.9,8.5,5.7,8.9
		c3.5,0.5,7-2.3,8.2-6.4c0.1-0.2,0.1-0.5,0.1-0.7c0-1.1-0.7-2.1-1.9-2.5C1372.4,576.8,1371,577.6,1370.6,579"/>
	<path class="st0" d="M1369.1,543.9c0.9,0,1.7,0.1,2.5,0.3c0.7,0.2,1.4,0.5,1.9,1c0.5,0.4,0.9,1,1.2,1.7c0.3,0.7,0.4,1.5,0.4,2.5
		c0,0.8-0.2,1.5-0.5,2.2c-0.3,0.7-0.7,1.3-1.2,1.8c-0.5,0.5-1.1,0.9-1.8,1.2c-0.7,0.3-1.4,0.5-2.2,0.5c-0.8,0-1.5-0.2-2.2-0.5
		c-0.7-0.3-1.3-0.7-1.8-1.2c-0.5-0.5-0.9-1.1-1.2-1.8c-0.3-0.7-0.5-1.4-0.5-2.2c0-0.7,0.1-1.3,0.3-1.8c0.2-0.6,0.4-1.1,0.8-1.5
		c0.3-0.4,0.7-0.8,1.2-1.2c0.4-0.3,0.9-0.6,1.5-0.8v2.1c-0.3,0.2-0.5,0.3-0.8,0.6c-0.2,0.2-0.4,0.5-0.6,0.8
		c-0.2,0.3-0.3,0.6-0.4,0.9c-0.1,0.3-0.1,0.7-0.1,1c0,0.5,0.1,1,0.3,1.5c0.2,0.5,0.5,0.9,0.8,1.2c0.3,0.4,0.8,0.6,1.2,0.8
		c0.5,0.2,1,0.3,1.5,0.3c0.5,0,1-0.1,1.5-0.3c0.5-0.2,0.9-0.5,1.2-0.8c0.3-0.4,0.6-0.8,0.8-1.2c0.2-0.5,0.3-1,0.3-1.5
		c0-1-0.2-1.7-0.6-2.3c-0.4-0.6-1-0.9-1.8-1.1v3.2h-1.8V543.9z"/>
	<path class="st0" d="M1367.1,542.2v-1.8h0.8c-0.3-0.4-0.5-0.8-0.6-1.3c-0.1-0.5-0.2-1-0.2-1.6h1.8c0,0.4,0.1,0.8,0.2,1.1
		c0.1,0.3,0.3,0.6,0.5,0.9s0.5,0.5,0.8,0.6c0.3,0.1,0.6,0.2,0.9,0.2h3.5v1.8H1367.1z"/>
	<path class="st0" d="M1371,535.9c-0.6,0-1.1-0.1-1.6-0.3c-0.5-0.2-1-0.5-1.3-0.9c-0.4-0.4-0.7-0.8-0.9-1.3
		c-0.2-0.5-0.3-1.1-0.3-1.6c0-0.6,0.1-1.1,0.3-1.6c0.2-0.5,0.5-1,0.9-1.3c0.4-0.4,0.8-0.7,1.3-0.9c0.5-0.2,1.1-0.3,1.6-0.3h3.9v1.8
		h-0.4c0.5,0.7,0.8,1.5,0.8,2.4c0,0.6-0.1,1.2-0.3,1.7s-0.5,1-0.9,1.3c-0.4,0.4-0.8,0.6-1.3,0.8
		C1372.1,535.8,1371.6,535.9,1371,535.9 M1371,534.1c0.3,0,0.6-0.1,0.9-0.2c0.3-0.1,0.5-0.3,0.8-0.5c0.2-0.2,0.4-0.5,0.5-0.8
		c0.1-0.3,0.2-0.6,0.2-0.9c0-0.3-0.1-0.6-0.2-0.9c-0.1-0.3-0.3-0.6-0.5-0.8c-0.2-0.2-0.5-0.4-0.8-0.5c-0.3-0.1-0.6-0.2-1-0.2
		c-0.3,0-0.6,0.1-0.9,0.2c-0.3,0.1-0.5,0.3-0.8,0.5c-0.2,0.2-0.4,0.5-0.5,0.8c-0.1,0.3-0.2,0.6-0.2,0.9c0,0.3,0.1,0.6,0.2,0.9
		c0.1,0.3,0.3,0.5,0.5,0.8c0.2,0.2,0.5,0.4,0.8,0.5C1370.3,534.1,1370.6,534.1,1371,534.1 M1363.6,529.7v1.9l2.6,1v-1.9
		L1363.6,529.7z"/>
	<path class="st0" d="M1366.3,522.5c-0.1,0-0.2,0-0.3,0.1c-0.1,0.1-0.1,0.2-0.1,0.3c0,0.1,0,0.3,0.1,0.3c0.1,0.1,0.2,0.1,0.3,0.1h3
		v-1.8h1.8v1.8h3.7v1.8h-3.7v0.7h-1.8v-0.7h-3c-0.3,0-0.6,0-0.9-0.1c-0.3-0.1-0.5-0.2-0.7-0.4c-0.2-0.2-0.4-0.4-0.5-0.7
		c-0.1-0.3-0.2-0.6-0.2-1c0-0.4,0.1-0.8,0.2-1c0.1-0.3,0.3-0.5,0.5-0.7c0.2-0.2,0.4-0.3,0.7-0.4c0.3-0.1,0.6-0.1,0.9-0.1h0.5v1.8
		H1366.3z"/>
	<path class="st0" d="M1365.2,519.4c-0.3,0-0.6-0.1-0.8-0.3c-0.2-0.2-0.3-0.5-0.3-0.8c0-0.3,0.1-0.6,0.3-0.8
		c0.2-0.2,0.5-0.3,0.8-0.3c0.3,0,0.6,0.1,0.8,0.3c0.2,0.2,0.3,0.5,0.3,0.8c0,0.3-0.1,0.6-0.3,0.8
		C1365.7,519.3,1365.5,519.4,1365.2,519.4 M1367.1,519.2v-1.8h7.7v1.8H1367.1z"/>
	<path class="st0" d="M1371,513.9c0.3,0,0.6-0.1,0.9-0.2c0.3-0.1,0.5-0.3,0.8-0.5c0.2-0.2,0.4-0.5,0.5-0.8c0.1-0.3,0.2-0.6,0.2-0.9
		c0-0.4-0.1-0.8-0.2-1.1c-0.2-0.3-0.4-0.6-0.7-0.8v-2c0.5,0.2,0.9,0.4,1.2,0.7c0.3,0.3,0.6,0.6,0.8,0.9c0.2,0.3,0.4,0.7,0.5,1.1
		c0.1,0.4,0.2,0.8,0.2,1.2c0,0.6-0.1,1.1-0.3,1.6c-0.2,0.5-0.5,1-0.9,1.3c-0.4,0.4-0.8,0.7-1.3,0.9c-0.5,0.2-1.1,0.3-1.6,0.3
		c-0.6,0-1.1-0.1-1.6-0.3c-0.5-0.2-1-0.5-1.3-0.9c-0.4-0.4-0.7-0.8-0.9-1.3c-0.2-0.5-0.3-1.1-0.3-1.6c0-0.4,0-0.8,0.1-1.1
		c0.1-0.4,0.3-0.8,0.5-1.1c0.2-0.3,0.5-0.7,0.8-0.9c0.3-0.3,0.7-0.5,1.2-0.7v2c-0.3,0.2-0.5,0.5-0.7,0.8c-0.1,0.3-0.2,0.7-0.2,1.1
		c0,0.3,0.1,0.6,0.2,0.9c0.1,0.3,0.3,0.5,0.5,0.8c0.2,0.2,0.5,0.4,0.8,0.5C1370.3,513.8,1370.6,513.9,1371,513.9"/>
	<path class="st0" d="M1371,562.7c0.3,0,0.6-0.1,0.9-0.2c0.3-0.1,0.5-0.3,0.8-0.5c0.2-0.2,0.4-0.5,0.5-0.8c0.1-0.3,0.2-0.6,0.2-0.9
		c0-0.4-0.1-0.8-0.2-1.1c-0.2-0.3-0.4-0.6-0.7-0.8v-2c0.5,0.2,0.9,0.4,1.2,0.7c0.3,0.3,0.6,0.6,0.8,0.9c0.2,0.3,0.4,0.7,0.5,1.1
		c0.1,0.4,0.2,0.8,0.2,1.2c0,0.6-0.1,1.1-0.3,1.6c-0.2,0.5-0.5,1-0.9,1.3c-0.4,0.4-0.8,0.7-1.3,0.9c-0.5,0.2-1.1,0.3-1.6,0.3
		c-0.6,0-1.1-0.1-1.6-0.3c-0.5-0.2-1-0.5-1.3-0.9c-0.4-0.4-0.7-0.8-0.9-1.3c-0.2-0.5-0.3-1.1-0.3-1.6c0-0.4,0-0.8,0.1-1.1
		c0.1-0.4,0.3-0.8,0.5-1.1c0.2-0.3,0.5-0.7,0.8-0.9c0.3-0.3,0.7-0.5,1.2-0.7v2c-0.3,0.2-0.5,0.5-0.7,0.8c-0.1,0.3-0.2,0.7-0.2,1.1
		c0,0.3,0.1,0.6,0.2,0.9c0.1,0.3,0.3,0.5,0.5,0.8c0.2,0.2,0.5,0.4,0.8,0.5C1370.3,562.7,1370.6,562.7,1371,562.7"/>
	<path class="st0" d="M1371,505.9c-0.6,0-1.1-0.1-1.6-0.3c-0.5-0.2-1-0.5-1.3-0.9c-0.4-0.4-0.7-0.8-0.9-1.3
		c-0.2-0.5-0.3-1.1-0.3-1.6s0.1-1.1,0.3-1.6c0.2-0.5,0.5-1,0.9-1.3c0.4-0.4,0.8-0.7,1.3-0.9c0.5-0.2,1.1-0.3,1.6-0.3h3.9v1.8h-0.4
		c0.5,0.7,0.8,1.5,0.8,2.4c0,0.6-0.1,1.2-0.3,1.7c-0.2,0.5-0.5,1-0.9,1.3c-0.4,0.4-0.8,0.6-1.3,0.8
		C1372.1,505.8,1371.6,505.9,1371,505.9 M1371,504.1c0.3,0,0.6-0.1,0.9-0.2c0.3-0.1,0.5-0.3,0.8-0.5c0.2-0.2,0.4-0.5,0.5-0.8
		c0.1-0.3,0.2-0.6,0.2-0.9c0-0.3-0.1-0.6-0.2-0.9c-0.1-0.3-0.3-0.6-0.5-0.8c-0.2-0.2-0.5-0.4-0.8-0.5c-0.3-0.1-0.6-0.2-1-0.2
		c-0.3,0-0.6,0.1-0.9,0.2c-0.3,0.1-0.5,0.3-0.8,0.5c-0.2,0.2-0.4,0.5-0.5,0.8c-0.1,0.3-0.2,0.6-0.2,0.9c0,0.3,0.1,0.6,0.2,0.9
		c0.1,0.3,0.3,0.5,0.5,0.8c0.2,0.2,0.5,0.4,0.8,0.5C1370.3,504.1,1370.6,504.1,1371,504.1"/>
	<path class="st0" d="M1371,574.7c-0.6,0-1.1-0.1-1.6-0.3c-0.5-0.2-1-0.5-1.3-0.9c-0.4-0.4-0.7-0.8-0.9-1.3
		c-0.2-0.5-0.3-1.1-0.3-1.6c0-0.6,0.1-1.1,0.3-1.6c0.2-0.5,0.5-1,0.9-1.3c0.4-0.4,0.8-0.7,1.3-0.9c0.5-0.2,1.1-0.3,1.6-0.3h3.9v1.8
		h-0.4c0.5,0.7,0.8,1.5,0.8,2.4c0,0.6-0.1,1.2-0.3,1.7c-0.2,0.5-0.5,1-0.9,1.3c-0.4,0.4-0.8,0.6-1.3,0.8
		C1372.1,574.6,1371.6,574.7,1371,574.7 M1371,572.9c0.3,0,0.6-0.1,0.9-0.2c0.3-0.1,0.5-0.3,0.8-0.5c0.2-0.2,0.4-0.5,0.5-0.8
		c0.1-0.3,0.2-0.6,0.2-0.9c0-0.3-0.1-0.6-0.2-0.9c-0.1-0.3-0.3-0.6-0.5-0.8c-0.2-0.2-0.5-0.4-0.8-0.5c-0.3-0.1-0.6-0.2-1-0.2
		c-0.3,0-0.6,0.1-0.9,0.2c-0.3,0.1-0.5,0.3-0.8,0.5c-0.2,0.2-0.4,0.5-0.5,0.8c-0.1,0.3-0.2,0.6-0.2,0.9c0,0.3,0.1,0.6,0.2,0.9
		c0.1,0.3,0.3,0.5,0.5,0.8c0.2,0.2,0.5,0.4,0.8,0.5C1370.3,572.8,1370.6,572.9,1371,572.9"/>
	<path class="st1" d="M1373.5,494.1c-0.9,0-1.5-0.6-1.5-1.3c0-0.7,0.6-1.3,1.5-1.3c0.9,0,1.5,0.5,1.5,1.3
		C1375,493.5,1374.4,494.1,1373.5,494.1"/>
	<path class="st2" d="M1374.7,485.5c0.1,0.2,0.2,0.8,0.2,1.4c0,2.1-1.5,3.5-4.2,3.5c-2.6,0-4.4-1.5-4.4-3.8c0-0.5,0.1-1,0.2-1.2
		l1.8,0.3c-0.1,0.2-0.2,0.5-0.2,0.8c0,1.1,1,1.7,2.5,1.7c1.5,0,2.5-0.6,2.5-1.7c0-0.3-0.1-0.6-0.2-0.8L1374.7,485.5z"/>
	<path class="st2" d="M1370.6,478.5c3.5,0,4.4,1.9,4.4,3.2c0,2-1.6,3.2-4.3,3.2c-3,0-4.4-1.6-4.4-3.2
		C1366.3,479.7,1368,478.5,1370.6,478.5 M1370.6,482.7c1.4,0,2.6-0.2,2.6-1c0-0.7-1.4-0.9-2.6-0.9c-1.2,0-2.6,0.2-2.6,0.9
		C1368,482.5,1369.5,482.7,1370.6,482.7"/>
	<path class="st2" d="M1369,477.2c-0.9,0-1.7,0.1-2.5,0.1v-2l1-0.1v0c-0.6-0.4-1.1-1.1-1.1-2c0-0.9,0.4-1.5,1.1-1.8v0
		c-0.3-0.2-0.6-0.5-0.8-0.8c-0.2-0.3-0.3-0.8-0.3-1.2c0-1.5,1.2-2.2,3.2-2.2h5.3v2.2h-4.9c-1,0-1.7,0.1-1.7,0.8
		c0,0.4,0.3,0.7,0.8,0.8c0.1,0,0.4,0.1,0.6,0.1h5.3v2.2h-5.3c-0.6,0-1.4,0.1-1.4,0.8c0,0.3,0.3,0.7,0.8,0.8c0.2,0.1,0.4,0.1,0.6,0.1
		h5.3v2.2H1369z"/>
	<path class="st1" d="M1356.7,558.4c0-0.1,0-0.2,0.1-0.2c0.1-0.1,0.1-0.1,0.2-0.1s0.2,0,0.2,0.1c0.1,0.1,0.1,0.1,0.1,0.2v0
		c0,0.3,0.1,0.5,0.3,0.7c0.2,0.2,0.4,0.3,0.6,0.3c0,0,0,0,0.1,0h1.3c0.1,0,0.2,0,0.3,0.1c0.1,0.1,0.1,0.1,0.1,0.2
		c0,0.1,0,0.2-0.1,0.2c-0.1,0.1-0.2,0.1-0.3,0.1h-1.3c-0.5,0-0.8-0.2-1.2-0.5C1356.9,559.2,1356.8,558.8,1356.7,558.4"/>
	<path class="st1" d="M1357.2,555.1c0.3-0.3,0.7-0.5,1.2-0.5c0.5,0,0.8,0.2,1.2,0.5c0.3,0.3,0.5,0.7,0.5,1.2s-0.2,0.8-0.5,1.2
		c-0.3,0.3-0.7,0.5-1.2,0.5c-0.5,0-0.8-0.2-1.2-0.5c-0.3-0.3-0.5-0.7-0.5-1.2S1356.9,555.4,1357.2,555.1 M1357.4,556.2
		c0,0.3,0.1,0.5,0.3,0.7c0.2,0.2,0.4,0.3,0.7,0.3c0.3,0,0.5-0.1,0.7-0.3c0.2-0.2,0.3-0.4,0.3-0.7c0-0.3-0.1-0.5-0.3-0.7
		c-0.2-0.2-0.4-0.3-0.7-0.3c-0.3,0-0.5,0.1-0.7,0.3C1357.5,555.7,1357.4,556,1357.4,556.2"/>
	<path class="st1" d="M1358.4,550.6c0.5,0,0.8,0.2,1.2,0.5c0.3,0.3,0.5,0.7,0.5,1.2c0,0.5-0.2,0.8-0.5,1.2c-0.3,0.3-0.7,0.5-1.2,0.5
		c-0.5,0-0.8-0.2-1.2-0.5c-0.3-0.3-0.5-0.7-0.5-1.2c0-0.4,0.1-0.7,0.3-1h-1c-0.1,0-0.2,0-0.2-0.1c-0.1-0.1-0.1-0.1-0.1-0.2
		s0-0.2,0.1-0.2c0.1-0.1,0.1-0.1,0.2-0.1H1358.4z M1358.5,551.3C1358.5,551.3,1358.4,551.3,1358.5,551.3l-0.2,0
		c-0.2,0-0.4,0.1-0.6,0.3c-0.2,0.2-0.3,0.4-0.3,0.7c0,0.3,0.1,0.5,0.3,0.7c0.2,0.2,0.4,0.3,0.7,0.3c0.3,0,0.5-0.1,0.7-0.3
		c0.2-0.2,0.3-0.4,0.3-0.7c0-0.3-0.1-0.5-0.3-0.7C1358.9,551.4,1358.7,551.3,1358.5,551.3"/>
	<path class="st1" d="M1360.1,548.3c0,0.5-0.2,0.9-0.5,1.2c-0.3,0.3-0.7,0.5-1.2,0.5h-1.3c-0.1,0-0.2,0-0.3-0.1
		c-0.1-0.1-0.1-0.1-0.1-0.2c0-0.1,0-0.2,0.1-0.2c0.1-0.1,0.2-0.1,0.3-0.1h1.3c0,0,0,0,0.1,0c0.2,0,0.5-0.1,0.6-0.3
		c0.2-0.2,0.3-0.4,0.3-0.7v0c0-0.3-0.1-0.5-0.3-0.7c-0.2-0.2-0.4-0.3-0.6-0.3c0,0,0,0-0.1,0h-1.3c-0.1,0-0.2,0-0.3-0.1
		c-0.1-0.1-0.1-0.1-0.1-0.2c0-0.1,0-0.2,0.1-0.2c0.1-0.1,0.2-0.1,0.3-0.1h1.3c0.5,0,0.8,0.2,1.2,0.5
		C1359.9,547.4,1360,547.8,1360.1,548.3L1360.1,548.3z"/>
	<path class="st1" d="M1357.2,543.1C1357.2,543.1,1357.2,543.1,1357.2,543.1c0.1-0.1,0.1-0.1,0.2-0.1c0.1,0,0.2,0,0.2,0.1
		c0.1,0.1,0.1,0.1,0.1,0.2c0,0.1,0,0.2-0.1,0.2v0c-0.2,0.2-0.3,0.4-0.3,0.7c0,0.3,0.1,0.5,0.3,0.7c0.2,0.2,0.4,0.3,0.7,0.3
		c0.3,0,0.5-0.1,0.7-0.3c0.2-0.2,0.3-0.4,0.3-0.7c0-0.3-0.1-0.5-0.3-0.7c0,0,0,0,0,0c-0.1-0.1-0.1-0.1-0.1-0.2c0-0.1,0-0.2,0.1-0.2
		c0.1-0.1,0.1-0.1,0.2-0.1c0.1,0,0.2,0,0.2,0.1c0,0,0,0,0,0c0.3,0.3,0.5,0.7,0.5,1.2c0,0.5-0.2,0.8-0.5,1.2
		c-0.3,0.3-0.7,0.5-1.2,0.5c-0.5,0-0.8-0.2-1.2-0.5c-0.3-0.3-0.5-0.7-0.5-1.2C1356.8,543.8,1356.9,543.4,1357.2,543.1L1357.2,543.1z
		"/>
	<path class="st1" d="M1357.2,539.7C1357.2,539.7,1357.2,539.7,1357.2,539.7c0.1-0.1,0.1-0.1,0.2-0.1c0.1,0,0.2,0,0.2,0.1
		c0.1,0.1,0.1,0.1,0.1,0.2c0,0.1,0,0.2-0.1,0.2v0c-0.2,0.2-0.3,0.4-0.3,0.7s0.1,0.5,0.3,0.7c0.2,0.2,0.4,0.3,0.7,0.3
		c0.3,0,0.5-0.1,0.7-0.3c0.2-0.2,0.3-0.4,0.3-0.7c0-0.3-0.1-0.5-0.3-0.7c0,0,0,0,0,0c-0.1-0.1-0.1-0.1-0.1-0.2c0-0.1,0-0.2,0.1-0.2
		c0.1-0.1,0.1-0.1,0.2-0.1c0.1,0,0.2,0,0.2,0.1c0,0,0,0,0,0c0.3,0.3,0.5,0.7,0.5,1.2c0,0.5-0.2,0.8-0.5,1.2
		c-0.3,0.3-0.7,0.5-1.2,0.5c-0.5,0-0.8-0.2-1.2-0.5c-0.3-0.3-0.5-0.7-0.5-1.2C1356.8,540.4,1356.9,540,1357.2,539.7L1357.2,539.7z"
		/>
	<path class="st1" d="M1356.4,538.6c0,0.1,0,0.2-0.1,0.2c-0.1,0.1-0.1,0.1-0.2,0.1c-0.1,0-0.2,0-0.2-0.1c-0.1-0.1-0.1-0.1-0.1-0.2
		c0-0.1,0-0.2,0.1-0.2c0.1-0.1,0.1-0.1,0.2-0.1c0.1,0,0.2,0,0.2,0.1C1356.4,538.4,1356.4,538.5,1356.4,538.6 M1360.1,538.6
		c0,0.1,0,0.2-0.1,0.2c-0.1,0.1-0.1,0.1-0.2,0.1h-2.7c-0.1,0-0.2,0-0.2-0.1c-0.1-0.1-0.1-0.1-0.1-0.2c0-0.1,0-0.2,0.1-0.2
		c0.1-0.1,0.1-0.1,0.2-0.1h2.7c0.1,0,0.2,0,0.2,0.1C1360,538.4,1360.1,538.5,1360.1,538.6"/>
	<path class="st1" d="M1357.2,534.8c0.3-0.3,0.7-0.5,1.2-0.5c0.5,0,0.8,0.2,1.2,0.5c0.3,0.3,0.5,0.7,0.5,1.2c0,0.5-0.2,0.8-0.5,1.2
		c-0.3,0.3-0.7,0.5-1.2,0.5c-0.5,0-0.8-0.2-1.2-0.5c-0.3-0.3-0.5-0.7-0.5-1.2C1356.8,535.5,1356.9,535.1,1357.2,534.8 M1357.4,535.9
		c0,0.3,0.1,0.5,0.3,0.7c0.2,0.2,0.4,0.3,0.7,0.3c0.3,0,0.5-0.1,0.7-0.3c0.2-0.2,0.3-0.4,0.3-0.7c0-0.3-0.1-0.5-0.3-0.7
		c-0.2-0.2-0.4-0.3-0.7-0.3c-0.3,0-0.5,0.1-0.7,0.3C1357.5,535.4,1357.4,535.7,1357.4,535.9 M1356.6,535.9c0,0.1,0,0.1,0,0.2
		c0,0,0,0.1,0,0.1c0,0.1-0.1,0.2-0.2,0.2c-0.1,0-0.1,0-0.2,0c0,0-0.1,0-0.1,0c-0.1,0-0.2-0.1-0.2-0.2l-0.5-0.9c0-0.1,0-0.1,0-0.2
		c0,0,0-0.1,0-0.1c0-0.1,0.1-0.2,0.2-0.2c0.1,0,0.1,0,0.2,0c0,0,0.1,0,0.1,0c0.1,0,0.2,0.1,0.2,0.2L1356.6,535.9z"/>
	<path class="st1" d="M1356.7,531.9c0-0.5,0.2-0.9,0.5-1.2c0.3-0.3,0.7-0.5,1.2-0.5h1.3c0.1,0,0.2,0,0.3,0.1
		c0.1,0.1,0.1,0.1,0.1,0.2c0,0.1,0,0.2-0.1,0.2c-0.1,0.1-0.2,0.1-0.3,0.1h-1.3c0,0,0,0-0.1,0c-0.2,0-0.5,0.1-0.6,0.3
		c-0.2,0.2-0.3,0.4-0.3,0.7v0c0,0.3,0.1,0.5,0.3,0.7c0.2,0.2,0.4,0.3,0.6,0.3c0,0,0,0,0.1,0h1.3c0.1,0,0.2,0,0.3,0.1
		c0.1,0.1,0.1,0.1,0.1,0.2c0,0.1,0,0.2-0.1,0.2c-0.1,0.1-0.2,0.1-0.3,0.1h-1.3c-0.5,0-0.8-0.2-1.2-0.5
		C1356.9,532.8,1356.8,532.4,1356.7,531.9L1356.7,531.9z"/>
	<path class="st2" d="M1357.6,526.5c0.1-0.1,0.3-0.2,0.5-0.2c0.2,0,0.3,0.1,0.5,0.2c0.1,0.1,0.2,0.3,0.2,0.5c0,0.2-0.1,0.3-0.2,0.5
		c-0.1,0.1-0.3,0.2-0.5,0.2c-0.2,0-0.3-0.1-0.5-0.2c-0.1-0.1-0.2-0.3-0.2-0.5C1357.4,526.8,1357.5,526.6,1357.6,526.5"/>
	<path class="st1" d="M1358.7,522.5l1.1,0.6c0,0,0.1,0,0.1,0.1c0.1,0.1,0.1,0.1,0.1,0.2c0,0.1,0,0.2-0.1,0.2
		c-0.1,0.1-0.1,0.1-0.2,0.1c-0.1,0-0.1,0-0.2,0l-4.1-2c0,0-0.1,0-0.1-0.1c-0.1-0.1-0.1-0.1-0.1-0.2c0-0.1,0-0.2,0.1-0.2
		c0,0,0.1,0,0.1-0.1l4.1-2c0.1,0,0.1-0.1,0.2-0.1c0.1,0,0.2,0,0.2,0.1c0.1,0.1,0.1,0.1,0.1,0.2c0,0.1,0,0.2-0.1,0.2
		c0,0-0.1,0-0.1,0.1v0l-1.1,0.5V522.5z M1358.1,520.5l-1.7,0.8l1.7,0.8V520.5z"/>
	<path class="st1" d="M1356.7,516.7c0-0.1,0-0.2,0.1-0.2c0.1-0.1,0.1-0.1,0.2-0.1s0.2,0,0.2,0.1c0.1,0.1,0.1,0.1,0.1,0.2v0
		c0,0.3,0.1,0.5,0.3,0.7c0.2,0.2,0.4,0.3,0.6,0.3c0,0,0,0,0.1,0h1.3c0.1,0,0.2,0,0.3,0.1c0.1,0.1,0.1,0.1,0.1,0.2
		c0,0.1,0,0.2-0.1,0.2c-0.1,0.1-0.2,0.1-0.3,0.1h-1.3c-0.5,0-0.8-0.2-1.2-0.5C1356.9,517.6,1356.8,517.2,1356.7,516.7"/>
	<path class="st1" d="M1356.7,515h-0.6c-0.1,0-0.2,0-0.2-0.1c-0.1-0.1-0.1-0.1-0.1-0.2c0-0.1,0-0.2,0.1-0.2c0.1-0.1,0.1-0.1,0.2-0.1
		h0.6V514c0-0.1,0-0.2,0.1-0.2c0.1-0.1,0.1-0.1,0.2-0.1c0.1,0,0.2,0,0.2,0.1c0.1,0.1,0.1,0.1,0.1,0.2v0.4h2.3c0.1,0,0.2,0,0.2,0.1
		c0.1,0.1,0.1,0.1,0.1,0.2c0,0.1,0,0.2-0.1,0.2c-0.1,0.1-0.1,0.1-0.2,0.1h-2.3v0.4c0,0.1,0,0.2-0.1,0.2c-0.1,0.1-0.1,0.1-0.2,0.1
		c-0.1,0-0.2,0-0.2-0.1c-0.1-0.1-0.1-0.1-0.1-0.2V515z"/>
	<path class="st1" d="M1356.6,512.7c0,0.1,0,0.1,0,0.2c0,0,0,0.1,0,0.1c0,0.1-0.1,0.2-0.2,0.2c-0.1,0-0.1,0-0.2,0c0,0-0.1,0-0.1,0
		c-0.1,0-0.2-0.1-0.2-0.2l-0.5-0.9c0-0.1,0-0.1,0-0.2c0,0,0-0.1,0-0.1c0-0.1,0.1-0.2,0.2-0.2c0.1,0,0.1,0,0.2,0c0,0,0.1,0,0.1,0
		c0.1,0,0.2,0.1,0.2,0.2L1356.6,512.7z M1360.1,512.7c0,0.1,0,0.2-0.1,0.2c-0.1,0.1-0.1,0.1-0.2,0.1h-2.7c-0.1,0-0.2,0-0.2-0.1
		c-0.1-0.1-0.1-0.1-0.1-0.2c0-0.1,0-0.2,0.1-0.2c0.1-0.1,0.1-0.1,0.2-0.1h2.7c0.1,0,0.2,0,0.2,0.1
		C1360,512.5,1360.1,512.6,1360.1,512.7"/>
	<path class="st1" d="M1356.7,510.5c0-0.1,0-0.2,0.1-0.2c0.1-0.1,0.1-0.1,0.2-0.1c0.1,0,0.2,0,0.2,0.1c0.1,0.1,0.1,0.1,0.1,0.2
		c0,0,0,0.1,0,0.1s0.1,0,0.1,0c0,0,0.1,0,0.1,0c0,0,0-0.1,0-0.1c0-0.3,0.1-0.6,0.3-0.8c0.2-0.2,0.5-0.3,0.8-0.3
		c0.3,0,0.6,0.1,0.8,0.3c0.2,0.2,0.3,0.5,0.3,0.8c0,0.3-0.1,0.6-0.3,0.8c-0.2,0.2-0.5,0.3-0.8,0.3c-0.1,0-0.2,0-0.2-0.1
		c-0.1-0.1-0.1-0.1-0.1-0.2c0-0.1,0-0.2,0.1-0.2c0.1-0.1,0.1-0.1,0.2-0.1c0.1,0,0.3,0,0.4-0.1c0.1-0.1,0.1-0.2,0.1-0.4
		c0-0.1,0-0.3-0.1-0.4c-0.1-0.1-0.2-0.1-0.4-0.1c-0.1,0-0.3,0-0.4,0.1c-0.1,0.1-0.1,0.2-0.1,0.4c0,0.2-0.1,0.4-0.2,0.6
		c-0.2,0.2-0.4,0.2-0.6,0.2c-0.2,0-0.4-0.1-0.6-0.2C1356.8,510.9,1356.7,510.7,1356.7,510.5"/>
	<path class="st1" d="M1356.7,508.7h-0.6c-0.1,0-0.2,0-0.2-0.1c-0.1-0.1-0.1-0.1-0.1-0.2c0-0.1,0-0.2,0.1-0.2
		c0.1-0.1,0.1-0.1,0.2-0.1h0.6v-0.4c0-0.1,0-0.2,0.1-0.2c0.1-0.1,0.1-0.1,0.2-0.1c0.1,0,0.2,0,0.2,0.1c0.1,0.1,0.1,0.1,0.1,0.2v0.4
		h2.3c0.1,0,0.2,0,0.2,0.1c0.1,0.1,0.1,0.1,0.1,0.2c0,0.1,0,0.2-0.1,0.2c-0.1,0.1-0.1,0.1-0.2,0.1h-2.3v0.4c0,0.1,0,0.2-0.1,0.2
		c-0.1,0.1-0.1,0.1-0.2,0.1c-0.1,0-0.2,0-0.2-0.1c-0.1-0.1-0.1-0.1-0.1-0.2V508.7z"/>
	<path class="st1" d="M1356.4,506.3c0,0.1,0,0.2-0.1,0.2c-0.1,0.1-0.1,0.1-0.2,0.1c-0.1,0-0.2,0-0.2-0.1c-0.1-0.1-0.1-0.1-0.1-0.2
		c0-0.1,0-0.2,0.1-0.2c0.1-0.1,0.1-0.1,0.2-0.1c0.1,0,0.2,0,0.2,0.1C1356.4,506.2,1356.4,506.2,1356.4,506.3 M1360.1,506.3
		c0,0.1,0,0.2-0.1,0.2c-0.1,0.1-0.1,0.1-0.2,0.1h-2.7c-0.1,0-0.2,0-0.2-0.1c-0.1-0.1-0.1-0.1-0.1-0.2c0-0.1,0-0.2,0.1-0.2
		c0.1-0.1,0.1-0.1,0.2-0.1h2.7c0.1,0,0.2,0,0.2,0.1C1360,506.2,1360.1,506.2,1360.1,506.3"/>
	<path class="st1" d="M1357.2,502.5C1357.2,502.5,1357.2,502.5,1357.2,502.5c0.1-0.1,0.1-0.1,0.2-0.1c0.1,0,0.2,0,0.2,0.1
		c0.1,0.1,0.1,0.1,0.1,0.2c0,0.1,0,0.2-0.1,0.2v0c-0.2,0.2-0.3,0.4-0.3,0.7s0.1,0.5,0.3,0.7c0.2,0.2,0.4,0.3,0.7,0.3
		c0.3,0,0.5-0.1,0.7-0.3c0.2-0.2,0.3-0.4,0.3-0.7c0-0.3-0.1-0.5-0.3-0.7c0,0,0,0,0,0c-0.1-0.1-0.1-0.1-0.1-0.2c0-0.1,0-0.2,0.1-0.2
		c0.1-0.1,0.1-0.1,0.2-0.1c0.1,0,0.2,0,0.2,0.1c0,0,0,0,0,0c0.3,0.3,0.5,0.7,0.5,1.2c0,0.5-0.2,0.8-0.5,1.2
		c-0.3,0.3-0.7,0.5-1.2,0.5c-0.5,0-0.8-0.2-1.2-0.5c-0.3-0.3-0.5-0.7-0.5-1.2C1356.8,503.2,1356.9,502.8,1357.2,502.5L1357.2,502.5z
		"/>
	<path class="st1" d="M1359.7,498.6c0.1,0,0.2,0,0.3,0.1c0,0.1,0.1,0.1,0.1,0.2c0,0.1,0,0.2-0.1,0.2c0,0.1-0.1,0.1-0.3,0.1
		c0.2,0.3,0.3,0.6,0.3,1c0,0.5-0.2,0.8-0.5,1.2c-0.3,0.3-0.7,0.5-1.2,0.5c-0.5,0-0.8-0.2-1.2-0.5c-0.3-0.3-0.5-0.7-0.5-1.2
		c0-0.5,0.2-0.8,0.5-1.2c0.3-0.3,0.7-0.5,1.2-0.5H1359.7z M1357.7,499.6c-0.2,0.2-0.3,0.4-0.3,0.7c0,0.3,0.1,0.5,0.3,0.7
		c0.2,0.2,0.4,0.3,0.7,0.3c0.3,0,0.5-0.1,0.7-0.3c0.2-0.2,0.3-0.4,0.3-0.7c0-0.3-0.1-0.5-0.3-0.7c-0.2-0.2-0.4-0.3-0.6-0.3h-0.1
		c0,0,0,0-0.1,0C1358.1,499.3,1357.9,499.4,1357.7,499.6"/>
	<path class="st2" d="M1357.6,494.9c0.1-0.1,0.3-0.2,0.5-0.2c0.2,0,0.3,0.1,0.5,0.2c0.1,0.1,0.2,0.3,0.2,0.5c0,0.2-0.1,0.3-0.2,0.5
		c-0.1,0.1-0.3,0.2-0.5,0.2c-0.2,0-0.3-0.1-0.5-0.2c-0.1-0.1-0.2-0.3-0.2-0.5C1357.4,495.1,1357.5,495,1357.6,494.9"/>
	<path class="st1" d="M1356.3,488.6L1356.3,488.6c-0.2,0.3-0.3,0.6-0.3,1c0,0.5,0.2,0.9,0.5,1.2c0.3,0.3,0.7,0.5,1.2,0.5
		c0.5,0,0.9-0.2,1.2-0.5c0.3-0.3,0.5-0.7,0.5-1.2c0-0.4-0.1-0.7-0.3-1l0,0c0,0,0,0,0,0c-0.1-0.1-0.1-0.1-0.1-0.2
		c0-0.1,0-0.2,0.1-0.2c0.1-0.1,0.1-0.1,0.2-0.1c0.1,0,0.2,0,0.2,0.1c0,0,0,0,0,0l0,0c0.4,0.4,0.5,0.9,0.5,1.5c0,0.7-0.2,1.2-0.7,1.7
		c-0.5,0.5-1,0.7-1.7,0.7c-0.7,0-1.2-0.2-1.7-0.7c-0.5-0.5-0.7-1-0.7-1.7c0-0.6,0.2-1.1,0.5-1.5l0,0c0,0,0,0,0,0
		c0.1-0.1,0.1-0.1,0.2-0.1c0.1,0,0.2,0,0.2,0.1c0.1,0.1,0.1,0.1,0.1,0.2C1356.4,488.5,1356.4,488.5,1356.3,488.6
		C1356.3,488.6,1356.3,488.6,1356.3,488.6"/>
	<path class="st1" d="M1356.7,485.7c0-0.1,0-0.2,0.1-0.2c0.1-0.1,0.1-0.1,0.2-0.1s0.2,0,0.2,0.1c0.1,0.1,0.1,0.1,0.1,0.2v0
		c0,0.3,0.1,0.5,0.3,0.7c0.2,0.2,0.4,0.3,0.6,0.3c0,0,0,0,0.1,0h1.3c0.1,0,0.2,0,0.3,0.1c0.1,0.1,0.1,0.1,0.1,0.2
		c0,0.1,0,0.2-0.1,0.2c-0.1,0.1-0.2,0.1-0.3,0.1h-1.3c-0.5,0-0.8-0.2-1.2-0.5C1356.9,486.6,1356.8,486.2,1356.7,485.7"/>
	<path class="st1" d="M1357.5,483.2c-0.1,0.1-0.1,0.3-0.1,0.4c0,0.3,0.1,0.5,0.3,0.7c0.2,0.2,0.4,0.3,0.7,0.3c0.3,0,0.5-0.1,0.7-0.3
		c0.2-0.2,0.3-0.4,0.3-0.7c0-0.3-0.1-0.5-0.3-0.7c0,0,0,0,0,0c-0.1-0.1-0.1-0.1-0.1-0.2c0-0.1,0-0.2,0.1-0.2
		c0.1-0.1,0.1-0.1,0.2-0.1c0.1,0,0.2,0,0.2,0.1c0,0,0,0,0,0c0.3,0.3,0.5,0.7,0.5,1.2s-0.2,0.8-0.5,1.2c-0.3,0.3-0.7,0.5-1.2,0.5
		c-0.5,0-0.8-0.2-1.2-0.5c-0.3-0.3-0.5-0.7-0.5-1.2s0.2-0.8,0.5-1.2l0,0l0,0c0.1-0.1,0.1-0.1,0.2-0.1c0.1,0,0.2,0,0.2,0.1l0.9,0.9
		c0.1,0.1,0.1,0.1,0.1,0.2c0,0.1,0,0.2-0.1,0.2c-0.1,0.1-0.1,0.1-0.2,0.1c-0.1,0-0.2,0-0.2-0.1L1357.5,483.2z"/>
	<path class="st1" d="M1359.7,478.6c0.1,0,0.2,0,0.3,0.1c0,0.1,0.1,0.1,0.1,0.2c0,0.1,0,0.2-0.1,0.2c0,0.1-0.1,0.1-0.3,0.1
		c0.2,0.3,0.3,0.6,0.3,1c0,0.5-0.2,0.8-0.5,1.2c-0.3,0.3-0.7,0.5-1.2,0.5c-0.5,0-0.8-0.2-1.2-0.5c-0.3-0.3-0.5-0.7-0.5-1.2
		c0-0.5,0.2-0.8,0.5-1.2c0.3-0.3,0.7-0.5,1.2-0.5H1359.7z M1357.7,479.5c-0.2,0.2-0.3,0.4-0.3,0.7c0,0.3,0.1,0.5,0.3,0.7
		c0.2,0.2,0.4,0.3,0.7,0.3c0.3,0,0.5-0.1,0.7-0.3c0.2-0.2,0.3-0.4,0.3-0.7c0-0.3-0.1-0.5-0.3-0.7c-0.2-0.2-0.4-0.3-0.6-0.3h-0.1
		c0,0,0,0-0.1,0C1358.1,479.3,1357.9,479.3,1357.7,479.5"/>
	<path class="st1" d="M1356.7,477.7h-0.6c-0.1,0-0.2,0-0.2-0.1c-0.1-0.1-0.1-0.1-0.1-0.2c0-0.1,0-0.2,0.1-0.2
		c0.1-0.1,0.1-0.1,0.2-0.1h0.6v-0.4c0-0.1,0-0.2,0.1-0.2c0.1-0.1,0.1-0.1,0.2-0.1c0.1,0,0.2,0,0.2,0.1c0.1,0.1,0.1,0.1,0.1,0.2v0.4
		h2.3c0.1,0,0.2,0,0.2,0.1c0.1,0.1,0.1,0.1,0.1,0.2c0,0.1,0,0.2-0.1,0.2c-0.1,0.1-0.1,0.1-0.2,0.1h-2.3v0.4c0,0.1,0,0.2-0.1,0.2
		c-0.1,0.1-0.1,0.1-0.2,0.1c-0.1,0-0.2,0-0.2-0.1c-0.1-0.1-0.1-0.1-0.1-0.2V477.7z"/>
	<path class="st1" d="M1356.4,475.3c0,0.1,0,0.2-0.1,0.2c-0.1,0.1-0.1,0.1-0.2,0.1c-0.1,0-0.2,0-0.2-0.1c-0.1-0.1-0.1-0.1-0.1-0.2
		c0-0.1,0-0.2,0.1-0.2c0.1-0.1,0.1-0.1,0.2-0.1c0.1,0,0.2,0,0.2,0.1C1356.4,475.2,1356.4,475.2,1356.4,475.3 M1360.1,475.3
		c0,0.1,0,0.2-0.1,0.2c-0.1,0.1-0.1,0.1-0.2,0.1h-2.7c-0.1,0-0.2,0-0.2-0.1c-0.1-0.1-0.1-0.1-0.1-0.2c0-0.1,0-0.2,0.1-0.2
		c0.1-0.1,0.1-0.1,0.2-0.1h2.7c0.1,0,0.2,0,0.2,0.1C1360,475.2,1360.1,475.2,1360.1,475.3"/>
	<path class="st1" d="M1359.8,472.4c0,0,0.1,0,0.1,0.1c0.1,0.1,0.1,0.1,0.1,0.2c0,0.1,0,0.2-0.1,0.2c0,0-0.1,0.1-0.1,0.1l-2.6,1.3
		c-0.1,0-0.1,0.1-0.2,0.1c-0.1,0-0.2,0-0.2-0.1c-0.1-0.1-0.1-0.1-0.1-0.2c0-0.1,0-0.2,0.1-0.2c0,0,0,0,0.1-0.1v0l2.1-1l-2.1-1l0,0
		c0,0-0.1,0-0.1-0.1c-0.1-0.1-0.1-0.1-0.1-0.2c0-0.1,0-0.2,0.1-0.2c0.1-0.1,0.1-0.1,0.2-0.1c0.1,0,0.1,0,0.2,0.1L1359.8,472.4z"/>
	<path class="st1" d="M1359.7,467.4c0.1,0,0.2,0,0.3,0.1c0,0.1,0.1,0.1,0.1,0.2c0,0.1,0,0.2-0.1,0.2c0,0.1-0.1,0.1-0.3,0.1
		c0.2,0.3,0.3,0.6,0.3,1c0,0.5-0.2,0.8-0.5,1.2c-0.3,0.3-0.7,0.5-1.2,0.5c-0.5,0-0.8-0.2-1.2-0.5c-0.3-0.3-0.5-0.7-0.5-1.2
		c0-0.5,0.2-0.8,0.5-1.2c0.3-0.3,0.7-0.5,1.2-0.5H1359.7z M1357.7,468.4c-0.2,0.2-0.3,0.4-0.3,0.7c0,0.3,0.1,0.5,0.3,0.7
		c0.2,0.2,0.4,0.3,0.7,0.3c0.3,0,0.5-0.1,0.7-0.3c0.2-0.2,0.3-0.4,0.3-0.7c0-0.3-0.1-0.5-0.3-0.7c-0.2-0.2-0.4-0.3-0.6-0.3h-0.1
		c0,0,0,0-0.1,0C1358.1,468.1,1357.9,468.2,1357.7,468.4"/>
</g>
</svg>
