<?xml version="1.0" encoding="utf-8"?>
<!-- Generator: Adobe Illustrator 23.1.0, SVG Export Plug-In . SVG Version: 6.00 Build 0)  -->
<svg version="1.1" id="Capa_1" xmlns="http://www.w3.org/2000/svg" xmlns:xlink="http://www.w3.org/1999/xlink" x="0px" y="0px"
	 viewBox="0 0 1080 1080" style="enable-background:new 0 0 1080 1080;" xml:space="preserve">
<style type="text/css">
	.st0{fill:#FFFFFF;stroke:#000000;stroke-miterlimit:10;}
</style>
<rect y="0" class="st0" width="1080" height="1080"/>
<g transform="translate(0.000000,1080.000000) scale(0.100000,-0.100000)">
	<path d="M0,6930c0-2128,2-3870,4-3870s23,35,46,78c70,130,123,172,220,172h50l29-58c34-68,31-85-28-180c-41-66-69-80-161-84
		c-78-3-79-3-106,60c-1,2-13,0-28-4l-26-6V1519V0h5400h5400v5400v5400H5849c-2723,0-4949-3-4947-8c2-4,12-29,22-55l19-48l-38-39
		c-58-59-78-54-99,23c-10,34-23,77-29,95l-11,32H383H0V6930z M4660,10628c31-18,68-47,80-65l23-33l-23-63c-12-34-27-68-32-74
		c-7-8-37-13-84-13c-67,0-75,2-90,25c-9,14-14,35-11,47c4,15-3,33-24,60c-30,37-30,39-17,80C4507,10667,4567,10679,4660,10628z
		 M5349,10614c26-21,31-33,31-68s-5-46-30-64c-39-29-52-28-93,11c-29,28-33,37-29,72c3,31,10,45,30,57
		C5296,10645,5314,10643,5349,10614z M2780,10500c0-8-7-2-15,14c-8,15-15,33-15,40C2751,10570,2779,10518,2780,10500z M2717,10528
		c-2-7,4-30,14-50c12-24,15-39,9-43s-8-14-6-23c3-10-10-48-29-86c-19-39-35-76-35-83c0-16-33-34-46-25c-6,4-23,30-38,57l-28,50
		l19,50c16,43,23,50,55,58c26,6,35,13,31,23c-3,8,0,15,6,15c6,1,17,2,24,3c6,1,12,10,13,21c2,36,4,45,10,45
		C2719,10540,2720,10534,2717,10528z M2759,10478l-2-23l-4,23c-2,12-9,22-14,22s-9,7-9,16c0,14,2,14,15,0
		C2753,10508,2759,10491,2759,10478z M3858,10439c3-44,1-48-34-68c-32-19-41-21-66-10c-34,14-43,29-52,86c-6,41-5,43,31,62
		c38,19,38,19,78-2C3852,10487,3855,10481,3858,10439z M8643,10485c-3-9-8-14-10-11c-3,3-2,9,2,15C8644,10505,8650,10502,8643,10485
		z M8230,10460c31-31,25-79-12-93c-12-4-24,3-38,22c-23,33-24,44-10,72C8184,10485,8205,10485,8230,10460z M8924,10419
		c19-42,16-60-7-40c-23,19-75-5-80-37c-4-25-4-25-6,4c0,20,6,37,19,49c11,10,20,23,20,30c0,11,20,35,30,35
		C8903,10460,8913,10441,8924,10419z M1403,10424c34-18,57-38,57-50c0-4,12-20,26-35c21-22,26-36,26-89c1-34-3-65-8-68
		c-22-15-90-68-102-80c-15-14-14-14-94,40c-53,36-58,42-58,76c0,20,7,57,16,81c8,24,13,46,10,48c-9,9,67,93,84,93
		C1366,10440,1385,10433,1403,10424z M10400,10356c41-60,40-91-4-117c-22-13-33-26-29-35c7-19-24-29-42-14c-8,7-15,22-15,33
		c0,12-14,36-32,54c-30,31-31,34-19,72c12,41,23,48,78,50C10364,10400,10374,10393,10400,10356z M2030,10340c34-17,40-25,40-53
		c0-40-7-50-47-71c-41-21-47-20-88,7c-29,19-35,28-35,60c0,31,5,40,33,57C1973,10365,1981,10365,2030,10340z M10154,10345
		c3-8,1-15-3-15c-5,0-11,7-15,15c-3,8-1,15,3,15C10144,10360,10150,10353,10154,10345z M8405,10319c13-40-64-93-78-55
		c-9,23,3,53,26,64C8386,10344,8398,10342,8405,10319z M5983,10304c24-32,16-86-19-121c-13-13-31-40-39-59c-10-25-25-39-52-50
		c-21-9-45-25-54-36s-32-22-57-25l-42-6v63c0,61,1,64,42,102c23,21,53,41,66,45c15,3,29,19,39,45c15,37,52,67,83,67
		C5958,10329,5973,10318,5983,10304z M9750,10292c26-21,20-62-9-62c-10,0-29-21-47-52c-37-65-55-70-77-23c-15,32-16,38-1,75
		c9,22,22,40,29,40c8,0,17,9,20,20C9673,10316,9719,10317,9750,10292z M9020,10275c26-13,30-13,45,2c14,14,18,14,26,2
		c12-18,2-62-16-71c-7-5-19-30-26-58c-12-45-17-51-55-66c-40-15-44-15-67,2c-13,10-30,32-37,47c-12,27-10,31,19,57
		c36,34,39,44,10,35c-20-7-20-6-5,23C8937,10293,8970,10301,9020,10275z M6761,10223c13-16,12-17-3-4c-10,7-18,15-18,17
		C6740,10244,6748,10239,6761,10223z M9349,10181c51-39-10-102-68-71c-30,15-29,68,2,80C9315,10203,9322,10202,9349,10181z
		 M6691,10000c15,0,19-7,19-31c0-45-16-67-58-79c-49-13-58-13-76,5c-11,12-13,22-5,43c11,31,68,75,87,67
		C6666,10002,6680,10000,6691,10000z M6240,9910c-14-11-29-20-35-20c-5,0,4,9,20,20C6263,9935,6273,9935,6240,9910z M8859,9706
		c10-9,26-31,36-49c17-33,17-33-11-78c-25-39-33-45-54-40c-16,4-32,21-45,47c-11,22-28,51-37,64c-19,25-23,61-10,74
		C8750,9737,8839,9724,8859,9706z M6795,9668c5-4,20-16,33-26c18-13,26-34,34-90c11-68,10-73-11-95c-13-15-19-30-15-40
		c8-22,16-21,45,1c13,10,31,17,39,17c8-1,23-3,32-3c30-3,34-49,7-78c-29-31-72-31-102-1c-18,17-33,22-72,20c-73-2-75-2-75-14
		c0-6-7-17-15-26c-8-8-13-19-10-24c4-5,3-9,0-9c-38,0-80,85-56,114c10,12,10,29-3,85c-9,39-16,77-16,86c0,8,18,35,41,60
		c40,43,42,44,87,38C6764,9680,6789,9673,6795,9668z M350,9594l35,4l-33-29c-34-30-75-42-53-15c10,12,8,17-8,25c-11,6-29,11-40,11
		c-22,0-25,8-15,33c5,13,12,11,42-9C305,9595,323,9590,350,9594z M7426,9382c-9-9-37,8-31,18c5,8,11,7,21-1
		C7424,9393,7428,9385,7426,9382z M8065,9350c4-6,11-7,17-4c19,12,1-98-20-126c-11-14-31-29-46-35c-50-18-83,45-61,116
		C7967,9339,8049,9375,8065,9350z M8630,9260c0-5-2-10-4-10c-3,0-8,5-11,10c-3,6-1,10,4,10C8625,9270,8630,9266,8630,9260z
		 M7494,9184c9-8,14-19,11-24s0-20,6-34c6-13,9-36,5-50c-6-24-11-26-55-26c-43,0-53,4-75,31c-30,36-31,39-12,84c14,33,18,35,60,35
		C7461,9200,7485,9194,7494,9184z M9579,9135c10-35,11-48,1-60c-9-11-8-29,4-83c9-38,18-76,21-84c4-9-11-37-35-67
		c-41-52-42-52-90-48c-27,2-55,8-62,14c-7,5-21,13-31,16c-25,9-49,71-45,120c3,38,7,44,46,65c29,16,42,30,42,45c0,40,12,65,31,70
		c10,3,19,1,19-3s14,5,30,20c17,15,30,33,30,39C9540,9206,9567,9175,9579,9135z M8760,9101c0-5,3-17,7-27c4-11,3-15-4-11
		c-14,9-24,47-12,47C8756,9110,8760,9106,8760,9101z M9910,9086c0-2-7-7-16-10c-8-3-12-2-9,4C9891,9090,9910,9094,9910,9086z
		 M9850,9055c0-2-10-9-22-15c-22-11-22-10-4,4C9845,9061,9850,9063,9850,9055z M8660,8930c17-24,21-39,16-65c-6-29-11-35-33-35
		c-40,0-73,36-73,80s5,50,41,50C8630,8960,8645,8951,8660,8930z M10091,8923c5-5,13-24,19-42c8-28,5-36-22-66c-51-58-128-45-149,26
		c-13,41-12,42,20,71c30,27,39,30,78,25C10062,8935,10086,8928,10091,8923z M9464,8724c12-4,16-20,16-53c0-41-3-49-25-59
		c-50-23-65-16-65,28c0,30,7,47,25,65C9442,8733,9442,8733,9464,8724z M10570,8099c0-6-4-7-10-4c-5,3-10,11-10,16c0,6,5,7,10,4
		C10566,8112,10570,8104,10570,8099z M7490,7706c0-3-4-8-10-11c-5-3-10-1-10,4c0,6,5,11,10,11C7486,7710,7490,7708,7490,7706z
		 M2271,6390c58-162,148-410,199-550c50-140,100-277,110-305c10-27,76-207,145-400c70-192,142-392,161-444s34-100,34-108
		c0-11-27-13-142-11l-142,3l-83,235c-45,129-99,283-120,343l-37,107h-402c-373,0-402-1-409-17c-4-10-53-151-110-313
		s-109-310-115-327l-12-33h-134c-78,0-134,4-134,10c0,5,4,19,10,32c5,13,75,205,156,428c155,430,277,766,475,1313l122,337l160-2
		l160-3L2271,6390z M3967,6670c277-66,452-237,499-485c36-198-16-397-140-528c-65-69-103-97-194-142l-72-35l40-53
		c54-72,233-339,316-472c151-246,224-367,224-376c0-5-67-9-155-9h-154l-42,73c-164,285-375,624-466,750l-35,47h-164h-164l-2-432
		l-3-433h-130h-130l-3,1058l-2,1057h347C3849,6690,3894,6688,3967,6670z M5964,6657c187-58,346-163,445-293c71-94,146-249,178-369
		c24-92,26-116,26-295c0-161-4-211-21-286c-50-223-137-379-297-539c-116-115-172-154-302-210c-182-79-318-95-785-95h-328v1061v1060
		l498-3l497-4L5964,6657z M7788,6633c11-32,80-222,152-423s140-387,150-415c10-27,57-156,103-285c47-129,142-391,211-581
		s126-349,126-352c0-4-65-7-144-7h-144l-15,44c-74,217-221,632-226,638c-5,5-607,13-762,9c-45-1-45-1-61-48c-30-90-209-598-218-620
		s-14-23-146-23c-126,0-136,1-129,18c18,45,188,512,199,547c8,22,59,164,114,315s109,300,120,330s59,163,106,295
		c48,132,116,321,152,419c36,99,67,183,70,188c3,4,76,8,163,8h158L7788,6633z M9890,6575v-115h-305h-305v-945v-945h-130h-130v945
		v945h-305h-305v115v115h740h740V6575z M9768,4459c3-15-88-17-990-22c-546-4-2517-10-4380-13c-3049-6-3388-5-3388,8
		c0,14,28,17,193,22c166,5,6871,23,8117,22C9719,4475,9765,4473,9768,4459z M10134,3786c20-24,36-47,36-51c0-3-8-15-18-26
		c-14-14-30-19-66-18c-26,1-49,6-53,11c-3,5,7,22,22,38c15,15,27,31,26,34c-4,24,1,56,8,56C10094,3830,10114,3810,10134,3786z
		 M568,2516c5-3,12-19,15-36c10-48-25-104-88-140c-61-35-79-36-152-13c-59,18-63,30-42,106c8,29,21,45,57,68c44,28,52,30,124,25
		C525,2524,563,2519,568,2516z M1309,2366c-10-10-133-56-137-51c-5,4,74,43,113,55C1304,2377,1318,2374,1309,2366z M1444,2355
		c3-9,0-15-10-15c-8,0-17-7-20-15c-4-8-12-15-20-15s-14-6-14-12c0-9-4-8-10,2c-7,11-4,17,13,22c20,5,20,6,2,7c-17,1-16,4,10,21
		C1431,2374,1436,2374,1444,2355z M2125,1966c20-14,20-15-4-108c-13-51-28-103-32-115c-12-33-119-83-119-55c0,5-6,16-12,25
		c-17,22-194,53-213,37s-26,12-16,65c5,25,10,47,12,49c16,14,74,36,121,46c32,6,64,17,70,24c32,30,60,41,114,44
		C2086,1980,2111,1976,2125,1966z M10585,1649c21-8,46-32,73-71l40-60l-39-63c-44-69-67-81-119-58c-18,7-52,13-75,13
		c-41,0-45,3-70,46c-17,29-25,54-21,67c8,30,46,73,73,81c12,4,25,16,28,26c5,17,23,25,64,29C10547,1659,10568,1655,10585,1649z
		 M1180,1540c-8-5-19-10-25-10c-5,0-3,5,5,10s20,10,25,10C1191,1550,1188,1545,1180,1540z M1100,1505c-14-8-32-14-40-14
		c-9,0-4,6,10,14s32,14,40,14C1119,1519,1114,1513,1100,1505z M1998,1381c36-19,79-72,93-113c7-21,16-38,21-38c4,0,8-9,8-19
		c0-11,3-27,6-35c6-15,8-15,20,1s15,16,27,3c6-8,29-16,49-17c33-1,39,2,44,23c3,13,4,31,0,39c-3,8-1,15,4,15s11,8,13,18
		c3,9,5-15,6-55c1-66-1-73-26-93c-15-11-37-36-50-55c-22-33-26-34-67-29c-42,6-44,5-102-53c-32-32-73-74-89-94c-53-60-67-67-132-57
		c-32,5-87,12-122,16c-41,4-67,12-71,22c-62,122-68,143-61,222c5,62,11,82,31,104c33,35,210,188,233,201
		C1858,1400,1969,1397,1998,1381z M9668,1229c-19-12-25-11-25,5c0,8,8,11,20,8C9677,1238,9679,1235,9668,1229z M2205,1210
		c-3-5-10-10-16-10c-5,0-9,5-9,10c0,6,7,10,16,10C2204,1220,2208,1216,2205,1210z M9256,802c20-13,45-72,39-91c-11-36-38-50-81-44
		c-35,4-45,11-63,43l-21,38l26,31C9182,810,9228,821,9256,802z M10284,795c35-15,37-18,34-58c-4-56-37-76-96-59c-33,10-41,17-46,45
		c-6,28-3,36,26,60C10240,815,10237,814,10284,795z M810,479c-30-11-59-18-65-16c-5,2,13,11,40,19C857,505,875,502,810,479z
		 M8545,465c14-13,25-30,25-37s20-23,43-34c40-21,42-24,45-72c3-49,2-52-36-77c-34-22-47-25-108-22c-52,3-78,10-106,28
		c-36,24-36,25-40,103l-3,78l55,29C8488,496,8514,497,8545,465z M710,424c-5-19-11-38-14-41c-8-8-8,41,0,61C708,474,718,460,710,424
		z M947,218c-3-8-6-5-6,6c-1,11,2,17,5,13C949,234,950,225,947,218z"/>
	<path d="M1980,6396c-5-15-15-49-22-74c-6-26-71-219-145-429c-73-210-133-386-133-392c0-8,97-11,315-11c234,0,315,3,315,12
		c0,6-16,57-36,112c-20,56-51,144-70,196c-18,52-58,167-89,255c-31,87-68,200-82,250C2003,6420,1995,6433,1980,6396z"/>
	<path d="M3460,6060v-400h170c256,0,370,30,461,121c145,145,137,443-15,577c-92,80-182,102-433,102h-183V6060z"/>
	<path d="M5142,5633l3-828l245,1c212,1,258,4,339,22c143,33,246,87,339,180c116,114,183,240,222,418c32,143,33,383,1,504
		c-72,280-254,470-494,515c-58,11-154,15-368,15h-289L5142,5633z"/>
	<path d="M7578,6373c-12-48-107-330-232-687c-36-104-66-191-66-193s144-3,321-3c302,0,321,1,314,18c-32,83-266,765-285,830
		c-12,45-27,82-31,82C7594,6420,7584,6399,7578,6373z"/>
	<path d="M840,10630c0-5,5-10,10-10c6,0,10,5,10,10c0,6-4,10-10,10C845,10640,840,10636,840,10630z"/>
</g>
</svg>
