<?xml version="1.0" encoding="utf-8"?>
<!-- Generator: Adobe Illustrator 23.1.0, SVG Export Plug-In . SVG Version: 6.00 Build 0)  -->
<svg version="1.1" id="Capa_1" xmlns="http://www.w3.org/2000/svg" xmlns:xlink="http://www.w3.org/1999/xlink" x="0px" y="0px"
	 viewBox="0 0 30 30" style="enable-background:new 0 0 30 30;" xml:space="preserve">
<style type="text/css">
	.st0{fill:#F2F2F2;}
	.st1{fill:none;stroke:url(#SVGID_1_);stroke-width:0.75;stroke-miterlimit:10;}
	.st2{fill:none;stroke:url(#SVGID_2_);stroke-width:0.75;stroke-miterlimit:10;}
	.st3{fill:none;stroke:url(#SVGID_3_);stroke-width:0.75;stroke-miterlimit:10;}
	.st4{fill:none;stroke:url(#SVGID_4_);stroke-width:0.75;stroke-miterlimit:10;}
	.st5{fill:none;stroke:url(#SVGID_5_);stroke-width:0.75;stroke-miterlimit:10;}
	.st6{fill:none;stroke:url(#SVGID_6_);stroke-width:0.75;stroke-miterlimit:10;}
	.st7{fill:none;stroke:url(#SVGID_7_);stroke-width:0.75;stroke-miterlimit:10;}
	.st8{fill:none;stroke:url(#SVGID_8_);stroke-width:0.75;stroke-miterlimit:10;}
	.st9{fill:none;stroke:url(#SVGID_9_);stroke-width:0.75;stroke-miterlimit:10;}
	.st10{fill:none;stroke:url(#SVGID_10_);stroke-width:0.75;stroke-miterlimit:10;}
	.st11{fill:none;stroke:url(#SVGID_11_);stroke-width:0.75;stroke-miterlimit:10;}
</style>
<path class="st0" d="M25.2,29.5H4.8c-2.37,0-4.3-1.93-4.3-4.3V4.8c0-2.37,1.93-4.3,4.3-4.3h20.4c2.37,0,4.3,1.93,4.3,4.3v20.4
	C29.5,27.57,27.57,29.5,25.2,29.5z"/>
<g>
	<g>
		<g>
			
				<linearGradient id="SVGID_1_" gradientUnits="userSpaceOnUse" x1="295.4882" y1="-324.4266" x2="295.4882" y2="-324.4266" gradientTransform="matrix(1 0 0 -1 -291 -321)">
				<stop  offset="0" style="stop-color:#ED342B"/>
				<stop  offset="1" style="stop-color:#DD6912"/>
			</linearGradient>
			<path class="st1" d="M4.49,3.43"/>
			
				<linearGradient id="SVGID_2_" gradientUnits="userSpaceOnUse" x1="293.8387" y1="-348.611" x2="293.8387" y2="-348.611" gradientTransform="matrix(1 0 0 -1 -291 -321)">
				<stop  offset="0" style="stop-color:#ED342B"/>
				<stop  offset="1" style="stop-color:#DD6912"/>
			</linearGradient>
			<path class="st2" d="M2.84,27.61"/>
			
				<linearGradient id="SVGID_3_" gradientUnits="userSpaceOnUse" x1="316.3393" y1="-331.2291" x2="316.3393" y2="-331.2291" gradientTransform="matrix(1 0 0 -1 -291 -321)">
				<stop  offset="0" style="stop-color:#ED342B"/>
				<stop  offset="1" style="stop-color:#DD6912"/>
			</linearGradient>
			<path class="st3" d="M25.34,10.23"/>
			
				<linearGradient id="SVGID_4_" gradientUnits="userSpaceOnUse" x1="318.8271" y1="-334.3488" x2="318.8271" y2="-334.3488" gradientTransform="matrix(1 0 0 -1 -291 -321)">
				<stop  offset="0" style="stop-color:#ED342B"/>
				<stop  offset="1" style="stop-color:#DD6912"/>
			</linearGradient>
			<path class="st4" d="M27.83,13.35"/>
			
				<linearGradient id="SVGID_5_" gradientUnits="userSpaceOnUse" x1="314.4925" y1="-343.1086" x2="314.4925" y2="-343.1086" gradientTransform="matrix(1 0 0 -1 -291 -321)">
				<stop  offset="0" style="stop-color:#ED342B"/>
				<stop  offset="1" style="stop-color:#DD6912"/>
			</linearGradient>
			<path class="st5" d="M23.49,22.11"/>
			
				<linearGradient id="SVGID_6_" gradientUnits="userSpaceOnUse" x1="315.8001" y1="-332.8839" x2="319.3714" y2="-332.8839" gradientTransform="matrix(1 0 0 -1 -291 -321)">
				<stop  offset="0" style="stop-color:#ED342B"/>
				<stop  offset="1" style="stop-color:#DD6912"/>
			</linearGradient>
			<path class="st6" d="M27.89,11.47c0.2,0.63,0.12,1.25-0.15,1.68c-0.15,0.23-0.35,0.4-0.6,0.48c-0.72,0.22-1.54-0.37-1.85-1.34
				c-0.3-0.97,0.03-1.93,0.75-2.15C26.76,9.91,27.59,10.51,27.89,11.47z"/>
			
				<linearGradient id="SVGID_7_" gradientUnits="userSpaceOnUse" x1="311.6953" y1="-336.5767" x2="319.2883" y2="-336.5767" gradientTransform="matrix(1 0 0 -1 -291 -321)">
				<stop  offset="0" style="stop-color:#ED342B"/>
				<stop  offset="1" style="stop-color:#DD6912"/>
			</linearGradient>
			<path class="st7" d="M27.74,13.15l0.09,0.2l0.07,0.48c0.01,0.09,0.01,0.19,0.02,0.29c0.03,0.65-0.04,1.63-0.48,2.61l-0.04,0.07
				c0,0-2.58-1.71-4.02,0.04c-1.45,1.74-2.37,0.53-2.37,0.53"/>
			
				<linearGradient id="SVGID_8_" gradientUnits="userSpaceOnUse" x1="293.5669" y1="-332.5852" x2="317.2142" y2="-332.5852" gradientTransform="matrix(1 0 0 -1 -291 -321)">
				<stop  offset="0" style="stop-color:#ED342B"/>
				<stop  offset="1" style="stop-color:#DD6912"/>
			</linearGradient>
			<path class="st8" d="M12.7,4.8h1.73c0.33,0,0.65,0.14,0.88,0.39l4,2.44c0.12,0.07,0.11,0.35-0.03,0.35l-0.86-0.05
				c-0.88-0.07-1.69,0.25-2.16,0.97c-0.69,1.03-0.2,1.94,0.34,2.53c0.43,0.46,1.02,0.72,1.65,0.72l0,0c0.17,0,0.27,0.18,0.19,0.32
				l-1.54,2.63v0.53l0.41,0.33c0.15,0.12,0.17,0.33,0.06,0.48l-0.42,0.55c0,0-0.49-0.44-0.62-0.14l-0.16,0.35h-0.54
				c0,0-0.56,0.21-0.3,0.65l-0.34,0.87h-0.11l-0.43,0.88l0.3,0.38c0,0-0.26,0.84-1.03,0.23l-1.22-0.07v-0.59v-5.52
				c0-0.12-0.02-0.24-0.06-0.35c-0.16-0.43-0.05-0.91,0.3-1.21l0.29-0.24l-1.82-0.06c-0.31-0.01-0.44-0.4-0.2-0.6l0.58-0.47
				c0.27-0.22,0.11-0.65-0.23-0.65H7.92c-0.83,0-1.61-0.44-2.03-1.16L3,4.62c-0.04-0.06-0.06-0.13-0.06-0.2l0,0
				c0-0.31,0.11-0.61,0.32-0.85c0.65-0.76,1.48-1.28,2.22-0.32C5.67,3.5,5.97,3.64,6.29,3.6c2.3-0.28,11.11-1.23,13.53,0.02
				c0.28,0.14,0.58,0.22,0.89,0.22c0.37-0.01,1.02,0.3,1.98,1.85c1.58,2.55,2.22,3.58,2.48,4.01l0.88,0.46"/>
			
				<linearGradient id="SVGID_9_" gradientUnits="userSpaceOnUse" x1="309.7213" y1="-324.5555" x2="313.9042" y2="-324.5555" gradientTransform="matrix(1 0 0 -1 -291 -321)">
				<stop  offset="0" style="stop-color:#ED342B"/>
				<stop  offset="1" style="stop-color:#DD6912"/>
			</linearGradient>
			<path class="st9" d="M19.28,2.56c0,0,0.66,0.85,1.52,0.81c0.86-0.04,1.73,1.08,1.73,1.08S22.71,0.58,19.28,2.56z"/>
			
				<linearGradient id="SVGID_10_" gradientUnits="userSpaceOnUse" x1="297.1862" y1="-337.1675" x2="317.7599" y2="-337.1675" gradientTransform="matrix(1 0 0 -1 -291 -321)">
				<stop  offset="0" style="stop-color:#ED342B"/>
				<stop  offset="1" style="stop-color:#DD6912"/>
			</linearGradient>
			<path class="st10" d="M6.57,27.49l0.13-0.07l5.19-3.08c0.02-0.01,0.03-0.02,0.05-0.04c0.17-0.28,1.69-2.66,4.93-2.48
				c0.41,0.02,0.77-0.25,0.87-0.65l0.53-2.17c0-0.01,0-0.01,0.01-0.01l1.62-3.81c0.04-0.09,0.11-0.16,0.19-0.19l2.1-0.93
				c0.03-0.01,0.06-0.05,0.06-0.09l0.03-0.69c0.01-0.15,0.13-0.27,0.28-0.27h2.29c0.16,0,0.26-0.16,0.18-0.3
				c-0.4-0.77-0.18-1.79-0.07-1.98c0.02-0.03-0.14-0.69-0.65-0.44l-3.13-5.12c-0.14-0.23-0.39-0.37-0.66-0.37h-3.76h-0.29
				c-0.14,0-0.19,0.18-0.08,0.26l4.37,2.9l-0.59,0c-0.09,0.01-0.14,0.12-0.07,0.19l1.67,1.81c0.38,0.38,0.27,1.02-0.22,1.25
				l-2.43,1.13l-0.2,0.57c0,0.01-0.01,0.02-0.01,0.02l-1.36,1.97c-0.01,0.02-0.02,0.04-0.02,0.06l0.02,0.22c0,0.01,0,0.01,0,0.02
				l-0.05,0.41c0,0.03,0.01,0.07,0.04,0.09l0.07,0.05c0.24,0.18,0.28,0.53,0.09,0.76l-0.67,0.82c-0.04,0.05-0.12,0.05-0.16,0
				L16.7,17.1c-0.04-0.06-0.13-0.05-0.16,0.01l-0.21,0.37c-0.02,0.03-0.05,0.05-0.08,0.05l-0.46,0.03c-0.03,0-0.06,0.02-0.08,0.05
				l-0.03,0.05c-0.03,0.04-0.02,0.1,0.02,0.13l0.02,0.02c0.03,0.03,0.04,0.07,0.03,0.11l-0.4,1c-0.02,0.04-0.05,0.07-0.1,0.06
				l-0.1-0.01c-0.04,0-0.08,0.02-0.1,0.06l-0.14,0.31c-0.01,0.03-0.01,0.06,0,0.09l0.24,0.49c0.02,0.03,0.01,0.07-0.01,0.1
				l-0.43,0.58c-0.21,0.28-0.61,0.32-0.87,0.09l-0.09-0.14l-1.25-0.08l-0.64,0.51c-0.02,0.01-0.04,0.02-0.07,0.02l-0.5-0.02
				c-0.02,0-0.05,0.01-0.07,0.02l-0.97,0.78c-0.02,0.01-0.03,0.03-0.03,0.05l-0.18,0.59c0,0.01-0.01,0.02-0.01,0.03l-0.79,1.18
				c-0.02,0.03-0.05,0.05-0.09,0.04l-0.38-0.02c-0.05,0-0.1,0.04-0.11,0.09L8.63,24.5c0,0.03-0.02,0.06-0.04,0.07l-1.1,0.85
				c0,0-0.01,0.01-0.01,0.01l-0.87,0.7C6.52,26.36,6.58,27.49,6.57,27.49c1.77-0.21,3.89-0.71,5.98-1.88
				c3.22-1.8,5.49-0.49,6.4,0.25c0.33,0.27,0.82,0.22,1.09-0.11c0.93-1.13,2.14-3.77,2.35-4.94c0.27-1.48,3.34-2.64,3.34-2.64
				c0.24-0.23,0.44-0.48,0.62-0.72c0.11-0.15,0-0.36-0.19-0.36h-0.5"/>
			
				<linearGradient id="SVGID_11_" gradientUnits="userSpaceOnUse" x1="308.0692" y1="-331.1473" x2="312.1388" y2="-331.1473" gradientTransform="matrix(1 0 0 -1 -291 -321)">
				<stop  offset="0" style="stop-color:#ED342B"/>
				<stop  offset="1" style="stop-color:#DD6912"/>
			</linearGradient>
			<path class="st11" d="M18.64,9.06c-0.05-0.03-0.1-0.04-0.15-0.03c-0.56,0.02-1.02,0.49-1.04,1.09c-0.02,0.6,0.41,1.11,0.99,1.16
				c0.04,0,0.07,0,0.11-0.01l2.02-0.62c0.24-0.07,0.27-0.4,0.05-0.52L18.64,9.06z"/>
		</g>
	</g>
</g>
</svg>
