<?xml version="1.0" encoding="utf-8"?>
<!-- Generator: Adobe Illustrator 23.1.0, SVG Export Plug-In . SVG Version: 6.00 Build 0)  -->
<svg version="1.1" id="Capa_1" xmlns="http://www.w3.org/2000/svg" xmlns:xlink="http://www.w3.org/1999/xlink" x="0px" y="0px"
	 viewBox="0 0 5771 2000" style="enable-background:new 0 0 5771 2000;" xml:space="preserve">
<style type="text/css">
	.st0{display:none;}
	.st1{fill:#FFFFFF;}
	.st2{font-family:'RobotoCondensed-Regular';}
	.st3{font-size:1146.2494px;}
	.st4{font-size:239.6879px;}
	.st5{letter-spacing:56;}
</style>
<rect class="st0" width="5771" height="2000"/>
<g>
	<path class="st1" d="M729.36,1459.57l1117.57,0.41c24.44-0.1,44.17-20,44.07-44.45c-0.1-24.44-20-44.17-44.45-44.07l-1106.39-0.46
		L446.96,299.83c-9.26-31.07-38.39-52.68-70.82-52.54l-223.83,0.44c-24.44,0.1-44.17,20-44.07,44.45s20,44.17,44.45,44.07
		l212.65-0.4l293.21,1071.18C667.81,1438.1,696.93,1459.71,729.36,1459.57z"/>
	<g>
		<g>
			<path class="st1" d="M1756.73,759.6c-69.08,0-130.05,0-194.26-0.01c-2.68,31.11-5.31,61.67-8.14,94.56
				c-70.72-8.41-25.67-63.04-43.89-93.88c-74.95,0-152.43,0-231.86-0.01c0,65.86,0,130.23-0.01,200.45
				c25.26,0,49.12,1.43,72.74-0.34c33.44-2.51,49.39,11.78,49.33,45.73c-39.33,0-78.64,0-121.06,0c0,73.56,0,147.44-0.01,224.58
				c76.91-15.73,116.33-74.92,156.22-134.48c22.8,44.1,22.8,44.1-22.11,111.84c21.38-8.5,37.63-14.97,57.59-22.91
				c5.37,12.07,10.94,24.59,16.42,36.91c-167.09,95.31-452.17,81.07-632.24-117c-185.14-203.65-193.39-509.78-21.35-713.87
				c179.4-212.82,481.77-261.89,710.66-114.74c240.75,154.78,303.04,444.13,212.95,657.53c-12.54-4.27-25.36-8.64-36.03-12.27
				C1733.35,867.8,1744.42,816.55,1756.73,759.6z M1230.29,760.06c-79.98,0-157.32,0-243.08-0.01
				c10.31,65.85,19.47,128.29,30.66,190.37c1.25,6.94,14.27,17.05,21.52,16.79c63.22-2.23,126.37-6.48,190.9-10.22
				C1230.29,891.03,1230.29,827.62,1230.29,760.06z M1230.02,514.28c-64.85-3.54-127.08-7.54-189.37-9.57
				c-7.57-0.25-21.16,9.09-22.37,15.74c-11.36,62.17-20.63,124.72-31.04,190.51c85.95,0,163.43,0.01,242.78,0.01
				C1230.02,645.29,1230.02,581.81,1230.02,514.28z M1520.76,711.72c-10.74-72.64-20.75-140.36-30.87-208.82
				c-76.32,4.13-143.98,7.78-210.77,11.4c0,67.92,0,132.16-0.01,197.42C1358.04,711.72,1434.41,711.72,1520.76,711.72z
				 M756.52,759.5c4.43,82.86,26.44,156.85,66.53,225.37c3.71,6.35,12.75,15.1,17.89,14.23c44.52-7.49,88.7-16.92,131.12-25.4
				c-9.87-72.8-19.33-142.62-29.04-214.2C882.55,759.5,821.7,759.5,756.52,759.5z M1751.46,711.21
				c-3.99-83.91-27.45-159.37-69.8-228.98c-3.05-5.01-13.92-8.7-20.29-7.67c-42.35,6.87-84.47,15.19-125.7,22.86
				c10.11,73.06,19.88,143.59,29.59,213.78C1627.1,711.21,1687.96,711.21,1751.46,711.21z M972.38,497.9
				c-41.66-8.01-83.73-16.62-126.05-23.68c-6.26-1.05-17.04,3.18-20.15,8.34c-42.02,69.66-65.4,145.02-69.39,228.26
				c64.78,0,126.41,0,186.51,0.01C953.13,638.78,962.62,569.3,972.38,497.9z M1230.43,243.82
				c-78.55,9.17-177.5,123.84-187.57,215.83c62.07,2.89,123.95,5.78,187.57,8.75C1230.43,390.08,1230.43,318.11,1230.43,243.82z
				 M1229.58,1233.14c0-80.34,0-153.05,0.01-230.55c-64.96,3.59-127.3,7.03-194.22,10.73
				C1078.13,1110.95,1120.35,1198.53,1229.58,1233.14z M1278.14,468.88c65.07-3.43,127.38-6.72,194.78-10.28
				c-42.54-98.59-85.76-185.19-194.78-220.23C1278.14,316.88,1278.14,388.84,1278.14,468.88z M1423.7,267.75
				c28.55,55.09,57.11,111.28,87.05,166.71c4.09,7.56,15.73,16.85,22.8,16.02c36.37-4.25,72.39-11.53,114.27-18.74
				C1584.32,351.27,1509.5,298.96,1423.7,267.75z M1084.62,267.84c-85.45,30.15-160.41,83.41-224.25,163.69
				c41.11,7.28,76.21,14.8,111.7,18.78c7.89,0.89,20.78-8.71,25.24-16.84C1027.64,378.16,1056.34,321.95,1084.62,267.84z
				 M859.8,1039.94c65.74,80.13,138.9,134.6,226.68,164.33c-33.81-60.63-67.84-121.68-103.42-185.48
				C946.57,1025.05,906.66,1031.9,859.8,1039.94z"/>
		</g>
		<g>
			<path class="st1" d="M1382.06,834.89c145.79,55.64,283.74,108.29,428.53,163.55c-49.75,17.79-92.91,33.23-145.53,52.05
				c35.76,29.71,66.75,55.47,98.37,81.74c-30.79,30.93-53.32,53.57-82.92,83.3c-26.09-31.52-51.83-62.62-82.19-99.3
				c-19.16,53.6-34.44,96.37-52.58,147.11C1490.4,1118.49,1437.55,980.13,1382.06,834.89z"/>
		</g>
	</g>
	<g>
		<g>
			<path class="st1" d="M1142.39,1661.04c0,80.98-51.38,146.63-132.37,146.63c-80.98,0-160.91-65.66-160.9-146.64
				c0-80.98,65.66-146.63,146.64-146.63C1076.75,1514.4,1142.4,1580.05,1142.39,1661.04z"/>
		</g>
		<g>
			<path class="st1" d="M1752.29,1661.04c0,80.98-51.38,146.63-132.37,146.63c-80.98,0-160.91-65.66-160.9-146.64
				c0-80.98,65.66-146.63,146.64-146.63C1686.65,1514.4,1752.3,1580.05,1752.29,1661.04z"/>
		</g>
	</g>
</g>
<g>
	<text transform="matrix(1 0 0 1 2166.0654 1275.7417)" class="st1 st2 st3">Zonova</text>
	<text transform="matrix(1 0 0 1 2166.0654 1603.4165)" class="st1 st2 st4 st5">Porque pensamos en ti</text>
</g>
</svg>
