<?xml version="1.0" encoding="utf-8"?>
<!-- Generator: Adobe Illustrator 23.1.0, SVG Export Plug-In . SVG Version: 6.00 Build 0)  -->
<svg version="1.1" id="Capa_1" xmlns="http://www.w3.org/2000/svg" xmlns:xlink="http://www.w3.org/1999/xlink" x="0px" y="0px"
	 viewBox="0 0 1417 1293" style="enable-background:new 0 0 1417 1293;" xml:space="preserve">
<style type="text/css">
	.st0{fill:#FFFFFF;}
</style>
<path class="st0" d="M497.79,1004.47l861.06,0.32c18.83-0.08,34.03-15.41,33.95-34.24s-15.41-34.03-34.24-33.95l-852.44-0.35
	L280.21,110.92c-7.13-23.94-29.57-40.59-54.56-40.48L53.19,70.78c-18.83,0.08-34.03,15.41-33.95,34.24
	c0.08,18.83,15.41,34.03,34.24,33.95l163.84-0.31l225.91,825.31C450.37,987.93,472.81,1004.57,497.79,1004.47z"/>
<g>
	<g>
		<path class="st0" d="M1289.36,465.16c-53.22,0-100.2,0-149.67,0c-2.06,23.97-4.09,47.52-6.27,72.86
			c-54.48-6.48-19.78-48.57-33.81-72.34c-57.74,0-117.45,0-178.64-0.01c0,50.74,0,100.34,0,154.44c19.46,0,37.85,1.1,56.04-0.26
			c25.76-1.93,38.05,9.08,38.01,35.23c-30.3,0-60.59,0-93.27,0c0,56.67,0,113.6-0.01,173.03c59.25-12.12,89.63-57.73,120.36-103.61
			c17.57,33.98,17.57,33.98-17.04,86.17c16.47-6.55,28.99-11.53,44.37-17.65c4.14,9.3,8.43,18.94,12.65,28.44
			c-128.74,73.43-348.39,62.46-487.12-90.14c-142.64-156.91-149-392.77-16.45-550.02C716.73,17.32,949.7-20.49,1126.05,92.89
			c185.49,119.26,233.49,342.19,164.07,506.61c-9.66-3.29-19.54-6.65-27.76-9.45C1271.34,548.52,1279.87,509.04,1289.36,465.16z
			 M883.75,465.52c-61.62,0-121.21,0-187.29-0.01c7.94,50.73,15,98.84,23.63,146.67c0.96,5.35,10.99,13.14,16.58,12.94
			c48.71-1.72,97.37-5,147.08-7.87C883.75,566.42,883.75,517.57,883.75,465.52z M883.54,276.15c-49.97-2.73-97.91-5.81-145.91-7.37
			c-5.84-0.19-16.3,7-17.24,12.12c-8.75,47.9-15.9,96.09-23.91,146.78c66.23,0,125.92,0,187.05,0.01
			C883.54,377.08,883.54,328.18,883.54,276.15z M1107.54,428.27c-8.27-55.96-15.99-108.14-23.78-160.89
			c-58.8,3.18-110.94,6-162.39,8.78c0,52.33,0,101.82,0,152.11C982.17,428.27,1041.02,428.27,1107.54,428.27z M518.72,465.08
			c3.42,63.84,20.37,120.85,51.26,173.64c2.86,4.89,9.83,11.63,13.78,10.97c34.3-5.77,68.34-13.04,101.02-19.57
			c-7.6-56.09-14.9-109.88-22.37-165.03C615.82,465.08,568.94,465.08,518.72,465.08z M1285.3,427.88
			c-3.07-64.65-21.15-122.79-53.78-176.42c-2.35-3.86-10.73-6.7-15.63-5.91c-32.63,5.29-65.08,11.7-96.85,17.61
			c7.79,56.29,15.31,110.63,22.8,164.71C1189.47,427.88,1236.37,427.88,1285.3,427.88z M685.03,263.53
			c-32.1-6.17-64.51-12.8-97.12-18.25c-4.82-0.81-13.13,2.45-15.53,6.42c-32.37,53.67-50.39,111.74-53.46,175.87
			c49.91,0,97.4,0,143.7,0C670.21,372.07,677.52,318.54,685.03,263.53z M883.86,67.77c-60.52,7.06-136.76,95.42-144.52,166.29
			c47.83,2.23,95.5,4.45,144.51,6.74C883.85,180.45,883.85,125,883.86,67.77z M883.2,830.01c0-61.9,0-117.92,0.01-177.64
			c-50.05,2.77-98.08,5.42-149.64,8.27C766.51,735.87,799.04,803.34,883.2,830.01z M920.61,241.17
			c50.14-2.65,98.14-5.18,150.08-7.92c-32.78-75.96-66.08-142.69-150.07-169.68C920.62,124.06,920.62,179.5,920.61,241.17z
			 M1032.77,86.2c22,42.45,44,85.74,67.07,128.45c3.15,5.83,12.12,12.98,17.56,12.35c28.03-3.27,55.78-8.88,88.04-14.44
			C1156.51,150.55,1098.87,110.25,1032.77,86.2z M771.51,86.28c-65.83,23.23-123.59,64.26-172.78,126.12
			c31.68,5.61,58.72,11.4,86.06,14.47c6.08,0.68,16.01-6.71,19.45-12.97C727.61,171.27,749.72,127.96,771.51,86.28z M598.3,681.15
			c50.65,61.74,107.02,103.71,174.65,126.61c-26.05-46.72-52.27-93.75-79.68-142.91C665.15,669.68,634.4,674.96,598.3,681.15z"/>
	</g>
	<g>
		<path class="st0" d="M1000.68,523.17c112.32,42.87,218.61,83.44,330.17,126.01c-38.33,13.71-71.59,25.6-112.13,40.1
			c27.55,22.89,51.43,42.74,75.79,62.98c-23.72,23.83-41.09,41.27-63.89,64.18c-20.1-24.28-39.93-48.25-63.32-76.51
			c-14.76,41.29-26.54,74.25-40.51,113.35C1084.15,741.67,1043.43,635.08,1000.68,523.17z"/>
	</g>
</g>
<g>
	<g>
		<path class="st0" d="M816.02,1159.69c0,62.4-39.59,112.98-101.99,112.97c-62.4,0-123.98-50.59-123.97-112.99
			c0-62.4,50.59-112.98,112.99-112.97C765.45,1046.71,816.03,1097.3,816.02,1159.69z"/>
	</g>
	<g>
		<path class="st0" d="M1285.93,1159.69c0,62.4-39.59,112.98-101.99,112.97c-62.4,0-123.98-50.59-123.97-112.99
			c0-62.4,50.59-112.98,112.99-112.97C1235.36,1046.71,1285.94,1097.3,1285.93,1159.69z"/>
	</g>
</g>
</svg>
